<svg width="428" height="405" viewBox="0 0 428 405" fill="none" xmlns="http://www.w3.org/2000/svg">
<path d="M386.364 231.862C378.632 230.545 370.734 230.528 362.997 231.813C356.25 206.897 342.532 184.42 323.454 167.019C304.375 149.619 280.727 138.016 255.285 133.574C229.842 129.131 203.662 132.033 179.815 141.939C155.968 151.844 135.445 168.342 120.653 189.497C110.435 184.672 99.2061 182.372 87.9133 182.79C76.6205 183.208 65.5942 186.333 55.7633 191.9C45.9324 197.467 37.5847 205.314 31.4236 214.78C25.2624 224.246 21.4682 235.054 20.3605 246.293C19.2528 257.531 20.8642 268.872 25.0587 279.36C29.2533 289.847 35.9082 299.175 44.463 306.556C53.0177 313.937 63.2218 319.155 74.2155 321.772C85.2091 324.389 96.6705 324.327 107.634 321.592C116.737 342.352 130.9 360.504 148.828 374.388C166.757 388.273 187.879 397.447 210.266 401.075C232.654 404.702 255.593 402.666 276.988 395.153C298.382 387.64 317.552 374.889 332.744 358.065C341.317 364.382 351.209 368.677 361.679 370.627C372.149 372.578 382.924 372.133 393.196 369.327C403.468 366.521 412.971 361.426 420.99 354.424C429.01 347.423 435.338 338.697 439.5 328.901C443.662 319.106 445.549 308.495 445.021 297.865C444.492 287.235 441.562 276.862 436.449 267.525C431.336 258.187 424.174 250.128 415.499 243.951C406.825 237.775 396.864 233.642 386.364 231.862Z" fill="#3BB9E0"/>
<path d="M409.146 129.241L378.797 138.997L377.416 111.947L398.641 103.253L409.146 129.241Z" fill="#FFB9B9"/>
<path d="M98.5717 73.2315C98.5717 24.432 216.088 2.35611 291.426 51.1555C366.764 99.955 488.935 -18.929 552.056 2.64658C615.177 24.2221 671.317 231.539 552.056 231.539C432.794 231.539 240.231 185.354 135.514 231.539C30.7963 277.724 98.5717 122.031 98.5717 73.2315Z" fill="#C4C4C4" fill-opacity="0.2"/>
<path d="M360.766 488.59C261.897 452.943 157.451 435.249 52.3581 436.342C50.6885 436.361 49.0349 436.013 47.5142 435.324C45.9935 434.634 44.6426 433.62 43.557 432.352C42.4713 431.084 41.6773 429.593 41.231 427.985C40.7847 426.377 40.6969 424.691 40.9739 423.045L64.6289 283.414L399.549 340.153L375.894 479.784C375.614 481.429 374.975 482.992 374.024 484.364C373.073 485.735 371.832 486.881 370.39 487.721C368.947 488.561 367.337 489.074 365.674 489.224C364.011 489.374 362.336 489.157 360.766 488.59Z" fill="#3BB9E0"/>
<path d="M257.99 198.179L233.32 194L167 585.473L191.67 589.653L257.99 198.179Z" fill="#E6E6E6"/>
<path d="M242.593 221.529C269.431 226.075 296.735 197.011 303.579 156.613C310.423 116.214 294.215 79.7788 267.378 75.2322C240.54 70.6857 213.236 99.7496 206.392 140.148C199.548 180.547 215.756 216.982 242.593 221.529Z" fill="#E6E6E6"/>
<path d="M159.819 169.727L136.899 179.753L296.285 543.497L319.205 533.47L159.819 169.727Z" fill="#E6E6E6"/>
<path d="M140.437 70.8822L169.064 136.213C169.619 137.478 169.647 138.911 169.144 140.197C168.641 141.483 167.647 142.517 166.382 143.071C165.116 143.624 163.682 143.653 162.395 143.15C161.107 142.647 160.073 141.653 159.519 140.388L126.609 65.2831C120.673 63.7605 114.452 63.7285 108.501 65.1899L144.358 147.02C144.912 148.285 144.94 149.718 144.437 151.004C143.934 152.29 142.94 153.323 141.675 153.877C140.409 154.43 138.975 154.459 137.688 153.956C136.402 153.453 135.367 152.461 134.812 151.196L98.9558 69.3656C93.8446 72.7432 89.6488 77.3318 86.742 82.7227L119.652 157.828C120.206 159.093 120.234 160.526 119.731 161.812C119.228 163.097 118.234 164.131 116.969 164.684C115.703 165.238 114.269 165.267 112.982 164.764C111.695 164.261 110.661 163.268 110.106 162.003L81.4796 96.6731C77.7114 112.898 79.7681 133.234 88.464 153.08C104.626 189.963 137.587 211.175 162.086 200.458C186.585 189.741 193.343 151.154 177.181 114.27C168.486 94.4252 154.925 79.1212 140.437 70.8822Z" fill="#E6E6E6"/>
<path d="M372.629 333.25L355.557 324.026L387.974 238.272L376.202 235.16C363.03 242.124 346.912 242.998 327.449 236.957L351.173 290.51L332.974 299.223L291.646 228.276C289.783 225.078 289.101 221.329 289.719 217.681C290.292 214.299 291.95 211.195 294.443 208.838C296.936 206.481 300.128 204.998 303.538 204.612L361.618 198.053L425.241 216.28C432.515 232.879 431.138 243.332 415.706 243.801L372.629 333.25Z" fill="#2F2E41"/>
<path d="M348.243 364.615C346.391 364.179 344.667 363.313 343.212 362.087C341.757 360.861 340.612 359.309 339.87 357.558C339.128 355.806 338.81 353.905 338.941 352.008C339.072 350.111 339.649 348.271 340.625 346.639L353.551 325.023C359.592 317.138 365.687 319.286 371.817 328.118L373.64 339.351C373.79 340.276 373.752 341.222 373.527 342.132C373.302 343.041 372.896 343.896 372.332 344.645L360.681 360.117C359.269 361.992 357.341 363.416 355.132 364.215C352.923 365.014 350.53 365.153 348.243 364.615Z" fill="#2F2E41"/>
<path d="M378.507 113.765C389.711 115.663 400.332 108.125 402.229 96.9273C404.126 85.73 396.581 75.114 385.376 73.2158C374.171 71.3176 363.55 78.856 361.653 90.0532C359.756 101.25 367.302 111.866 378.507 113.765Z" fill="#FFB9B9"/>
<path d="M427.526 220.392C401.114 207.274 376.595 198.642 357.198 202.146C366.499 185.501 359.453 156.484 351.351 126.668C358.088 120.396 367.358 119.095 377.525 119.557C387.083 129.311 395.542 125.523 403.393 114.256C416.078 115.885 427.465 122.401 438.021 132.041C423.736 160.12 420.457 189.599 427.526 220.392Z" fill="#C4C4C4"/>
<path d="M356.1 206.429C351.266 208.273 346.47 211.947 341.697 216.652C335.841 211.549 330.863 206.025 327.251 199.846C324.731 195.472 323.343 190.539 323.213 185.494C323.084 180.449 324.216 175.451 326.508 170.955L345.7 132.843C347.294 129.678 349.794 127.057 352.88 125.313L354.739 124.263L365.829 157.799L344.374 185.448C345.503 191.338 350.511 198.768 356.1 206.429Z" fill="#CCCCCC"/>
<path d="M402.561 96.0709L399.079 95.5868L391.775 80.3566C379.247 79.5427 368.252 83.1793 358.327 89.9212L358.439 84.0073C358.545 78.3676 360.81 72.9835 364.767 68.9624C368.724 64.9413 374.074 62.589 379.714 62.3893L379.714 62.3893C382.677 62.2845 385.631 62.7773 388.399 63.8386C391.167 64.8998 393.693 66.5075 395.826 68.5658C397.959 70.6242 399.655 73.0909 400.813 75.8186C401.971 78.5463 402.567 81.4791 402.566 84.4419L402.561 96.0709Z" fill="#865A61"/>
<path d="M342.045 216.718C341.622 215.127 341.574 213.459 341.907 211.847C342.24 210.235 342.943 208.722 343.962 207.428C344.981 206.134 346.287 205.095 347.777 204.393C349.267 203.691 350.9 203.346 352.547 203.383L371.45 203.816L374.927 214.088L357.254 223.383C355.842 224.126 354.281 224.541 352.687 224.598C351.092 224.654 349.505 224.351 348.044 223.711C346.583 223.07 345.285 222.109 344.246 220.899C343.208 219.688 342.455 218.259 342.045 216.718Z" fill="#FFB9B9"/>
<path d="M432.101 214.726C414.321 213.114 394.233 215.337 372.859 219.696C373.618 213.704 372.426 207.625 369.46 202.361C388.491 200.652 405.977 197.825 417.635 190.783L419.326 143.398L435.307 130.464L437.415 132.061C439.166 133.383 440.62 135.059 441.682 136.979C442.744 138.899 443.39 141.02 443.578 143.206C445.511 166.166 444.454 187.671 439.365 207.216C439.269 209.134 438.48 210.953 437.144 212.334C435.809 213.715 434.017 214.565 432.101 214.726Z" fill="#CCCCCC"/>
<path d="M356.557 236.458C354.965 236.881 353.296 236.928 351.682 236.595C350.069 236.262 348.555 235.558 347.26 234.54C345.965 233.521 344.926 232.216 344.223 230.727C343.52 229.237 343.174 227.605 343.211 225.959L343.639 207.069L353.918 203.596L363.223 221.26C363.966 222.671 364.382 224.231 364.439 225.825C364.496 227.418 364.193 229.004 363.552 230.464C362.912 231.924 361.95 233.221 360.739 234.259C359.528 235.296 358.099 236.048 356.557 236.458Z" fill="#FFB9B9"/>
<path d="M326.181 319.35C324.329 318.914 322.605 318.048 321.15 316.822C319.695 315.596 318.55 314.044 317.808 312.293C317.066 310.541 316.748 308.64 316.879 306.743C317.01 304.845 317.587 303.006 318.563 301.374L331.489 279.758C337.53 271.873 343.625 274.021 349.755 282.852L351.578 294.086C351.728 295.011 351.69 295.957 351.465 296.866C351.24 297.776 350.834 298.631 350.27 299.379L338.619 314.851C337.207 316.727 335.279 318.151 333.07 318.95C330.861 319.749 328.468 319.888 326.181 319.35Z" fill="#2F2E41"/>
</svg>
