<?xml version="1.0" encoding="utf-8"?>
<!-- Generator: Adobe Illustrator 18.0.0, SVG Export Plug-In . SVG Version: 6.00 Build 0)  -->
<!DOCTYPE svg PUBLIC "-//W3C//DTD SVG 1.1//EN" "http://www.w3.org/Graphics/SVG/1.1/DTD/svg11.dtd">
<svg version="1.1" xmlns="http://www.w3.org/2000/svg" xmlns:xlink="http://www.w3.org/1999/xlink" x="0px" y="0px"
	 viewBox="0 0 1400 980" enable-background="new 0 0 1400 980" xml:space="preserve">
<pattern  width="428.4" height="293.6" patternUnits="userSpaceOnUse" id="New_Pattern_7" viewBox="0 -293.6 428.4 293.6" overflow="visible">
	<g>
		<polygon fill="none" points="0,-293.6 428.4,-293.6 428.4,0 0,0 		"/>
		<g>
			<path fill="#FAA839" d="M339.1-224.1H234.4c0-28.9,23.4-52.4,52.4-52.4C315.6-276.5,339.1-253,339.1-224.1z"/>
			<path fill="#FAA839" d="M339.1-195.7c0,6.2-1.4,15.4-7.4,20c-1.8,1.4-4,2.3-6.6,2.6c0,0,0,0,0,0h-78.2c-0.1,0-0.1,0-0.2,0
				c-2.1-0.1-3.9-1.1-5.5-2.6c-4.5-4.6-6.8-14-6.8-20H339.1z"/>
			<path fill="#A30B1A" d="M339.1-208.1c0,4.6-3.7,8.3-8.3,8.3h-89.7c-4.6,0-8.3-3.7-8.3-8.3c0-2.3,0.9-4.4,2.4-5.9
				c1.5-1.5,3.6-2.4,5.9-2.4h89.7c0.1,0,0.3,0,0.4,0C335.6-216.2,339.1-212.6,339.1-208.1z"/>
			<polygon fill="#39B54A" points="331.2,-224.1 331.2,-219.6 241.1,-219.6 241.1,-224.1 			"/>
			<polygon fill="#F15644" points="279.7,-199.8 279.7,-195.7 241.1,-195.7 241.1,-199.8 			"/>
			<polygon fill="#F15644" points="331.2,-195.7 292.6,-195.7 292.6,-199.8 331.2,-199.8 			"/>
			<polygon fill="#FFDE38" points="280.6,-216.4 305.9,-205.5 331.2,-216.4 			"/>
			<polygon fill="#FFDE38" points="331.2,-219.6 331.2,-216.4 280.6,-216.4 280.6,-219.6 			"/>
			<polygon fill="#FFDE38" points="240.8,-216.4 266.1,-205.5 291.4,-216.4 			"/>
			<polygon fill="#FFDE38" points="291.4,-219.6 291.4,-216.4 240.8,-216.4 240.8,-219.6 			"/>
			<path fill="#F15644" d="M288.5-257.4c0,1.4-1.1,2.6-2.6,2.6c-1.4,0-2.6-1.1-2.6-2.6c0-1.4,1.1-2.6,2.6-2.6
				C287.4-260,288.5-258.9,288.5-257.4z"/>
			<path fill="#F15644" d="M275-241.1c0,1.4-1.1,2.6-2.6,2.6c-1.4,0-2.6-1.1-2.6-2.6c0-1.4,1.1-2.6,2.6-2.6
				C273.8-243.7,275-242.5,275-241.1z"/>
			<path fill="#FFFFFF" d="M269.6-253.7c0,1-0.8,1.7-1.7,1.7c-1,0-1.7-0.8-1.7-1.7s0.8-1.7,1.7-1.7
				C268.9-255.4,269.6-254.6,269.6-253.7z"/>
			<path fill="#FFFFFF" d="M306.3-253.7c0,1-0.8,1.7-1.7,1.7c-1,0-1.7-0.8-1.7-1.7s0.8-1.7,1.7-1.7
				C305.5-255.4,306.3-254.6,306.3-253.7z"/>
			<path fill="#FFFFFF" d="M257.2-241.1c0,1.4-1.1,2.6-2.6,2.6c-1.4,0-2.6-1.1-2.6-2.6c0-1.4,1.1-2.6,2.6-2.6
				C256-243.7,257.2-242.5,257.2-241.1z"/>
			<path fill="#FFFFFF" d="M296.9-241.1c0,1.4,1.1,2.6,2.6,2.6c1.4,0,2.6-1.1,2.6-2.6c0-1.4-1.1-2.6-2.6-2.6
				C298-243.7,296.9-242.5,296.9-241.1z"/>
			<path fill="#F15644" d="M314.7-241.1c0,1.4,1.1,2.6,2.6,2.6c1.4,0,2.6-1.1,2.6-2.6c0-1.4-1.1-2.6-2.6-2.6
				C315.8-243.7,314.7-242.5,314.7-241.1z"/>
			<path fill="#FECB88" d="M331.7-175.7c-1.8,1.4-4,2.3-6.6,2.6h-78.4c-2.1-0.1-3.9-1.1-5.5-2.6H331.7z"/>
			<polygon fill="#39B54A" points="331.2,-224.1 331.2,-221.5 241.1,-221.5 241.1,-224.1 			"/>
			<polygon fill="#FECB88" points="331.2,-199.8 331.2,-197.2 241.1,-197.2 241.1,-199.8 			"/>
		</g>
		<g>
			<path fill="#FAA839" d="M428.4-84.5c0,0.9,0,1.7-0.1,2.6c-1.3,29.6-25.7,53.2-55.6,53.4h-0.3c-30.1,0-54.7-23.8-56-53.6
				c0-0.8-0.1-1.6-0.1-2.4c0-1.1,0-2.2,0.1-3.3c3.7,0.2,5.5,3.1,6.7,5.1c1.1,1.8,1.6,2.4,2.3,2.4c0.6,0,1.2-0.6,2.3-2.4
				c1.3-2.1,3.2-5.1,7.1-5.1c3.9,0,5.9,3.1,7.1,5.1c1.1,1.8,1.6,2.4,2.3,2.4c0.6,0,1.2-0.6,2.3-2.4c1.2-1.9,3-4.8,6.5-5.1
				c-0.2,1.1-0.3,2.2-0.3,3.3c0,0.9,0.1,1.8,0.2,2.7c1.3,9.6,9.5,16.9,19.4,16.9c0.1,0,0.2,0,0.3,0c9.8-0.2,17.9-7.6,19.1-17.1
				c0.1-0.8,0.2-1.7,0.2-2.5c0-1.1-0.1-2.2-0.3-3.3c3.7,0.2,5.5,3.1,6.7,5.1c1.1,1.8,1.6,2.4,2.3,2.4c0.6,0,1.2-0.6,2.3-2.4
				c1.3-2.1,3.2-5.1,7.1-5.1c0.2,0,0.5,0,0.7,0c0.1,0,0.2,0,0.3,0c0.2,0,0.4,0.1,0.6,0.1c0.2,0,0.4,0.1,0.6,0.2
				c0.1,0,0.2,0.1,0.3,0.1c0.5,0.2,0.9,0.5,1.3,0.7c0.2,0.1,0.3,0.2,0.5,0.4c0,0,0,0,0.1,0.1c0.2,0.2,0.4,0.3,0.5,0.5
				c0.2,0.2,0.3,0.4,0.5,0.6c0.2,0.2,0.3,0.4,0.5,0.6c0.1,0.2,0.2,0.3,0.3,0.5c0.3,0.5,0.6,0.9,0.9,1.4c1.1,1.8,1.6,2.4,2.3,2.4
				c0.6,0,1.2-0.6,2.3-2.4c1.2-1.9,3-4.8,6.5-5.1C428.4-86.7,428.4-85.6,428.4-84.5z"/>
			<path fill="#F15644" d="M428.3-87.7c-3.5,0.3-5.3,3.2-6.5,5.1c-1.1,1.8-1.6,2.4-2.3,2.4c-0.7,0-1.2-0.6-2.3-2.4
				c-0.3-0.4-0.5-0.9-0.9-1.4c-0.1-0.2-0.2-0.3-0.3-0.5c-0.1-0.2-0.3-0.4-0.5-0.6c-0.2-0.2-0.3-0.4-0.5-0.6
				c-0.2-0.2-0.4-0.4-0.5-0.5c0,0,0,0-0.1-0.1c-0.1-0.1-0.3-0.2-0.5-0.4c-0.4-0.3-0.8-0.5-1.3-0.7c-0.1,0-0.2-0.1-0.3-0.1
				c-0.2-0.1-0.4-0.1-0.6-0.2c-0.2-0.1-0.4-0.1-0.6-0.1c-0.1,0-0.2,0-0.3,0c-0.2,0-0.5,0-0.7,0c-3.9,0-5.8,3.1-7.1,5.1
				c-1.1,1.8-1.6,2.4-2.3,2.4c-0.7,0-1.2-0.6-2.3-2.4c-1.2-2-3.1-4.9-6.7-5.1c-1.6-9.2-9.4-16.2-19-16.3c-0.1,0-0.2,0-0.3,0
				c-9.7,0-17.8,7.1-19.3,16.3c-3.5,0.3-5.3,3.2-6.5,5.1c-1.1,1.8-1.6,2.4-2.3,2.4c-0.7,0-1.2-0.6-2.3-2.4c-1.3-2.1-3.2-5.1-7.1-5.1
				c-3.9,0-5.8,3.1-7.1,5.1c-1.1,1.8-1.6,2.4-2.3,2.4c-0.6,0-1.2-0.6-2.3-2.4c-1.2-2-3.1-4.9-6.7-5.1c1.7-29.4,26.1-52.7,55.9-52.7
				h0.3C402.4-140.3,426.6-117,428.3-87.7z"/>
			<path fill="#F15644" d="M352.8-84.5c0,0.9,0.1,1.8,0.2,2.7c-0.4,0.4-0.9,1-1.5,2.1c-1.3,2.1-3.2,5.1-7.1,5.1
				c-3.9,0-5.9-3.1-7.1-5.1c-1.1-1.8-1.6-2.4-2.3-2.4c-0.6,0-1.2,0.6-2.3,2.4c-1.3,2.1-3.2,5.1-7.1,5.1c-3.9,0-5.9-3.1-7.1-5.1
				c-0.9-1.5-1.4-2.2-2-2.4c0-0.8-0.1-1.6-0.1-2.4c0-1.1,0-2.2,0.1-3.3c3.7,0.2,5.5,3.1,6.7,5.1c1.1,1.8,1.6,2.4,2.3,2.4
				c0.6,0,1.2-0.6,2.3-2.4c1.3-2.1,3.2-5.1,7.1-5.1c3.9,0,5.9,3.1,7.1,5.1c1.1,1.8,1.6,2.4,2.3,2.4c0.6,0,1.2-0.6,2.3-2.4
				c1.2-1.9,3-4.8,6.5-5.1C352.9-86.7,352.8-85.6,352.8-84.5z"/>
			<path fill="#F15644" d="M428.4-84.5c0,0.9,0,1.7-0.1,2.6c-0.4,0.3-0.9,1-1.7,2.2c-1.3,2.1-3.2,5.1-7.1,5.1s-5.9-3.1-7.1-5.1
				c-1.1-1.8-1.6-2.4-2.3-2.4c-0.6,0-1.2,0.6-2.3,2.4c-1.3,2.1-3.2,5.1-7.1,5.1c-3.9,0-5.9-3.1-7.1-5.1c-0.8-1.3-1.3-2-1.8-2.3
				c0.1-0.8,0.2-1.7,0.2-2.5c0-1.1-0.1-2.2-0.3-3.3c3.7,0.2,5.5,3.1,6.7,5.1c1.1,1.8,1.6,2.4,2.3,2.4c0.6,0,1.2-0.6,2.3-2.4
				c1.3-2.1,3.2-5.1,7.1-5.1c3.9,0,5.9,3.1,7.1,5.1c1.1,1.8,1.6,2.4,2.3,2.4c0.6,0,1.2-0.6,2.3-2.4c1.2-1.9,3-4.8,6.5-5.1
				C428.4-86.7,428.4-85.6,428.4-84.5z"/>
			<path fill="#A30B1A" d="M375.5-129.1c0,1.7-1.4,3.1-3.1,3.1c-1.7,0-3.1-1.4-3.1-3.1c0-1.7,1.4-3.1,3.1-3.1
				C374.1-132.1,375.5-130.8,375.5-129.1z"/>
			<path fill="#A30B1A" d="M359.2-109.4c0,1.7-1.4,3.1-3.1,3.1c-1.7,0-3.1-1.4-3.1-3.1s1.4-3.1,3.1-3.1
				C357.9-112.5,359.2-111.1,359.2-109.4z"/>
			<path fill="#FFFFFF" d="M352.8-124.5c0,1.2-0.9,2.1-2.1,2.1c-1.2,0-2.1-0.9-2.1-2.1c0-1.2,0.9-2.1,2.1-2.1
				C351.9-126.6,352.8-125.7,352.8-124.5z"/>
			<path fill="#FFFFFF" d="M396.9-124.5c0,1.2-0.9,2.1-2.1,2.1c-1.2,0-2.1-0.9-2.1-2.1c0-1.2,0.9-2.1,2.1-2.1
				C396-126.6,396.9-125.7,396.9-124.5z"/>
			<path fill="#FFFFFF" d="M337.8-109.4c0,1.7-1.4,3.1-3.1,3.1c-1.7,0-3.1-1.4-3.1-3.1s1.4-3.1,3.1-3.1
				C336.4-112.5,337.8-111.1,337.8-109.4z"/>
			<path fill="#FFFFFF" d="M346.3-86.4c0,1-0.8,1.8-1.8,1.8s-1.8-0.8-1.8-1.8c0-1,0.8-1.8,1.8-1.8S346.3-87.3,346.3-86.4z"/>
			<path fill="#A30B1A" d="M327.8-86.4c0,1.7-1.4,3.1-3.1,3.1c-1.7,0-3.1-1.4-3.1-3.1c0-1.7,1.4-3.1,3.1-3.1
				C326.5-89.4,327.8-88.1,327.8-86.4z"/>
			<path fill="#FFFFFF" d="M385.6-109.4c0,1.7,1.4,3.1,3.1,3.1c1.7,0,3.1-1.4,3.1-3.1s-1.4-3.1-3.1-3.1
				C387-112.5,385.6-111.1,385.6-109.4z"/>
			<path fill="#A30B1A" d="M407-109.4c0,1.7,1.4,3.1,3.1,3.1c1.7,0,3.1-1.4,3.1-3.1s-1.4-3.1-3.1-3.1
				C408.4-112.5,407-111.1,407-109.4z"/>
			<path fill="#FFFFFF" d="M398.3-86.4c0,1.1,0.9,2,2,2c1.1,0,2-0.9,2-2c0-1.1-0.9-2-2-2C399.2-88.3,398.3-87.5,398.3-86.4z"/>
			<path fill="#FFFFFF" d="M410.6-86.4c0,1.7,1.4,3.1,3.1,3.1c1.7,0,3.1-1.4,3.1-3.1c0-1.7-1.4-3.1-3.1-3.1
				C411.9-89.4,410.6-88.1,410.6-86.4z"/>
			<path fill="#FAA839" d="M372.4-62.4c-12.1,0-21.9-9.8-21.9-21.9c0-12.1,9.8-21.9,21.9-21.9c12.1,0,21.9,9.8,21.9,21.9
				C394.4-72.3,384.5-62.4,372.4-62.4z"/>
			<path fill="#FFFFFF" d="M391.9-84.4c0,10.8-8.7,19.5-19.5,19.5c-10.8,0-19.5-8.7-19.5-19.5c0-10.8,8.7-19.5,19.5-19.5
				C383.2-103.8,391.9-95.1,391.9-84.4z"/>
		</g>
		<g>
			<path fill="#FAA839" d="M155.2-220.1c0,35.6-28.8,64.4-64.4,64.4c-35.6,0-64.4-28.8-64.4-64.4c0-35.6,28.8-64.4,64.4-64.4
				C126.3-284.5,155.2-255.6,155.2-220.1z"/>
			<path fill="#FECB88" d="M90.8-161.7c-32.2,0-58.4-26.2-58.4-58.4c0-32.2,26.2-58.4,58.4-58.4s58.4,26.2,58.4,58.4
				C149.2-187.9,123-161.7,90.8-161.7z"/>
			<path fill="#FECB88" d="M90.8-165.3c-30.2,0-54.8-24.6-54.8-54.8c0-30.2,24.6-54.8,54.8-54.8c30.2,0,54.8,24.6,54.8,54.8
				C145.6-189.9,121-165.3,90.8-165.3z"/>
			<path fill="#39B54A" d="M65.3-229.2c0,2.2-1.8,3.9-3.9,3.9c-2.2,0-3.9-1.8-3.9-3.9c0-2.2,1.8-3.9,3.9-3.9
				C63.5-233.2,65.3-231.4,65.3-229.2z"/>
			<path fill="#39B54A" d="M113.5-176.3c0,2.2-1.8,3.9-3.9,3.9c-2.2,0-3.9-1.8-3.9-3.9c0-2.2,1.8-3.9,3.9-3.9
				C111.8-180.3,113.5-178.5,113.5-176.3z"/>
			<path fill="#A30B1A" d="M121.8-193.3c0,2.2-1.8,3.9-3.9,3.9c-2.2,0-3.9-1.8-3.9-3.9c0-2.2,1.8-3.9,3.9-3.9
				C120.1-197.2,121.8-195.4,121.8-193.3z M119.6-193.3c0-0.9-0.8-1.7-1.7-1.7c-0.9,0-1.7,0.8-1.7,1.7c0,0.9,0.8,1.7,1.7,1.7
				C118.8-191.6,119.6-192.3,119.6-193.3z"/>
			<path fill="#A30B1A" d="M93.8-244.2c0,2.2-1.8,3.9-3.9,3.9c-2.2,0-3.9-1.8-3.9-3.9c0-2.2,1.8-3.9,3.9-3.9
				C92-248.1,93.8-246.4,93.8-244.2z M91.5-244.2c0-0.9-0.8-1.7-1.7-1.7c-0.9,0-1.7,0.8-1.7,1.7c0,0.9,0.8,1.7,1.7,1.7
				C90.8-242.5,91.5-243.3,91.5-244.2z"/>
			<path fill="#A30B1A" d="M61-198.2c0,2.2-1.8,3.9-3.9,3.9c-2.2,0-3.9-1.8-3.9-3.9c0-2.2,1.8-3.9,3.9-3.9
				C59.2-202.2,61-200.4,61-198.2z M58.7-198.2c0-0.9-0.8-1.7-1.7-1.7c-0.9,0-1.7,0.8-1.7,1.7c0,0.9,0.8,1.7,1.7,1.7
				C58-196.5,58.7-197.3,58.7-198.2z"/>
			<path fill="#A30B1A" d="M121.8-248.1c0,2.2-1.8,3.9-3.9,3.9c-2.2,0-3.9-1.8-3.9-3.9c0-2.2,1.8-3.9,3.9-3.9
				C120.1-252,121.8-250.2,121.8-248.1z M119.6-248.1c0-0.9-0.8-1.7-1.7-1.7c-0.9,0-1.7,0.8-1.7,1.7c0,0.9,0.8,1.7,1.7,1.7
				C118.8-246.4,119.6-247.1,119.6-248.1z"/>
			<path fill="#39B54A" d="M75.4-206.1c0,2.2-1.8,3.9-3.9,3.9c-2.2,0-3.9-1.8-3.9-3.9c0-2.2,1.8-3.9,3.9-3.9
				C73.6-210,75.4-208.2,75.4-206.1z"/>
			<path fill="#39B54A" d="M118.2-213.1c0,2.2-1.8,3.9-3.9,3.9c-2.2,0-3.9-1.8-3.9-3.9c0-2.2,1.8-3.9,3.9-3.9
				C116.4-217,118.2-215.2,118.2-213.1z"/>
			<path fill="#39B54A" d="M78.2-180.1c0,2.2-1.8,3.9-3.9,3.9c-2.2,0-3.9-1.8-3.9-3.9c0-2.2,1.8-3.9,3.9-3.9
				C76.4-184,78.2-182.2,78.2-180.1z"/>
			<path fill="#39B54A" d="M85.6-266.1c0,2.2-1.8,3.9-3.9,3.9c-2.2,0-3.9-1.8-3.9-3.9c0-2.2,1.8-3.9,3.9-3.9
				C83.9-270.1,85.6-268.3,85.6-266.1z"/>
			<path fill="#39B54A" d="M108.5-239c0,2.2-1.8,3.9-3.9,3.9c-2.2,0-3.9-1.8-3.9-3.9c0-2.2,1.8-3.9,3.9-3.9
				C106.8-242.9,108.5-241.1,108.5-239z"/>
			<g>
				<path fill="#A30B1A" d="M104.7-192.6c0,6.5-5.2,11.7-11.7,11.7c-6.5,0-11.7-5.2-11.7-11.7c0-6.5,5.2-11.7,11.7-11.7
					C99.5-204.3,104.7-199,104.7-192.6z"/>
				<path fill="#FFFFFF" d="M93-199.3c0,0.6-0.5,1.2-1.2,1.2c-0.6,0-1.2-0.5-1.2-1.2c0-0.6,0.5-1.2,1.2-1.2
					C92.5-200.5,93-199.9,93-199.3z"/>
				<path fill="#FFFFFF" d="M87.7-191.8c0,0.6-0.5,1.2-1.2,1.2c-0.6,0-1.2-0.5-1.2-1.2c0-0.6,0.5-1.2,1.2-1.2
					C87.2-193,87.7-192.4,87.7-191.8z"/>
				<path fill="#FFFFFF" d="M100.4-194.6c0,0.6-0.5,1.2-1.2,1.2s-1.2-0.5-1.2-1.2c0-0.6,0.5-1.2,1.2-1.2S100.4-195.2,100.4-194.6z"
					/>
				<path fill="#FFFFFF" d="M94.2-192.6c0,0.6-0.5,1.2-1.2,1.2c-0.6,0-1.2-0.5-1.2-1.2c0-0.6,0.5-1.2,1.2-1.2
					C93.7-193.7,94.2-193.2,94.2-192.6z"/>
				<path fill="#FFFFFF" d="M95.4-186.1c0,0.6-0.5,1.2-1.2,1.2s-1.2-0.5-1.2-1.2c0-0.6,0.5-1.2,1.2-1.2S95.4-186.8,95.4-186.1z"/>
			</g>
			<g>
				<path fill="#A30B1A" d="M139.2-228.3c0,6.5-5.2,11.7-11.7,11.7c-6.5,0-11.7-5.2-11.7-11.7c0-6.5,5.2-11.7,11.7-11.7
					C134-240,139.2-234.8,139.2-228.3z"/>
				<path fill="#FFFFFF" d="M127.5-235c0,0.6-0.5,1.2-1.2,1.2c-0.6,0-1.2-0.5-1.2-1.2c0-0.6,0.5-1.2,1.2-1.2
					C127-236.2,127.5-235.7,127.5-235z"/>
				<path fill="#FFFFFF" d="M122.2-227.5c0,0.6-0.5,1.2-1.2,1.2c-0.6,0-1.2-0.5-1.2-1.2c0-0.6,0.5-1.2,1.2-1.2
					C121.7-228.7,122.2-228.2,122.2-227.5z"/>
				<path fill="#FFFFFF" d="M134.9-230.3c0,0.6-0.5,1.2-1.2,1.2c-0.6,0-1.2-0.5-1.2-1.2c0-0.6,0.5-1.2,1.2-1.2
					C134.4-231.5,134.9-231,134.9-230.3z"/>
				<path fill="#FFFFFF" d="M128.7-228.3c0,0.6-0.5,1.2-1.2,1.2c-0.6,0-1.2-0.5-1.2-1.2c0-0.6,0.5-1.2,1.2-1.2
					C128.2-229.5,128.7-229,128.7-228.3z"/>
				<path fill="#FFFFFF" d="M129.9-221.9c0,0.6-0.5,1.2-1.2,1.2c-0.6,0-1.2-0.5-1.2-1.2c0-0.6,0.5-1.2,1.2-1.2
					C129.4-223,129.9-222.5,129.9-221.9z"/>
			</g>
			<g>
				<path fill="#A30B1A" d="M78.5-248.1c0,6.5-5.2,11.7-11.7,11.7c-6.5,0-11.7-5.2-11.7-11.7c0-6.5,5.2-11.7,11.7-11.7
					C73.2-259.8,78.5-254.5,78.5-248.1z"/>
				<path fill="#FFFFFF" d="M66.8-254.8c0,0.6-0.5,1.2-1.2,1.2c-0.6,0-1.2-0.5-1.2-1.2c0-0.6,0.5-1.2,1.2-1.2
					C66.3-256,66.8-255.4,66.8-254.8z"/>
				<path fill="#FFFFFF" d="M61.5-247.3c0,0.6-0.5,1.2-1.2,1.2c-0.6,0-1.2-0.5-1.2-1.2c0-0.6,0.5-1.2,1.2-1.2
					C60.9-248.5,61.5-247.9,61.5-247.3z"/>
				<path fill="#FFFFFF" d="M74.2-250.1c0,0.6-0.5,1.2-1.2,1.2s-1.2-0.5-1.2-1.2c0-0.6,0.5-1.2,1.2-1.2S74.2-250.7,74.2-250.1z"/>
				<path fill="#FFFFFF" d="M68-248.1c0,0.6-0.5,1.2-1.2,1.2c-0.6,0-1.2-0.5-1.2-1.2c0-0.6,0.5-1.2,1.2-1.2
					C67.4-249.2,68-248.7,68-248.1z"/>
				<path fill="#FFFFFF" d="M69.1-241.6c0,0.6-0.5,1.2-1.2,1.2s-1.2-0.5-1.2-1.2c0-0.6,0.5-1.2,1.2-1.2S69.1-242.3,69.1-241.6z"/>
			</g>
			<g>
				<path fill="#F15644" d="M107.8-256.3H86.3c0.7-5.3,5.2-9.4,10.8-9.4C102.5-265.7,107.1-261.6,107.8-256.3z"/>
				<path fill="#F2695B" d="M106.4-256.3H87.7c0.7-4.5,4.6-8,9.3-8C101.8-264.3,105.7-260.8,106.4-256.3z"/>
			</g>
			<g>
				<path fill="#F15644" d="M53.6-230v21.5c-5.3-0.7-9.4-5.2-9.4-10.8C44.2-224.8,48.3-229.3,53.6-230z"/>
				<path fill="#F2695B" d="M53.6-228.6v18.7c-4.5-0.7-8-4.6-8-9.3C45.6-224,49.1-227.9,53.6-228.6z"/>
			</g>
			<g>
				<path fill="#F15644" d="M125.5-196.7l9.6-19.3c4.5,3,6.1,8.9,3.7,13.8C136.3-197.2,130.6-195,125.5-196.7z"/>
				<path fill="#F2695B" d="M126.2-198l8.3-16.7c3.7,2.6,5.1,7.7,3,11.9C135.4-198.6,130.5-196.6,126.2-198z"/>
			</g>
			<g>
				<path fill="#F15644" d="M80-224h21.5c-0.7,5.3-5.2,9.4-10.8,9.4C85.3-214.6,80.7-218.7,80-224z"/>
				<path fill="#F2695B" d="M81.5-224h18.7c-0.7,4.5-4.6,8-9.3,8C86.1-216,82.1-219.5,81.5-224z"/>
			</g>
		</g>
		<g>
			<path fill="#FAA839" d="M218.8-66.4c0,3-0.7,5.9-1.9,8.4c-3.2,6.6-9.9,11.2-17.7,11.2h-85.4c-7.8,0-14.5-4.6-17.7-11.2
				c-1.2-2.6-1.9-5.4-1.9-8.4c0-3,0.7-5.9,1.9-8.4c1-2,2.3-3.8,3.8-5.4c3.5-3.6,8.4-5.7,13.9-5.7h85.4c7.8,0,14.5,4.6,17.7,11.2
				C218.1-72.3,218.8-69.4,218.8-66.4z"/>
			<path fill="#FECB88" d="M218.8-66.4c0,3-0.7,5.9-1.9,8.4H96.1c-1.2-2.6-1.9-5.4-1.9-8.4c0-3,0.7-5.9,1.9-8.4h120.8
				C218.1-72.3,218.8-69.4,218.8-66.4z"/>
			<path fill="#A30B1A" d="M213.4-66.4c0,4.7-4,8.4-8.9,8.4h-96c-4.9,0-8.9-3.8-8.9-8.4l0,0c0-4.7,4-8.4,8.9-8.4h96
				C209.4-74.8,213.4-71,213.4-66.4L213.4-66.4z"/>
			<path fill="#FFD74F" d="M181-62.2c-5.1,0-7.3-4.9-9.1-8.8c-1.1-2.3-2.4-5.2-3.6-5.2c-1.3,0-2.6,2.9-3.6,5.2
				c-1.8,3.9-4,8.8-9.1,8.8c-5.1,0-7.3-4.9-9.1-8.8c-1.1-2.3-2.4-5.2-3.6-5.2c-1.3,0-2.6,2.9-3.6,5.2c-1.8,3.9-4,8.8-9.1,8.8
				c-5.1,0-7.3-4.9-9.1-8.8c-1.1-2.3-2.4-5.2-3.6-5.2v-6c5.1,0,7.3,4.9,9.1,8.8c1.1,2.3,2.4,5.2,3.6,5.2c1.3,0,2.6-2.9,3.6-5.2
				c1.8-3.9,4-8.8,9.1-8.8c5.1,0,7.3,4.9,9.1,8.8c1.1,2.3,2.4,5.2,3.6,5.2c1.3,0,2.6-2.9,3.6-5.2c1.8-3.9,4-8.8,9.1-8.8
				c5.1,0,7.3,4.9,9.1,8.8c1.1,2.3,2.4,5.2,3.6,5.2s2.6-2.9,3.6-5.2c1.8-3.9,4-8.8,9.1-8.8v6c-1.3,0-2.6,2.9-3.6,5.2
				C188.3-67.1,186.1-62.2,181-62.2z"/>
		</g>
		<path fill="#F15644" d="M286.3-133.9c0,3.3-2.7,6-6,6c-3.3,0-6-2.7-6-6c0-3.3,2.7-6,6-6C283.6-139.9,286.3-137.2,286.3-133.9z"/>
		<path fill="#F15644" d="M410.8-223.9c0,3.3-2.7,6-6,6s-6-2.7-6-6c0-3.3,2.7-6,6-6S410.8-227.2,410.8-223.9z"/>
		<path fill="#F15644" d="M64.9-23.3c0,3.3-2.7,6-6,6s-6-2.7-6-6s2.7-6,6-6S64.9-26.6,64.9-23.3z"/>
		<path fill="#F15644" d="M72.2-134c0,3.3-2.7,6-6,6c-3.3,0-6-2.7-6-6s2.7-6,6-6C69.5-140,72.2-137.3,72.2-134z"/>
		<path fill="#F15644" d="M301.3-28.9c0,3.3-2.7,6-6,6c-3.3,0-6-2.7-6-6s2.7-6,6-6C298.6-34.9,301.3-32.2,301.3-28.9z"/>
		<path fill="#F15644" d="M184.9-260.7c0,3.3-2.7,6-6,6c-3.3,0-6-2.7-6-6c0-3.3,2.7-6,6-6C182.2-266.7,184.9-264,184.9-260.7z"/>
		<path fill="#F15644" d="M181-123.1c0,1.5-1.2,2.7-2.7,2.7s-2.7-1.2-2.7-2.7c0-1.5,1.2-2.7,2.7-2.7S181-124.5,181-123.1z"/>
		<path fill="#F15644" d="M22.9-71.3c0,1.5-1.2,2.7-2.7,2.7s-2.7-1.2-2.7-2.7c0-1.5,1.2-2.7,2.7-2.7S22.9-72.8,22.9-71.3z"/>
		<path fill="#F15644" d="M202.2-16c0,1.5-1.2,2.7-2.7,2.7s-2.7-1.2-2.7-2.7s1.2-2.7,2.7-2.7S202.2-17.5,202.2-16z"/>
		<path fill="#F15644" d="M406-153.7c0,1.5-1.2,2.7-2.7,2.7c-1.5,0-2.7-1.2-2.7-2.7s1.2-2.7,2.7-2.7
			C404.8-156.4,406-155.2,406-153.7z"/>
		<path fill="#F15644" d="M395.8-15.4c0,1.5-1.2,2.7-2.7,2.7c-1.5,0-2.7-1.2-2.7-2.7s1.2-2.7,2.7-2.7
			C394.6-18.1,395.8-16.9,395.8-15.4z"/>
		<path fill="#F15644" d="M356.2-272c0,1.5-1.2,2.7-2.7,2.7c-1.5,0-2.7-1.2-2.7-2.7s1.2-2.7,2.7-2.7
			C355-274.7,356.2-273.5,356.2-272z"/>
	</g>
</pattern>
<g id="Background">
</g>
<g id="Object">
	<rect x="-14.3" y="-19.2" fill="url(#New_Pattern_7)" width="1431.1" height="1009.6"/>
</g>
<g id="Designed_by_Vecteezy">
	<g>
		<g>
			<g>
				<path fill="#414042" d="M732.3,937.7c0.8,0,1.6,0.7,1.6,0.7L720,968.2c-1.5,0-5.2,0.2-6.1,0.2c-0.8,0-1.6-0.7-1.6-0.7l-4.8-29.8
					c2.9,0,6.5-0.2,7.6-0.2c0.8,0,1.6,0.7,1.6,0.7l1.5,14.6c0.1,1.3,0.1,3,0.1,4.8c0.5-2,1-3.9,1.5-5.2l5.8-14.7
					C728.1,937.9,731.3,937.7,732.3,937.7L732.3,937.7z"/>
			</g>
			<g>
				<path fill="#414042" d="M746.6,952.4c0,3.2-1.8,5.4-6.3,6.3l-4.7,1c0.4,2,1.6,3,3.8,3c2.6,0,4.4-2,4.4-2s1.3,0.7,1.3,2.3
					c0,2.7-4.1,5.6-9,5.6c-4.9,0-8.1-3.1-8.1-8.3c0-6,4.3-14.2,11.9-14.2C744,946.1,746.6,948.6,746.6,952.4L746.6,952.4z
					 M738.6,955.5c1-0.3,1.3-1.2,1.3-2.1c0-0.9-0.3-2.2-1.3-2.2c-1.9,0-2.7,3-3,5.3L738.6,955.5z"/>
			</g>
			<g>
				<path fill="#414042" d="M759.4,946.1c3.8,0,6.7,2,6.7,4.7c0,3.3-4,4.5-4,4.5s-1.2-3.6-3.9-3.6c-1.8,0-2.9,1.8-2.9,5.8
					c0,3.6,1,5.2,3.3,5.2c2.4,0,3.9-1.6,3.9-1.6s1.3,0.7,1.3,2.2c0,2.6-4,5.3-8.6,5.3c-4.9,0-8-3.1-8-8.2
					C747.3,954.3,751.7,946.1,759.4,946.1L759.4,946.1z"/>
			</g>
			<g>
				<path fill="#414042" d="M777.8,941.3c0.9,0,1.5,0.7,1.5,0.7l-0.7,4.5h4.8l-1.1,3.5c-0.4,1.1-0.9,1.7-2,1.7h-2.5l-1.4,8.9
					c-0.2,1.4,0.1,2.1,1.1,2.1c0.9,0,1.8-0.5,1.8-0.5s1.3,0.7,1.3,2.2c0,2.2-3.1,4.3-7,4.3c-4.1,0-5.8-2.5-5.1-7l1.6-9.9h-2.6
					l1.1-3.6c0.3-0.9,1.1-1.6,2-1.6h1.3l1.5-4.2C775.2,941.9,777,941.3,777.8,941.3L777.8,941.3z"/>
			</g>
			<g>
				<path fill="#414042" d="M801.2,952.4c0,3.2-1.8,5.4-6.3,6.3l-4.7,1c0.4,2,1.6,3,3.8,3c2.6,0,4.4-2,4.4-2s1.3,0.7,1.3,2.3
					c0,2.7-4.1,5.6-9,5.6c-4.9,0-8.1-3.1-8.1-8.3c0-6,4.3-14.2,11.9-14.2C798.6,946.1,801.2,948.6,801.2,952.4L801.2,952.4z
					 M793.2,955.5c1-0.3,1.3-1.2,1.3-2.1c0-0.9-0.3-2.2-1.3-2.2c-1.9,0-2.7,3-3,5.3L793.2,955.5z"/>
			</g>
			<g>
				<path fill="#414042" d="M820.5,952.4c0,3.2-1.8,5.4-6.3,6.3l-4.7,1c0.4,2,1.6,3,3.8,3c2.6,0,4.4-2,4.4-2s1.3,0.7,1.3,2.3
					c0,2.7-4.1,5.6-9,5.6c-4.9,0-8.1-3.1-8.1-8.3c0-6,4.3-14.2,11.9-14.2C817.9,946.1,820.5,948.6,820.5,952.4L820.5,952.4z
					 M812.5,955.5c1-0.3,1.3-1.2,1.3-2.1c0-0.9-0.3-2.2-1.3-2.2c-1.9,0-2.7,3-3,5.3L812.5,955.5z"/>
			</g>
			<g>
				<path fill="#414042" d="M836.3,960.5c0,0,1.6,1.5,1.6,4c0,3.3-2.8,4.2-5.2,4.2c-3.1,0-5.3-1.5-7.6-2.3c-0.6,0.7-1.3,1.5-1.9,2.3
					c0,0-3.5-0.1-3.5-2.4c0-2.9,4.8-7.8,9.9-13.4c-0.6-0.1-1.2-0.2-1.7-0.2c-2.9,0-4.1,1.5-4.1,1.5s-1.5-1.7-1.4-4
					c0.2-3.1,3.1-4,5.5-4c2.5,0,4.3,1,6.1,1.7l1.5-1.7c0,0,3.5,0.1,3.5,2.5c0,2.8-4.6,7.6-9.6,13c1.1,0.3,2,0.5,3,0.5
					C835.1,962.2,836.3,960.5,836.3,960.5L836.3,960.5z"/>
			</g>
			<g>
				<path fill="#414042" d="M858.7,966.7c-1.2,7.6-6.4,11.4-13,11.4c-4.2,0-7.3-2.2-7.3-4.8c0-1.7,1.4-2.5,1.4-2.5s1.4,1.3,4.2,1.3
					c2.6,0,6.2-1.1,6.8-5.1l0.5-3.1c-1.8,2.6-4.1,4.6-7.1,4.6c-3.3,0-4.8-2.7-3.9-8.3l0.9-6c0.6-3.7,0.7-6.7,0.7-6.7
					c2.4-0.4,5.5-1.5,6.6-1.5c0.8,0,1.6,0.7,1.6,0.7l-1.2,7.5l-1.1,6.9c-0.1,0.6,0,1,0.6,1c2.8,0,4.3-7.9,4.3-7.9
					c0.6-3.7,0.7-6.7,0.7-6.7c2.4-0.4,5.5-1.5,6.6-1.5c0.9,0,1.6,0.7,1.6,0.7l-1.2,7.5L858.7,966.7z"/>
			</g>
		</g>
		<g>
			<path fill="#414042" d="M538.1,947.4h7.4c1.7,0,3,0.1,3.8,0.4c1.2,0.3,2.2,1,3,1.9c0.8,0.9,1.5,2,1.9,3.3
				c0.4,1.3,0.7,2.9,0.7,4.8c0,1.7-0.2,3.1-0.6,4.3c-0.5,1.5-1.2,2.7-2.2,3.6c-0.7,0.7-1.7,1.2-2.9,1.6c-0.9,0.3-2.1,0.4-3.6,0.4
				h-7.7V947.4z M542.2,950.8v13.4h3c1.1,0,2-0.1,2.5-0.2c0.7-0.2,1.2-0.4,1.6-0.8c0.4-0.4,0.8-1,1.1-1.9c0.3-0.9,0.4-2.1,0.4-3.7
				s-0.1-2.8-0.4-3.6c-0.3-0.8-0.7-1.5-1.2-2c-0.5-0.5-1.1-0.8-1.9-0.9c-0.6-0.1-1.7-0.2-3.3-0.2H542.2z"/>
			<path fill="#414042" d="M566.4,962.9l3.9,0.6c-0.5,1.4-1.3,2.5-2.3,3.2s-2.4,1.1-4,1.1c-2.5,0-4.4-0.8-5.6-2.5
				c-1-1.3-1.4-3-1.4-5c0-2.4,0.6-4.3,1.9-5.7c1.3-1.4,2.9-2.1,4.8-2.1c2.2,0,3.9,0.7,5.1,2.2c1.3,1.4,1.9,3.6,1.8,6.6h-9.7
				c0,1.1,0.3,2,0.9,2.7c0.6,0.6,1.3,1,2.2,1c0.6,0,1.1-0.2,1.5-0.5C565.8,964.1,566.2,963.6,566.4,962.9z M566.6,959
				c0-1.1-0.3-2-0.9-2.6c-0.6-0.6-1.2-0.9-2-0.9c-0.8,0-1.5,0.3-2.1,0.9c-0.6,0.6-0.8,1.4-0.8,2.5H566.6z"/>
			<path fill="#414042" d="M571.6,963.4l3.9-0.6c0.2,0.8,0.5,1.3,1,1.7c0.5,0.4,1.2,0.6,2.1,0.6c1,0,1.8-0.2,2.3-0.6
				c0.3-0.3,0.5-0.6,0.5-1c0-0.3-0.1-0.5-0.3-0.7c-0.2-0.2-0.6-0.4-1.3-0.5c-3.1-0.7-5.1-1.3-5.9-1.9c-1.2-0.8-1.7-1.9-1.7-3.3
				c0-1.3,0.5-2.3,1.5-3.2c1-0.9,2.6-1.3,4.7-1.3c2,0,3.5,0.3,4.5,1c1,0.7,1.6,1.6,2,2.9l-3.6,0.7c-0.2-0.6-0.5-1-0.9-1.3
				c-0.4-0.3-1.1-0.5-1.9-0.5c-1,0-1.7,0.1-2.2,0.4c-0.3,0.2-0.4,0.5-0.4,0.8c0,0.3,0.1,0.5,0.4,0.7c0.3,0.3,1.6,0.6,3.6,1.1
				c2.1,0.5,3.5,1,4.3,1.7c0.8,0.7,1.2,1.6,1.2,2.9c0,1.3-0.6,2.5-1.7,3.5c-1.1,1-2.8,1.4-5,1.4c-2,0-3.6-0.4-4.7-1.2
				C572.8,965.8,572,964.7,571.6,963.4z"/>
			<path fill="#414042" d="M588.1,950.9v-3.6h3.9v3.6H588.1z M588.1,967.5v-14.6h3.9v14.6H588.1z"/>
			<path fill="#414042" d="M595,968.5l4.4,0.5c0.1,0.5,0.2,0.9,0.5,1.1c0.4,0.3,0.9,0.4,1.7,0.4c1,0,1.8-0.2,2.3-0.5
				c0.3-0.2,0.6-0.5,0.8-1c0.1-0.3,0.2-0.9,0.2-1.8v-2.1c-1.2,1.6-2.6,2.4-4.4,2.4c-2,0-3.5-0.8-4.7-2.5c-0.9-1.3-1.3-2.9-1.3-4.9
				c0-2.4,0.6-4.3,1.8-5.6c1.2-1.3,2.6-1.9,4.4-1.9c1.8,0,3.3,0.8,4.5,2.4v-2.1h3.6V966c0,1.7-0.1,3-0.4,3.9s-0.7,1.5-1.2,2
				c-0.5,0.5-1.2,0.9-2.1,1.1c-0.9,0.3-1.9,0.4-3.3,0.4c-2.5,0-4.2-0.4-5.3-1.3c-1-0.8-1.6-1.9-1.6-3.2
				C595,968.8,595,968.7,595,968.5z M598.5,959.9c0,1.6,0.3,2.7,0.9,3.4c0.6,0.7,1.3,1.1,2.2,1.1c0.9,0,1.7-0.4,2.4-1.1
				c0.7-0.7,1-1.8,1-3.3c0-1.5-0.3-2.6-0.9-3.4c-0.6-0.7-1.4-1.1-2.4-1.1c-0.9,0-1.7,0.4-2.3,1.1
				C598.8,957.3,598.5,958.4,598.5,959.9z"/>
			<path fill="#414042" d="M625.3,967.5h-3.9v-7.5c0-1.6-0.1-2.6-0.2-3.1c-0.2-0.5-0.4-0.8-0.8-1.1c-0.4-0.3-0.8-0.4-1.3-0.4
				c-0.7,0-1.3,0.2-1.8,0.6c-0.5,0.4-0.9,0.9-1.1,1.5c-0.2,0.6-0.3,1.7-0.3,3.4v6.6H612v-14.6h3.6v2.1c1.3-1.7,2.9-2.5,4.8-2.5
				c0.9,0,1.6,0.2,2.3,0.5c0.7,0.3,1.2,0.7,1.6,1.2c0.4,0.5,0.6,1,0.8,1.6c0.1,0.6,0.2,1.5,0.2,2.6V967.5z"/>
			<path fill="#414042" d="M637.2,962.9l3.9,0.6c-0.5,1.4-1.3,2.5-2.3,3.2s-2.4,1.1-4,1.1c-2.5,0-4.4-0.8-5.6-2.5
				c-1-1.3-1.4-3-1.4-5c0-2.4,0.6-4.3,1.9-5.7c1.3-1.4,2.9-2.1,4.8-2.1c2.2,0,3.9,0.7,5.1,2.2c1.3,1.4,1.9,3.6,1.8,6.6h-9.7
				c0,1.1,0.3,2,0.9,2.7c0.6,0.6,1.3,1,2.2,1c0.6,0,1.1-0.2,1.5-0.5C636.6,964.1,636.9,963.6,637.2,962.9z M637.4,959
				c0-1.1-0.3-2-0.9-2.6c-0.6-0.6-1.2-0.9-2-0.9c-0.8,0-1.5,0.3-2.1,0.9c-0.6,0.6-0.8,1.4-0.8,2.5H637.4z"/>
			<path fill="#414042" d="M657.2,967.5h-3.6v-2.1c-0.6,0.8-1.3,1.5-2.1,1.9c-0.8,0.4-1.6,0.6-2.5,0.6c-1.7,0-3.1-0.7-4.3-2
				c-1.2-1.4-1.8-3.2-1.8-5.7c0-2.5,0.6-4.4,1.7-5.7c1.2-1.3,2.6-1.9,4.4-1.9c1.6,0,3,0.7,4.2,2v-7.3h3.9V967.5z M646.9,959.9
				c0,1.6,0.2,2.7,0.6,3.4c0.6,1,1.5,1.5,2.6,1.5c0.9,0,1.6-0.4,2.3-1.1c0.6-0.8,0.9-1.9,0.9-3.4c0-1.7-0.3-2.9-0.9-3.6
				c-0.6-0.7-1.4-1.1-2.3-1.1c-0.9,0-1.7,0.4-2.3,1.1C647.2,957.4,646.9,958.5,646.9,959.9z"/>
			<path fill="#414042" d="M667.6,967.5v-20.2h3.9v7.3c1.2-1.4,2.6-2,4.2-2c1.8,0,3.3,0.6,4.4,1.9c1.2,1.3,1.7,3.1,1.7,5.6
				c0,2.5-0.6,4.4-1.8,5.8c-1.2,1.3-2.6,2-4.3,2c-0.8,0-1.7-0.2-2.5-0.6c-0.8-0.4-1.5-1-2.1-1.9v2.1H667.6z M671.4,959.9
				c0,1.5,0.2,2.6,0.7,3.4c0.7,1,1.6,1.5,2.7,1.5c0.9,0,1.6-0.4,2.2-1.1c0.6-0.7,0.9-1.9,0.9-3.4c0-1.7-0.3-2.9-0.9-3.6
				c-0.6-0.7-1.4-1.1-2.3-1.1c-0.9,0-1.7,0.4-2.3,1.1C671.7,957.3,671.4,958.4,671.4,959.9z"/>
			<path fill="#414042" d="M682.6,952.9h4.1l3.5,10.4l3.4-10.4h4l-5.2,14.1l-0.9,2.5c-0.3,0.9-0.7,1.5-1,2c-0.3,0.4-0.7,0.8-1.1,1.1
				c-0.4,0.3-0.9,0.5-1.5,0.7c-0.6,0.2-1.2,0.2-2,0.2c-0.7,0-1.5-0.1-2.2-0.2l-0.3-3c0.6,0.1,1.2,0.2,1.6,0.2c0.9,0,1.6-0.3,2-0.8
				c0.4-0.5,0.8-1.2,1-2L682.6,952.9z"/>
		</g>
	</g>
</g>
</svg>
