<svg width="640" height="657" viewBox="0 0 640 657" fill="none" xmlns="http://www.w3.org/2000/svg">
<path d="M55.5719 252.231C55.5719 203.432 173.088 181.356 248.426 230.156C323.765 278.955 445.935 160.071 509.056 181.647C572.177 203.222 628.318 410.539 509.056 410.539C389.795 410.539 197.231 364.354 92.5139 410.539C-12.2035 456.724 55.5719 301.031 55.5719 252.231Z" fill="#C4C4C4" fill-opacity="0.2"/>
<g clip-path="url(#clip0)">
<path d="M185.696 218.12L162.776 228.146L322.162 591.89L345.082 581.863L185.696 218.12Z" fill="#E6E6E6"/>
<path d="M157.453 86.61L192.862 167.419C193.548 168.984 193.583 170.757 192.961 172.348C192.339 173.939 191.11 175.217 189.544 175.902C187.978 176.587 186.204 176.622 184.612 176C183.02 175.378 181.74 174.149 181.055 172.584L140.347 79.6842C133.005 77.8009 125.311 77.7613 117.95 79.569L162.302 180.787C162.987 182.352 163.022 184.125 162.4 185.715C161.778 187.306 160.549 188.584 158.983 189.269C157.418 189.953 155.644 189.989 154.052 189.367C152.461 188.745 151.181 187.517 150.495 185.953L106.143 84.734C99.8204 88.9119 94.6305 94.5877 91.035 101.256L131.742 194.156C132.427 195.721 132.463 197.493 131.84 199.084C131.218 200.674 129.989 201.952 128.423 202.637C126.858 203.322 125.084 203.357 123.493 202.735C121.901 202.113 120.621 200.885 119.935 199.321L84.5258 118.512C79.8648 138.581 82.4088 163.735 93.165 188.283C113.156 233.905 153.927 260.142 184.23 246.886C214.534 233.63 222.893 185.9 202.903 140.278C192.146 115.731 175.373 96.801 157.453 86.61Z" fill="#E6E6E6"/>
<path d="M285.776 189.008L261.105 184.828L194.786 576.301L219.456 580.481L285.776 189.008Z" fill="#E6E6E6"/>
<path d="M268.764 212.255C301.382 217.781 334.567 182.457 342.885 133.357C351.203 84.2574 331.504 39.9745 298.886 34.4487C266.269 28.9229 233.084 64.2467 224.765 113.347C216.447 162.447 236.146 206.729 268.764 212.255Z" fill="#E6E6E6"/>
<path d="M271.433 196.5C298.27 201.047 325.574 171.983 332.418 131.584C339.262 91.1857 323.054 54.7505 296.217 50.2039C269.38 45.6574 242.076 74.7213 235.232 115.12C228.388 155.519 244.596 191.954 271.433 196.5Z" fill="#CCCCCC"/>
<path d="M272.123 610.065C422.412 635.526 545.429 649.18 546.889 640.562C548.349 631.945 427.699 604.319 277.41 578.859C127.12 553.398 4.10341 539.744 2.64353 548.361C1.18366 556.979 121.834 584.604 272.123 610.065Z" fill="#E6E6E6"/>
<path d="M435.737 621.496C336.868 585.85 232.422 568.156 127.33 569.249C125.66 569.268 124.006 568.92 122.486 568.231C120.965 567.541 119.614 566.527 118.528 565.259C117.443 563.991 116.649 562.5 116.202 560.892C115.756 559.284 115.668 557.597 115.945 555.952L139.6 416.321L474.521 473.06L450.866 612.691C450.585 614.336 449.947 615.899 448.996 617.271C448.045 618.642 446.804 619.788 445.361 620.628C443.918 621.467 442.309 621.98 440.646 622.13C438.983 622.28 437.307 622.064 435.737 621.496Z" fill="#3BB9E0"/>
<path d="M461.335 364.769C453.603 363.452 445.705 363.435 437.968 364.719C431.221 339.804 417.504 317.327 398.425 299.926C379.346 282.525 355.698 270.923 330.256 266.48C304.814 262.038 278.633 264.94 254.786 274.845C230.939 284.751 210.416 301.249 195.625 322.404C185.406 317.579 174.178 315.279 162.885 315.697C151.592 316.115 140.566 319.239 130.735 324.807C120.904 330.374 112.556 338.221 106.395 347.687C100.234 357.153 96.4396 367.96 95.332 379.199C94.2243 390.438 95.8356 401.779 100.03 412.267C104.225 422.754 110.88 432.081 119.434 439.462C127.989 446.843 138.193 452.062 149.187 454.679C160.181 457.296 171.642 457.234 182.606 454.499C191.709 475.259 205.871 493.41 223.8 507.295C241.728 521.179 262.85 530.354 285.238 533.981C307.625 537.609 330.564 535.573 351.959 528.06C373.354 520.547 392.523 507.796 407.716 490.972C416.288 497.289 426.18 501.583 436.65 503.534C447.12 505.484 457.895 505.04 468.168 502.234C478.44 499.428 487.942 494.333 495.962 487.331C503.981 480.33 510.309 471.604 514.471 461.808C518.633 452.012 520.521 441.401 519.992 430.771C519.464 420.141 516.533 409.769 511.42 400.431C506.308 391.094 499.145 383.035 490.471 376.858C481.796 370.682 471.835 366.549 461.335 364.769Z" fill="#3BB9E0"/>
<path d="M173.854 377.549L172.359 377.296C175.678 357.394 183.413 338.488 194.996 321.965L196.239 322.834C184.785 339.173 177.136 357.869 173.854 377.549Z" fill="#3F3D56"/>
<path d="M441.491 422.89L439.996 422.636C443.298 403.426 442.359 383.726 437.244 364.914L438.708 364.518C443.881 383.541 444.831 403.463 441.491 422.89Z" fill="#3F3D56"/>
<path d="M128.773 481.326L128.658 479.814C129.098 479.781 173.357 476.551 236.506 481.925C294.79 486.886 381.56 500.401 463.941 536.615L463.331 538.003C381.152 501.878 294.571 488.39 236.409 483.439C173.374 478.071 129.212 481.293 128.773 481.326Z" fill="#3F3D56"/>
<path d="M125.356 501.497L125.241 499.986C125.681 499.953 169.94 496.722 233.088 502.097C291.373 507.058 378.143 520.573 460.524 556.787L459.914 558.174C377.734 522.049 291.154 508.563 232.992 503.61C169.957 498.242 125.795 501.464 125.356 501.497Z" fill="#3F3D56"/>
<path d="M121.939 521.668L121.824 520.157C122.264 520.124 166.523 516.893 229.671 522.268C287.956 527.229 374.726 540.744 457.107 576.958L456.496 578.345C374.317 542.221 287.737 528.734 229.575 523.781C166.539 518.414 122.377 521.635 121.939 521.668Z" fill="#3F3D56"/>
<path d="M415.653 458.596L398.581 449.372L430.998 363.618L419.226 360.506C406.054 367.47 389.936 368.344 370.473 362.302L394.197 415.855L375.998 424.569L334.67 353.622C332.807 350.424 332.125 346.674 332.743 343.027C333.316 339.645 334.974 336.541 337.466 334.184C339.959 331.826 343.152 330.343 346.562 329.958L404.642 323.399L468.265 341.626C475.539 358.224 474.162 368.678 458.73 369.146L415.653 458.596Z" fill="#2F2E41"/>
<path d="M391.267 489.961C389.414 489.525 387.691 488.659 386.236 487.433C384.781 486.206 383.636 484.655 382.894 482.903C382.152 481.152 381.833 479.251 381.965 477.353C382.096 475.456 382.673 473.617 383.649 471.985L396.575 450.369C402.616 442.484 408.71 444.632 414.84 453.463L416.664 464.697C416.814 465.622 416.776 466.568 416.551 467.477C416.326 468.387 415.92 469.242 415.356 469.99L403.705 485.462C402.293 487.338 400.365 488.762 398.156 489.561C395.947 490.359 393.553 490.498 391.267 489.961Z" fill="#2F2E41"/>
<path d="M372.99 455.691C371.137 455.255 369.414 454.389 367.959 453.163C366.504 451.937 365.359 450.385 364.617 448.634C363.875 446.883 363.557 444.981 363.688 443.084C363.819 441.187 364.396 439.347 365.372 437.715L378.298 416.099C384.339 408.215 390.434 410.362 396.563 419.194L398.387 430.427C398.537 431.352 398.499 432.298 398.274 433.208C398.049 434.117 397.643 434.972 397.079 435.721L385.428 451.193C384.016 453.068 382.088 454.492 379.879 455.291C377.67 456.09 375.277 456.229 372.99 455.691Z" fill="#2F2E41"/>
<path d="M421.53 239.11C432.735 241.009 443.356 233.47 445.253 222.273C447.15 211.076 439.604 200.46 428.4 198.562C417.195 196.663 406.574 204.202 404.677 215.399C402.78 226.596 410.325 237.212 421.53 239.11Z" fill="#FFB9B9"/>
<path d="M451.638 252.777L421.289 262.533L419.908 235.484L441.133 226.789L451.638 252.777Z" fill="#FFB9B9"/>
<path d="M470.55 345.737C444.137 332.62 419.618 323.988 400.222 327.492C409.523 310.847 402.476 281.83 394.374 252.014C401.112 245.742 410.381 244.44 420.549 244.903C430.107 254.657 438.565 250.869 446.417 239.602C459.102 241.231 470.489 247.747 481.045 257.386C466.759 285.466 463.481 314.944 470.55 345.737Z" fill="#C4C4C4"/>
<path d="M399.123 331.775C394.289 333.619 389.494 337.293 384.72 341.997C378.865 336.895 373.887 331.371 370.275 325.192C367.755 320.818 366.367 315.885 366.237 310.84C366.107 305.795 367.24 300.797 369.532 296.301L388.724 258.189C390.318 255.023 392.817 252.402 395.904 250.659L397.763 249.609L408.853 283.144L387.398 310.794C388.527 316.684 393.535 324.114 399.123 331.775Z" fill="#CCCCCC"/>
<path d="M399.541 363.382C397.949 363.805 396.28 363.852 394.667 363.519C393.053 363.187 391.539 362.483 390.244 361.465C388.95 360.446 387.91 359.141 387.207 357.651C386.504 356.162 386.158 354.53 386.195 352.884L386.624 333.993L396.902 330.521L406.207 348.185C406.95 349.596 407.366 351.156 407.423 352.749C407.48 354.343 407.177 355.929 406.536 357.389C405.896 358.849 404.935 360.146 403.724 361.184C402.512 362.221 401.083 362.973 399.541 363.382Z" fill="#FFB9B9"/>
<path d="M445.584 221.417L442.103 220.933L434.798 205.702C422.271 204.888 411.276 208.525 401.351 215.267L401.462 209.353C401.569 203.713 403.833 198.329 407.791 194.308C411.748 190.287 417.097 187.935 422.738 187.735L422.738 187.735C425.701 187.63 428.655 188.123 431.423 189.184C434.191 190.245 436.717 191.853 438.85 193.912C440.983 195.97 442.679 198.437 443.837 201.164C444.995 203.892 445.591 206.825 445.59 209.788L445.584 221.417Z" fill="#865A61"/>
<path d="M389.987 318.738L390.165 318.763L390.779 313.859C390.825 313.487 390.945 313.128 391.13 312.803C391.315 312.478 391.562 312.194 391.857 311.966C392.153 311.739 392.49 311.573 392.851 311.478C393.211 311.382 393.587 311.359 393.958 311.411L404.296 312.836C404.666 312.888 405.024 313.012 405.349 313.201C405.674 313.391 405.959 313.643 406.188 313.943C406.418 314.243 406.587 314.584 406.685 314.948C406.784 315.312 406.811 315.691 406.764 316.064L403.396 342.965C403.35 343.337 403.231 343.696 403.046 344.021C402.861 344.346 402.613 344.63 402.318 344.857C402.023 345.085 401.685 345.251 401.325 345.346C400.964 345.442 400.588 345.464 400.217 345.413L389.88 343.988C389.509 343.937 389.151 343.813 388.826 343.622C388.502 343.433 388.216 343.181 387.987 342.881C387.758 342.582 387.589 342.24 387.49 341.876C387.391 341.512 387.364 341.133 387.411 340.76L389.728 322.253L389.55 322.229L389.987 318.738Z" fill="#65646C"/>
<path d="M400.23 316.786L398.133 316.497C397.084 316.352 396.13 317.058 396.003 318.074L395.768 319.952C395.641 320.968 396.389 321.908 397.438 322.053L399.535 322.342C400.584 322.487 401.538 321.781 401.665 320.765L401.9 318.887C402.027 317.871 401.28 316.931 400.23 316.786Z" fill="#524B4B"/>
<path d="M398.077 319.398C398.181 319.727 398.538 319.918 398.875 319.824C399.211 319.731 399.4 319.388 399.297 319.059C399.193 318.73 398.836 318.54 398.5 318.633C398.163 318.727 397.974 319.07 398.077 319.398Z" fill="#DFD8D8"/>
<path d="M385.069 342.064C384.645 340.473 384.598 338.805 384.931 337.193C385.263 335.58 385.967 334.067 386.986 332.774C388.005 331.48 389.311 330.441 390.801 329.739C392.291 329.037 393.924 328.691 395.571 328.729L414.474 329.161L417.951 339.434L400.277 348.729C398.866 349.472 397.305 349.887 395.71 349.943C394.116 350 392.529 349.697 391.068 349.056C389.607 348.416 388.308 347.455 387.27 346.244C386.231 345.034 385.479 343.605 385.069 342.064Z" fill="#FFB9B9"/>
<path d="M475.125 340.071C457.344 338.46 437.256 340.683 415.883 345.042C416.642 339.049 415.45 332.971 412.484 327.707C431.515 325.998 449.001 323.171 460.658 316.129L462.35 268.744L478.331 255.809L480.439 257.406C482.19 258.729 483.644 260.404 484.706 262.324C485.767 264.245 486.413 266.366 486.602 268.551C488.534 291.511 487.477 313.017 482.388 332.561C482.293 334.48 481.504 336.299 480.168 337.68C478.832 339.061 477.04 339.911 475.125 340.071Z" fill="#CCCCCC"/>
<path d="M75.072 556.106C57.0221 563.543 40.7012 560.774 26.1091 547.798C25.6463 547.393 25.3035 546.868 25.118 546.282C24.9324 545.696 24.9112 545.07 25.0567 544.472L41.3583 479.172L82.5509 486.15L77.1645 553.276C77.1113 553.895 76.8876 554.487 76.5183 554.986C76.149 555.486 75.6484 555.874 75.072 556.106Z" fill="#C4C4C4"/>
<path d="M60.37 490.862C71.8499 492.806 81.7239 491.032 82.4242 486.898C83.1245 482.765 74.3858 477.837 62.9059 475.893C51.426 473.948 41.5519 475.722 40.8517 479.856C40.1514 483.989 48.89 488.917 60.37 490.862Z" fill="#3F3D56"/>
<path d="M78.3583 483.611C66.2371 489.39 55.7517 487.614 46.9022 478.282L48.9309 466.307L80.3871 471.636L78.3583 483.611Z" fill="#3BB9E0"/>
<path d="M63.6446 474.959C72.331 476.43 79.8269 474.942 80.3871 471.636C80.9473 468.329 74.3598 464.455 65.6734 462.983C56.987 461.512 49.4912 463 48.9309 466.306C48.3707 469.613 54.9583 473.487 63.6446 474.959Z" fill="#3BB9E0"/>
<path d="M65.4079 469.098C66.2352 469.238 66.9626 469.016 67.0326 468.603C67.1026 468.19 66.4888 467.741 65.6615 467.601C64.8342 467.461 64.1068 467.682 64.0368 468.096C63.9668 468.509 64.5806 468.958 65.4079 469.098Z" fill="#E6E6E6"/>
<path d="M72.4809 470.296C73.3082 470.436 74.0356 470.215 74.1056 469.801C74.1756 469.388 73.5617 468.939 72.7345 468.799C71.9072 468.659 71.1798 468.881 71.1098 469.294C71.0398 469.707 71.6536 470.156 72.4809 470.296Z" fill="#E6E6E6"/>
<path d="M68.6452 471.464C69.4725 471.604 70.1999 471.383 70.2699 470.969C70.3399 470.556 69.7261 470.107 68.8988 469.967C68.0715 469.827 67.3441 470.048 67.2741 470.462C67.2041 470.875 67.8179 471.324 68.6452 471.464Z" fill="#E6E6E6"/>
<path d="M54.4992 469.068C55.3265 469.208 56.0539 468.986 56.1239 468.573C56.1939 468.16 55.5801 467.711 54.7528 467.571C53.9255 467.431 53.1981 467.652 53.1281 468.065C53.0581 468.479 53.6719 468.927 54.4992 469.068Z" fill="#E6E6E6"/>
<path d="M58.3349 467.9C59.1622 468.04 59.8896 467.818 59.9596 467.405C60.0296 466.992 59.4158 466.543 58.5885 466.403C57.7612 466.263 57.0338 466.484 56.9638 466.897C56.8938 467.311 57.5076 467.759 58.3349 467.9Z" fill="#E6E6E6"/>
<path d="M61.4225 471.149C62.2498 471.289 62.9772 471.068 63.0472 470.654C63.1173 470.241 62.5034 469.792 61.6761 469.652C60.8489 469.512 60.1215 469.734 60.0514 470.147C59.9814 470.56 60.5953 471.009 61.4225 471.149Z" fill="#E6E6E6"/>
<path d="M527.364 632.729C509.314 640.166 492.993 637.397 478.401 624.421C477.938 624.016 477.595 623.491 477.41 622.905C477.224 622.319 477.203 621.693 477.348 621.095L493.65 555.795L534.843 562.773L529.456 629.899C529.403 630.518 529.179 631.11 528.81 631.609C528.441 632.109 527.94 632.497 527.364 632.729Z" fill="#C4C4C4"/>
<path d="M512.662 567.485C524.142 569.429 534.016 567.655 534.716 563.522C535.416 559.388 526.678 554.46 515.198 552.516C503.718 550.571 493.844 552.345 493.143 556.479C492.443 560.612 501.182 565.54 512.662 567.485Z" fill="#3F3D56"/>
<path d="M530.65 560.234C518.529 566.013 508.043 564.237 499.194 554.905L501.223 542.93L532.679 548.259L530.65 560.234Z" fill="#3BB9E0"/>
<path d="M515.936 551.582C524.623 553.053 532.119 551.565 532.679 548.259C533.239 544.952 526.651 541.078 517.965 539.606C509.279 538.135 501.783 539.623 501.223 542.93C500.662 546.236 507.25 550.11 515.936 551.582Z" fill="#3BB9E0"/>
<path d="M517.7 545.721C518.527 545.861 519.255 545.64 519.325 545.226C519.395 544.813 518.781 544.364 517.953 544.224C517.126 544.084 516.399 544.305 516.329 544.719C516.259 545.132 516.873 545.581 517.7 545.721Z" fill="#E6E6E6"/>
<path d="M524.773 546.919C525.6 547.059 526.328 546.838 526.398 546.424C526.468 546.011 525.854 545.562 525.026 545.422C524.199 545.282 523.472 545.504 523.402 545.917C523.332 546.33 523.946 546.779 524.773 546.919Z" fill="#E6E6E6"/>
<path d="M520.937 548.087C521.764 548.227 522.492 548.006 522.562 547.592C522.632 547.179 522.018 546.73 521.191 546.59C520.363 546.45 519.636 546.672 519.566 547.085C519.496 547.498 520.11 547.947 520.937 548.087Z" fill="#E6E6E6"/>
<path d="M506.791 545.691C507.618 545.831 508.346 545.609 508.416 545.196C508.486 544.783 507.872 544.334 507.044 544.194C506.217 544.054 505.49 544.275 505.42 544.688C505.35 545.102 505.964 545.55 506.791 545.691Z" fill="#E6E6E6"/>
<path d="M510.627 544.523C511.454 544.663 512.182 544.441 512.252 544.028C512.322 543.615 511.708 543.166 510.88 543.026C510.053 542.886 509.326 543.107 509.256 543.52C509.186 543.934 509.8 544.382 510.627 544.523Z" fill="#E6E6E6"/>
<path d="M513.714 547.772C514.542 547.912 515.269 547.691 515.339 547.277C515.409 546.864 514.795 546.415 513.968 546.275C513.141 546.135 512.413 546.357 512.343 546.77C512.273 547.183 512.887 547.632 513.714 547.772Z" fill="#E6E6E6"/>
</g>
<defs>
<clipPath id="clip0">
<rect width="552" height="572" fill="white" transform="translate(95.5417) rotate(9.61523)"/>
</clipPath>
</defs>
</svg>
