<svg width="722" height="651" viewBox="0 0 722 651" fill="none" xmlns="http://www.w3.org/2000/svg">
<path d="M25.411 276.352C25.411 218.809 163.843 192.778 252.59 250.321C341.337 307.864 485.251 167.68 559.607 193.121C633.963 218.562 700.095 463.023 559.607 463.023C419.119 463.023 192.283 408.563 68.928 463.023C-54.4271 517.483 25.411 333.895 25.411 276.352Z" fill="#C4C4C4" fill-opacity="0.2"/>
<path d="M182.327 294.072C182.248 294.072 182.198 294.07 182.181 294.069L172.687 294.07V292.427H182.215C182.437 292.435 186.936 292.586 191.083 286.68C197.263 277.879 202.338 256.09 191.42 202.274C176.74 129.91 188.984 65.9799 194.929 41.8529C195.222 40.6592 195.275 39.402 195.082 38.1805C194.89 36.9589 194.458 35.8066 193.822 34.8146C193.185 33.8225 192.36 33.0179 191.412 32.4643C190.465 31.9107 189.421 31.6233 188.362 31.6248H46.5822C45.5043 31.6265 44.4419 31.9265 43.4813 32.5003C42.5206 33.0742 41.6888 33.9059 41.0533 34.9278C38.5347 38.994 35.0783 46.8056 32.9155 60.9302L31.5378 60.6398C33.7476 46.2083 37.3164 38.1669 39.9211 33.9619C40.6866 32.7306 41.6887 31.7285 42.8461 31.037C44.0035 30.3454 45.2835 29.984 46.5822 29.9819H188.362C189.638 29.9805 190.896 30.3272 192.038 30.9946C193.179 31.662 194.173 32.6318 194.94 33.8275C195.708 35.0231 196.228 36.4118 196.459 37.8839C196.691 39.3559 196.627 40.871 196.274 42.3094C190.359 66.3112 178.179 129.909 192.782 201.893C203.853 256.467 198.531 278.727 192.117 287.791C187.886 293.77 183.224 294.072 182.327 294.072Z" fill="#4E4E4E"/>
<path d="M156.781 324.054C156.702 324.054 156.652 324.052 156.635 324.051L17.04 324.052C15.696 324.054 14.3721 323.669 13.1842 322.931C11.9962 322.194 10.9804 321.125 10.2257 319.82C9.47096 318.515 9.00027 317.013 8.85482 315.445C8.70937 313.876 8.8936 312.29 9.39138 310.825C14.4563 295.973 21.2761 260.341 10.0433 188.565C-3.22053 103.81 8.65416 73.1793 14.3752 63.9439C15.1407 62.7125 16.1428 61.7104 17.3002 61.0189C18.4576 60.3274 19.7377 59.9659 21.0364 59.9639H162.816C164.092 59.9624 165.35 60.3091 166.492 60.9765C167.633 61.6439 168.627 62.6137 169.395 63.8094C170.162 65.005 170.682 66.3938 170.913 67.8658C171.145 69.3379 171.081 70.8529 170.728 72.2913C164.813 96.2931 152.633 159.891 167.236 231.875C178.307 286.449 172.985 308.709 166.571 317.773C162.34 323.751 157.678 324.054 156.781 324.054ZM21.0364 61.6067C19.9585 61.6084 18.896 61.9084 17.9354 62.4823C16.9747 63.0561 16.1429 63.8878 15.5074 64.9097C9.89246 73.9738 -1.74591 104.139 11.42 188.268C22.1506 256.835 16.9463 293.093 10.6908 311.436C10.2692 312.646 10.111 313.96 10.2304 315.26C10.3498 316.56 10.743 317.805 11.3747 318.881C12.001 319.969 12.845 320.859 13.8328 321.474C14.8205 322.089 15.9218 322.41 17.04 322.409H156.669C156.89 322.421 161.39 322.568 165.537 316.662C171.717 307.86 176.792 286.072 165.874 232.256C151.194 159.891 163.438 95.9618 169.383 71.8348C169.676 70.6412 169.729 69.3839 169.537 68.1624C169.344 66.9409 168.913 65.7886 168.276 64.7965C167.639 63.8045 166.814 62.9999 165.866 62.4463C164.919 61.8927 163.875 61.6052 162.816 61.6067H21.0364Z" fill="#B1AECD"/>
<path d="M138.701 133.892H27.4189C25.934 133.892 24.5098 133.2 23.4598 131.968C22.4097 130.735 21.8198 129.064 21.8198 127.321C21.8198 125.578 22.4097 123.907 23.4598 122.674C24.5098 121.442 25.934 120.75 27.4189 120.75H138.701C140.186 120.75 141.61 121.442 142.66 122.674C143.71 123.907 144.3 125.578 144.3 127.321C144.3 129.064 143.71 130.735 142.66 131.968C141.61 133.2 140.186 133.892 138.701 133.892Z" fill="#3BB9E0"/>
<path d="M138.701 161.821H27.4189C25.934 161.821 24.5098 161.129 23.4598 159.896C22.4097 158.664 21.8198 156.992 21.8198 155.25C21.8198 153.507 22.4097 151.835 23.4598 150.603C24.5098 149.371 25.934 148.678 27.4189 148.678H138.701C140.186 148.678 141.61 149.371 142.66 150.603C143.71 151.835 144.3 153.507 144.3 155.25C144.3 156.992 143.71 158.664 142.66 159.896C141.61 161.129 140.186 161.821 138.701 161.821Z" fill="#CCCCCC"/>
<path d="M138.701 189.749H27.4189C25.934 189.749 24.5098 189.057 23.4598 187.825C22.4097 186.592 21.8198 184.921 21.8198 183.178C21.8198 181.435 22.4097 179.764 23.4598 178.531C24.5098 177.299 25.934 176.606 27.4189 176.606H138.701C140.186 176.606 141.61 177.299 142.66 178.531C143.71 179.764 144.3 181.435 144.3 183.178C144.3 184.921 143.71 186.592 142.66 187.825C141.61 189.057 140.186 189.749 138.701 189.749Z" fill="#CCCCCC"/>
<path d="M147.1 217.678H35.8176C34.3326 217.678 32.9085 216.986 31.8584 215.753C30.8084 214.521 30.2185 212.849 30.2185 211.107C30.2185 209.364 30.8084 207.692 31.8584 206.46C32.9085 205.227 34.3326 204.535 35.8176 204.535H147.1C148.585 204.535 150.009 205.227 151.059 206.46C152.109 207.692 152.699 209.364 152.699 211.107C152.699 212.849 152.109 214.521 151.059 215.753C150.009 216.986 148.585 217.678 147.1 217.678Z" fill="#CCCCCC"/>
<path d="M147.1 245.606H35.8176C34.3326 245.606 32.9085 244.914 31.8584 243.681C30.8084 242.449 30.2185 240.778 30.2185 239.035C30.2185 237.292 30.8084 235.62 31.8584 234.388C32.9085 233.156 34.3326 232.463 35.8176 232.463H147.1C148.585 232.463 150.009 233.156 151.059 234.388C152.109 235.62 152.699 237.292 152.699 239.035C152.699 240.778 152.109 242.449 151.059 243.681C150.009 244.914 148.585 245.606 147.1 245.606Z" fill="#CCCCCC"/>
<path d="M79.9105 105.964H27.4189C25.934 105.964 24.5098 105.272 23.4598 104.039C22.4097 102.807 21.8198 101.136 21.8198 99.3927C21.8198 97.6499 22.4097 95.9784 23.4598 94.746C24.5098 93.5136 25.934 92.8213 27.4189 92.8213H79.9105C81.3955 92.8213 82.8197 93.5136 83.8697 94.746C84.9197 95.9784 85.5096 97.6499 85.5096 99.3927C85.5096 101.136 84.9197 102.807 83.8697 104.039C82.8197 105.272 81.3955 105.964 79.9105 105.964Z" fill="#3BB9E0"/>
<path d="M35.4609 289.757C36.5906 284.143 41.8984 282.302 46.238 282.508C48.9797 282.725 51.6994 283.23 54.3643 284.017C57.1527 284.749 59.914 285.616 62.6614 286.536C67.6995 288.222 72.6857 290.262 77.8068 291.58C82.0701 292.678 86.7032 293.321 90.9548 291.806C95.0417 290.35 98.509 286.774 99.6209 281.83C100.669 277.171 99.2302 272.078 95.3837 269.949C91.8761 268.007 87.4453 268.994 85.7067 273.385C83.7465 278.336 85.7051 283.734 88.8089 287.317C90.5731 289.261 92.5054 290.983 94.5745 292.456C96.6745 294.136 99.0119 295.365 101.478 296.085C105.527 297.1 110.35 295.605 112.438 291.065C112.902 290.037 113.181 288.908 113.258 287.749C113.382 286.17 111.281 286.18 111.158 287.749C110.804 292.269 106.294 294.387 102.92 293.891C100.643 293.448 98.4691 292.457 96.5338 290.981C94.666 289.703 92.896 288.238 91.2438 286.601C88.3829 283.695 85.7009 278.913 87.6225 274.379C89.1871 270.686 93.2658 270.723 95.7466 273.104C98.7509 275.988 98.2152 281.222 96.2337 284.647C94.0396 288.439 90.0629 290.028 86.3135 290.2C82.2394 290.386 78.1994 289.289 74.3057 287.991C69.4677 286.379 64.6778 284.574 59.8165 283.056C57.0567 282.194 54.2756 281.416 51.466 280.811C48.8093 280.124 46.0806 279.902 43.3686 280.153C38.9874 280.747 34.5151 283.74 33.4362 289.102C33.1259 290.644 35.15 291.302 35.4609 289.757L35.4609 289.757Z" fill="#FEFEFF"/>
<path d="M60.4976 290.415C60.2322 290.155 60.0381 289.809 59.9398 289.421C59.8416 289.032 59.8435 288.618 59.9455 288.23C60.0474 287.843 60.2448 287.5 60.5127 287.244C60.7806 286.988 61.1071 286.831 61.4509 286.792C65.2683 286.36 69.1208 286.823 72.784 288.156L110.099 301.681C110.582 301.856 111.031 302.141 111.42 302.52C111.809 302.898 112.131 303.363 112.367 303.888C112.603 304.413 112.749 304.987 112.796 305.577C112.843 306.168 112.79 306.764 112.641 307.331C112.492 307.898 112.249 308.424 111.926 308.881C111.604 309.338 111.207 309.716 110.76 309.993C110.313 310.27 109.824 310.441 109.321 310.496C108.818 310.551 108.31 310.489 107.827 310.314L70.5122 296.789C66.8467 295.465 63.4424 293.298 60.4976 290.415Z" fill="#7974AB"/>
<path d="M213.456 346.6C212.442 346.101 211.534 345.347 210.796 344.392C210.057 343.436 209.506 342.303 209.181 341.07C208.856 339.838 208.766 338.537 208.916 337.259C209.066 335.981 209.453 334.757 210.049 333.673L203.653 294.416L219.955 292.924L220.939 331.323C222.423 332.62 223.451 334.511 223.827 336.638C224.203 338.765 223.901 340.979 222.979 342.862C222.056 344.745 220.578 346.166 218.823 346.855C217.067 347.544 215.158 347.453 213.456 346.6Z" fill="#FFB8B8"/>
<path d="M202.647 326.339L186.043 235.586C185.362 231.859 185.969 227.966 187.733 224.764C189.497 221.563 192.272 219.314 195.448 218.514C198.623 217.714 201.94 218.427 204.668 220.497C207.396 222.567 209.312 225.824 209.993 229.551L226.597 320.304C226.771 321.262 226.615 322.262 226.161 323.086C225.708 323.909 224.995 324.487 224.179 324.694L206.387 329.177C205.983 329.279 205.565 329.287 205.159 329.2C204.752 329.112 204.363 328.931 204.016 328.668C203.669 328.404 203.369 328.063 203.134 327.663C202.899 327.264 202.734 326.814 202.647 326.339Z" fill="#3BB9E0"/>
<path d="M175.395 469.1H166.815L162.733 430.257L175.397 430.258L175.395 469.1Z" fill="#FFB8B8"/>
<path d="M160.686 466.223H177.234V478.451H150.267C150.267 476.845 150.536 475.255 151.06 473.772C151.583 472.288 152.351 470.94 153.318 469.804C154.286 468.669 155.434 467.768 156.699 467.153C157.963 466.539 159.317 466.223 160.686 466.223Z" fill="#2F2E41"/>
<path d="M204.09 468.279H195.51L191.428 429.436L204.092 429.436L204.09 468.279Z" fill="#FFB8B8"/>
<path d="M189.381 465.401H205.929V477.63H178.962C178.962 476.024 179.232 474.434 179.755 472.95C180.279 471.467 181.046 470.119 182.014 468.983C182.981 467.848 184.13 466.947 185.394 466.332C186.658 465.718 188.013 465.401 189.381 465.401Z" fill="#2F2E41"/>
<path d="M165.114 461.855C164.793 461.545 164.527 461.163 164.333 460.731C164.139 460.299 164.02 459.826 163.983 459.339L154.008 330.557C153.969 330.057 154.018 329.553 154.151 329.076C154.283 328.599 154.497 328.158 154.78 327.781C155.062 327.404 155.407 327.099 155.793 326.883C156.18 326.668 156.599 326.547 157.027 326.528L207.054 324.326C207.487 324.307 207.919 324.393 208.322 324.579C208.726 324.765 209.092 325.046 209.398 325.406C209.705 325.765 209.945 326.195 210.103 326.668C210.262 327.141 210.336 327.648 210.32 328.156L206.321 456.443C206.292 457.341 205.985 458.196 205.458 458.849C204.932 459.501 204.221 459.906 203.459 459.989L193.371 461.066C192.953 461.11 192.531 461.056 192.131 460.907C191.731 460.757 191.36 460.515 191.041 460.195C190.721 459.875 190.46 459.483 190.271 459.043C190.083 458.602 189.972 458.122 189.944 457.63L185.314 376.131C185.311 375.974 185.281 375.82 185.227 375.677C185.172 375.534 185.094 375.405 184.996 375.298C184.899 375.191 184.784 375.108 184.659 375.054C184.534 374.999 184.401 374.975 184.267 374.981H184.263C184.129 374.975 183.996 375 183.871 375.056C183.745 375.111 183.63 375.195 183.533 375.303C183.436 375.411 183.358 375.54 183.304 375.684C183.25 375.828 183.221 375.983 183.219 376.14L179.076 458.189C179.034 459.068 178.726 459.9 178.207 460.534C177.688 461.169 176.992 461.564 176.245 461.648L167.433 462.683C167.019 462.733 166.601 462.685 166.203 462.543C165.805 462.401 165.435 462.167 165.115 461.855H165.114Z" fill="#2F2E41"/>
<path d="M184.359 199.229C193.852 199.229 201.549 190.196 201.549 179.054C201.549 167.912 193.852 158.879 184.359 158.879C174.865 158.879 167.169 167.912 167.169 179.054C167.169 190.196 174.865 199.229 184.359 199.229Z" fill="#FFB8B8"/>
<path d="M151.255 331.429C150.949 331.021 150.724 330.538 150.596 330.015C150.469 329.493 150.442 328.943 150.518 328.407C153.692 305.767 151.903 272.489 149.843 248.559C149.306 242.211 150.203 235.809 152.444 229.997C154.686 224.185 158.192 219.169 162.61 215.454L171.588 206.423C172.184 205.83 172.946 205.513 173.728 205.534L196.03 206.282C196.834 206.308 197.599 206.695 198.167 207.364L201.614 216.321L201.649 216.352C205.756 219.894 209.051 224.577 211.239 229.979C213.427 235.382 214.44 241.337 214.188 247.311L210.905 326.938C210.863 327.863 210.527 328.737 209.965 329.388C209.402 330.038 208.652 330.419 207.862 330.454L153.728 332.686C153.693 332.687 153.658 332.688 153.623 332.688C153.175 332.688 152.732 332.576 152.323 332.359C151.914 332.142 151.55 331.825 151.255 331.429Z" fill="#3BB9E0"/>
<path d="M86.3224 298.201C86.2954 296.912 86.5097 295.631 86.9501 294.449C87.3906 293.267 88.0465 292.213 88.8716 291.36C89.6968 290.508 90.6711 289.879 91.726 289.516C92.7809 289.154 93.8907 289.067 94.9772 289.262L122.878 266.346L130.71 283.192L101.261 299.961C100.86 302.082 99.8108 303.956 98.3114 305.229C96.812 306.502 94.9668 307.086 93.1255 306.869C91.2841 306.652 89.5745 305.65 88.3206 304.052C87.0668 302.455 86.3558 300.373 86.3224 298.201L86.3224 298.201Z" fill="#FFB8B8"/>
<path d="M120.248 292.962C119.901 292.898 119.569 292.751 119.27 292.529C118.97 292.306 118.71 292.014 118.503 291.668L109.39 276.477C108.972 275.779 108.798 274.908 108.905 274.053C109.012 273.198 109.392 272.43 109.961 271.918L163.923 223.459C166.14 221.468 168.912 220.637 171.629 221.147C172.975 221.399 174.267 221.974 175.431 222.837C176.595 223.7 177.609 224.836 178.414 226.179C179.22 227.521 179.801 229.045 180.126 230.663C180.45 232.28 180.51 233.96 180.304 235.607C180.098 237.253 179.628 238.833 178.922 240.258C178.217 241.682 177.289 242.923 176.191 243.908L122.229 292.367C121.774 292.778 121.223 293 120.658 293C120.52 293 120.383 292.987 120.248 292.962Z" fill="#3BB9E0"/>
<path d="M185.238 197.014C187.518 193.733 187.268 188.736 185.439 185.088C183.609 181.44 180.503 178.928 177.307 176.965C174.111 175.003 170.716 173.459 167.709 171.123C164.701 168.786 164.832 158.894 164.031 154.766L165.941 155.513C165.207 154.411 164.972 151.154 164.238 150.052C166.396 150.302 168.056 152.707 170.214 152.957L168.968 149.034C176.369 148.498 180.971 154.534 188.372 153.999C192.038 153.733 196.021 153.565 199.035 156.03C201.655 158.172 202.981 161.879 203.851 165.484C205.719 173.224 206.009 181.895 202.783 188.993C199.556 196.091 192.119 200.874 185.621 198.311L185.238 197.014Z" fill="#2F2E41"/>
<path d="M436.011 452.117C435.494 452.118 434.991 451.933 434.578 451.59L434.552 451.569L429.153 447.008C428.903 446.796 428.694 446.532 428.536 446.231C428.378 445.929 428.276 445.597 428.235 445.252C428.193 444.907 428.214 444.556 428.295 444.22C428.377 443.884 428.517 443.569 428.709 443.293C428.901 443.016 429.14 442.785 429.413 442.61C429.685 442.436 429.987 442.323 430.299 442.278C430.611 442.232 430.929 442.255 431.233 442.345C431.537 442.435 431.823 442.59 432.073 442.802L435.569 445.764L443.832 433.857C444.024 433.58 444.263 433.349 444.536 433.175C444.808 433.001 445.109 432.888 445.422 432.842C445.734 432.797 446.051 432.819 446.355 432.909C446.66 432.999 446.945 433.154 447.195 433.366L447.195 433.367L447.144 433.445L447.197 433.367C447.701 433.795 448.031 434.426 448.114 435.123C448.197 435.819 448.027 436.523 447.64 437.081L437.921 451.08C437.696 451.403 437.407 451.664 437.076 451.843C436.745 452.022 436.382 452.115 436.013 452.113L436.011 452.117Z" fill="#3BB9E0"/>
<path d="M358.046 313.096C370.609 313.096 380.793 301.847 380.793 287.971C380.793 274.095 370.609 262.846 358.046 262.846C345.483 262.846 335.299 274.095 335.299 287.971C335.299 301.847 345.483 313.096 358.046 313.096Z" fill="#A0616A"/>
<path d="M349.833 436.64C349.546 436.64 349.259 436.626 348.97 436.598C347.539 436.466 346.15 436.002 344.893 435.236C343.636 434.47 342.54 433.419 341.676 432.152C340.813 430.885 340.202 429.431 339.882 427.885C339.563 426.339 339.543 424.736 339.824 423.181C339.89 422.82 339.974 422.463 340.074 422.111L306.501 378.253C305.407 376.813 304.763 375.022 304.664 373.145C304.565 371.268 305.016 369.406 305.951 367.835L306.012 367.753L336.231 334.84C337.053 333.945 338.027 333.239 339.097 332.763C340.167 332.286 341.312 332.048 342.466 332.063C343.619 332.078 344.759 332.345 345.819 332.849C346.879 333.353 347.837 334.084 348.64 335C349.443 335.916 350.073 336.998 350.495 338.184C350.916 339.37 351.121 340.637 351.097 341.911C351.073 343.185 350.821 344.442 350.355 345.608C349.889 346.774 349.219 347.826 348.383 348.704L326.496 371.687L350.456 414.164C350.91 414.19 351.362 414.252 351.808 414.348C354.286 414.894 356.492 416.439 357.998 418.681C359.503 420.923 360.201 423.703 359.955 426.481C359.709 429.26 358.536 431.838 356.666 433.715C354.796 435.592 352.36 436.635 349.833 436.64L349.833 436.64Z" fill="#A0616A"/>
<path d="M395.51 637.649L406.865 637.648L412.266 589.274L395.508 589.275L395.51 637.649Z" fill="#A0616A"/>
<path d="M392.614 633.555L414.974 633.554H414.975C416.847 633.554 418.7 633.961 420.428 634.752C422.157 635.543 423.728 636.702 425.052 638.164C426.375 639.625 427.424 641.36 428.141 643.27C428.857 645.18 429.225 647.226 429.225 649.293V649.805L392.614 649.806L392.614 633.555Z" fill="#2F2E41"/>
<path d="M282.654 620.309L292.41 626.725L319.458 588.214L305.059 578.745L282.654 620.309Z" fill="#A0616A"/>
<path d="M282.062 615.154L301.275 627.79L301.276 627.79C302.884 628.847 304.288 630.244 305.407 631.901C306.526 633.558 307.339 635.442 307.799 637.445C308.259 639.449 308.357 641.533 308.087 643.578C307.818 645.624 307.187 647.591 306.229 649.367L305.993 649.806L274.535 629.118L282.062 615.154Z" fill="#2F2E41"/>
<path d="M409.543 620.563H396.829C395.8 620.565 394.806 620.145 394.041 619.385C393.275 618.625 392.792 617.578 392.685 616.447L379.867 483.362C379.835 483.027 379.704 482.713 379.494 482.469C379.284 482.224 379.007 482.063 378.706 482.01C378.405 481.956 378.096 482.014 377.827 482.173C377.559 482.333 377.345 482.586 377.219 482.893L354.096 539.448L313.156 613.184C312.626 614.129 311.806 614.832 310.845 615.164C309.885 615.495 308.848 615.434 307.925 614.99L291.57 607.042C291.029 606.779 290.545 606.392 290.15 605.907C289.755 605.422 289.458 604.849 289.278 604.227C289.099 603.606 289.041 602.949 289.109 602.301C289.176 601.652 289.368 601.027 289.671 600.467L327.305 530.863L338.848 472.218C335.217 446.786 350.78 408.975 350.938 408.596L351.015 408.411L397.809 387.736L398.024 388.027C425.829 425.517 421.304 517.419 413.698 616.346C413.604 617.493 413.127 618.561 412.358 619.341C411.59 620.121 410.587 620.557 409.543 620.563Z" fill="#2F2E41"/>
<path d="M349.288 414.608L349.088 414.144C348.993 413.922 339.461 391.717 332.113 367.984C330.701 363.394 330.167 358.531 330.545 353.702C330.923 348.872 332.206 344.182 334.31 339.929C336.443 335.632 339.36 331.87 342.877 328.883C346.394 325.896 350.434 323.748 354.742 322.576C362.22 320.596 370.093 321.649 376.928 325.544C383.762 329.439 389.102 335.916 391.974 343.795C397.803 359.894 399.872 374.909 398.124 388.422L398.089 388.693L397.866 388.811L349.288 414.608Z" fill="#3BB9E0"/>
<path d="M385.626 273.778H349.506V256.387C357.434 252.909 365.192 249.95 369.881 256.387C374.057 256.387 378.062 258.22 381.014 261.481C383.967 264.742 385.626 269.166 385.626 273.778Z" fill="#2F2E41"/>
<path d="M347.506 253.319C325.913 253.319 319.87 283.214 319.87 300.08C319.87 309.486 323.721 312.85 329.772 313.988L331.909 301.398L336.915 314.53C338.615 314.539 340.401 314.503 342.252 314.465L343.949 310.605L347.734 314.396C362.892 314.421 375.143 316.861 375.143 300.08C375.143 283.214 369.842 253.319 347.506 253.319Z" fill="#2F2E41"/>
<path d="M464.188 158.751C468.28 158.751 471.597 155.087 471.597 150.568C471.597 146.048 468.28 142.384 464.188 142.384C460.096 142.384 456.779 146.048 456.779 150.568C456.779 155.087 460.096 158.751 464.188 158.751Z" fill="#CCCCCC"/>
<path d="M464.188 305.575C468.28 305.575 471.597 301.911 471.597 297.391C471.597 292.872 468.28 289.208 464.188 289.208C460.096 289.208 456.779 292.872 456.779 297.391C456.779 301.911 460.096 305.575 464.188 305.575Z" fill="#CCCCCC"/>
<path d="M464.188 452.454C468.28 452.454 471.597 448.79 471.597 444.271C471.597 439.751 468.28 436.087 464.188 436.087C460.096 436.087 456.779 439.751 456.779 444.271C456.779 448.79 460.096 452.454 464.188 452.454Z" fill="#CCCCCC"/>
<path d="M438.15 464.678C434.219 464.678 430.378 463.354 427.11 460.875C423.842 458.395 421.295 454.871 419.791 450.747C418.287 446.624 417.893 442.087 418.66 437.709C419.427 433.332 421.319 429.311 424.098 426.155C426.878 422.999 430.418 420.85 434.273 419.979C438.128 419.108 442.123 419.555 445.754 421.263C449.385 422.971 452.489 425.863 454.672 429.574C456.856 433.285 458.021 437.648 458.021 442.112C458.015 448.094 455.92 453.83 452.194 458.061C448.469 462.291 443.418 464.671 438.15 464.678ZM438.15 421.295C434.524 421.295 430.98 422.515 427.965 424.803C424.951 427.09 422.601 430.341 421.214 434.145C419.826 437.949 419.463 442.135 420.171 446.173C420.878 450.211 422.624 453.92 425.188 456.831C427.751 459.743 431.018 461.725 434.573 462.529C438.129 463.332 441.815 462.92 445.165 461.344C448.514 459.768 451.377 457.1 453.391 453.677C455.406 450.254 456.481 446.229 456.481 442.112C456.475 436.592 454.542 431.301 451.106 427.399C447.669 423.496 443.01 421.301 438.15 421.295Z" fill="#3BB9E0"/>
<path d="M661.682 358.682C656.955 358.682 652.335 357.134 648.405 354.234C644.475 351.333 641.412 347.211 639.603 342.388C637.794 337.564 637.321 332.257 638.243 327.137C639.165 322.017 641.441 317.313 644.784 313.622C648.126 309.93 652.384 307.416 657.019 306.398C661.655 305.379 666.46 305.902 670.827 307.9C675.193 309.898 678.926 313.281 681.552 317.622C684.178 321.962 685.579 327.066 685.579 332.286C685.572 339.285 683.052 345.994 678.572 350.942C674.092 355.891 668.017 358.674 661.682 358.682ZM661.682 307.937C657.321 307.937 653.059 309.365 649.434 312.04C645.809 314.716 642.983 318.519 641.315 322.968C639.646 327.418 639.209 332.313 640.06 337.037C640.911 341.76 643.01 346.099 646.093 349.504C649.176 352.91 653.104 355.229 657.381 356.168C661.657 357.108 666.09 356.626 670.118 354.783C674.146 352.94 677.589 349.819 680.011 345.815C682.434 341.81 683.727 337.102 683.727 332.286C683.72 325.831 681.395 319.641 677.263 315.077C673.13 310.512 667.526 307.944 661.682 307.937Z" fill="#3BB9E0"/>
<path d="M429.327 450.633C428.361 451.968 427.139 453.05 425.75 453.802C424.36 454.553 422.837 454.956 421.29 454.981C419.879 455.002 418.479 454.708 417.173 454.117C415.868 453.526 414.684 452.649 413.692 451.54C412.701 450.43 411.923 449.111 411.405 447.661C410.887 446.211 410.64 444.66 410.678 443.102C410.694 442.532 410.75 441.965 410.844 441.404L366.053 349.26C365.467 348.225 365.072 347.072 364.891 345.868C364.71 344.664 364.746 343.433 364.997 342.244C365.249 341.056 365.71 339.934 366.356 338.943C367.001 337.952 367.817 337.112 368.757 336.471C369.698 335.83 370.743 335.4 371.835 335.207C372.926 335.014 374.04 335.061 375.115 335.345C376.19 335.63 377.203 336.146 378.096 336.864C378.989 337.583 379.745 338.489 380.32 339.531L424.078 432.322C425.729 432.852 427.236 433.824 428.466 435.15C429.696 436.477 430.611 438.118 431.13 439.929C431.649 441.739 431.756 443.663 431.441 445.53C431.127 447.397 430.401 449.15 429.327 450.633V450.633Z" fill="#A0616A"/>
<path d="M659.405 341.965C658.888 341.966 658.385 341.781 657.972 341.439L657.946 341.417L652.548 336.856C652.043 336.428 651.712 335.797 651.629 335.1C651.546 334.403 651.716 333.698 652.103 333.141C652.49 332.583 653.062 332.218 653.693 332.126C654.324 332.034 654.962 332.222 655.467 332.65L658.964 335.612L667.227 323.705C667.418 323.429 667.657 323.197 667.93 323.023C668.202 322.849 668.504 322.736 668.816 322.69C669.128 322.645 669.445 322.668 669.749 322.757C670.054 322.847 670.339 323.003 670.589 323.214L670.59 323.215L670.538 323.293L670.591 323.215C671.095 323.643 671.425 324.274 671.508 324.971C671.591 325.667 671.421 326.371 671.034 326.929L661.315 340.928C661.091 341.251 660.801 341.512 660.471 341.691C660.14 341.87 659.776 341.963 659.407 341.962L659.405 341.965Z" fill="#3BB9E0"/>
<path d="M658.721 260.187H495.72C495.474 260.187 495.238 260.079 495.065 259.887C494.891 259.695 494.793 259.435 494.793 259.164C494.793 258.892 494.891 258.632 495.065 258.44C495.238 258.248 495.474 258.141 495.72 258.141H658.721C658.966 258.141 659.202 258.248 659.376 258.44C659.549 258.632 659.647 258.892 659.647 259.164C659.647 259.435 659.549 259.695 659.376 259.887C659.202 260.079 658.966 260.187 658.721 260.187Z" fill="#B3B3B3"/>
<path d="M658.721 279.623H495.72C495.474 279.623 495.238 279.515 495.065 279.323C494.891 279.132 494.793 278.871 494.793 278.6C494.793 278.329 494.891 278.069 495.065 277.877C495.238 277.685 495.474 277.577 495.72 277.577H658.721C658.966 277.577 659.202 277.685 659.376 277.877C659.549 278.069 659.647 278.329 659.647 278.6C659.647 278.871 659.549 279.132 659.376 279.323C659.202 279.515 658.966 279.623 658.721 279.623Z" fill="#B3B3B3"/>
<path d="M658.721 299.06H495.72C495.474 299.06 495.238 298.952 495.065 298.76C494.891 298.568 494.793 298.308 494.793 298.037C494.793 297.765 494.891 297.505 495.065 297.313C495.238 297.121 495.474 297.014 495.72 297.014H658.721C658.966 297.014 659.202 297.121 659.376 297.313C659.549 297.505 659.647 297.765 659.647 298.037C659.647 298.308 659.549 298.568 659.376 298.76C659.202 298.952 658.966 299.06 658.721 299.06Z" fill="#B3B3B3"/>
<path d="M621.675 318.496H495.72C495.474 318.496 495.238 318.388 495.065 318.197C494.891 318.005 494.793 317.744 494.793 317.473C494.793 317.202 494.891 316.942 495.065 316.75C495.238 316.558 495.474 316.45 495.72 316.45H621.675C621.921 316.45 622.156 316.558 622.33 316.75C622.504 316.942 622.601 317.202 622.601 317.473C622.601 317.744 622.504 318.005 622.33 318.197C622.156 318.388 621.921 318.496 621.675 318.496Z" fill="#B3B3B3"/>
<path d="M620.749 337.932H495.72C495.474 337.932 495.238 337.824 495.065 337.633C494.891 337.441 494.793 337.181 494.793 336.909C494.793 336.638 494.891 336.378 495.065 336.186C495.238 335.994 495.474 335.886 495.72 335.886H620.749C620.994 335.886 621.23 335.994 621.404 336.186C621.577 336.378 621.675 336.638 621.675 336.909C621.675 337.181 621.577 337.441 621.404 337.633C621.23 337.824 620.994 337.932 620.749 337.932Z" fill="#B3B3B3"/>
<path d="M661.682 212.398C656.955 212.398 652.335 210.85 648.405 207.95C644.475 205.049 641.412 200.927 639.603 196.104C637.794 191.28 637.321 185.973 638.243 180.853C639.165 175.732 641.441 171.029 644.784 167.338C648.126 163.646 652.384 161.132 657.019 160.114C661.655 159.095 666.46 159.618 670.827 161.616C675.193 163.614 678.926 166.997 681.552 171.338C684.178 175.678 685.579 180.782 685.579 186.002C685.572 193 683.052 199.71 678.572 204.658C674.092 209.607 668.017 212.39 661.682 212.398ZM661.682 161.652C657.321 161.652 653.059 163.08 649.434 165.756C645.809 168.432 642.983 172.235 641.315 176.684C639.646 181.133 639.209 186.029 640.06 190.753C640.911 195.476 643.01 199.815 646.093 203.22C649.176 206.626 653.104 208.945 657.381 209.884C661.657 210.824 666.09 210.342 670.118 208.499C674.146 206.656 677.589 203.535 680.011 199.53C682.434 195.526 683.727 190.818 683.727 186.002C683.72 179.547 681.395 173.357 677.263 168.792C673.13 164.227 667.526 161.66 661.682 161.652Z" fill="#3BB9E0"/>
<path d="M659.405 195.68C658.888 195.681 658.385 195.497 657.972 195.154L657.946 195.133L652.548 190.572C652.043 190.144 651.712 189.512 651.629 188.816C651.546 188.119 651.716 187.414 652.103 186.856C652.49 186.299 653.062 185.934 653.693 185.842C654.324 185.75 654.962 185.938 655.467 186.366L658.964 189.328L667.227 177.421C667.418 177.144 667.657 176.913 667.93 176.739C668.202 176.565 668.504 176.452 668.816 176.406C669.128 176.361 669.445 176.383 669.749 176.473C670.054 176.563 670.339 176.718 670.589 176.93L670.59 176.931L670.538 177.009L670.591 176.931C671.095 177.359 671.425 177.99 671.508 178.686C671.591 179.383 671.421 180.087 671.034 180.645L661.315 194.644C661.091 194.966 660.801 195.227 660.471 195.407C660.14 195.586 659.776 195.679 659.407 195.677L659.405 195.68Z" fill="#3BB9E0"/>
<path d="M658.721 113.903H495.72C495.474 113.903 495.238 113.795 495.065 113.603C494.891 113.411 494.793 113.151 494.793 112.88C494.793 112.609 494.891 112.348 495.065 112.157C495.238 111.965 495.474 111.857 495.72 111.857H658.721C658.966 111.857 659.202 111.965 659.376 112.157C659.549 112.348 659.647 112.609 659.647 112.88C659.647 113.151 659.549 113.411 659.376 113.603C659.202 113.795 658.966 113.903 658.721 113.903Z" fill="#B3B3B3"/>
<path d="M658.721 133.339H495.72C495.474 133.339 495.238 133.231 495.065 133.039C494.891 132.847 494.793 132.587 494.793 132.316C494.793 132.045 494.891 131.784 495.065 131.593C495.238 131.401 495.474 131.293 495.72 131.293H658.721C658.966 131.293 659.202 131.401 659.376 131.593C659.549 131.784 659.647 132.045 659.647 132.316C659.647 132.587 659.549 132.847 659.376 133.039C659.202 133.231 658.966 133.339 658.721 133.339Z" fill="#B3B3B3"/>
<path d="M658.721 152.775H495.72C495.474 152.775 495.238 152.668 495.065 152.476C494.891 152.284 494.793 152.024 494.793 151.752C494.793 151.481 494.891 151.221 495.065 151.029C495.238 150.837 495.474 150.729 495.72 150.729H658.721C658.966 150.729 659.202 150.837 659.376 151.029C659.549 151.221 659.647 151.481 659.647 151.752C659.647 152.024 659.549 152.284 659.376 152.476C659.202 152.668 658.966 152.775 658.721 152.775Z" fill="#B3B3B3"/>
<path d="M621.675 172.212H495.72C495.474 172.212 495.238 172.105 495.065 171.913C494.891 171.721 494.793 171.461 494.793 171.189C494.793 170.918 494.891 170.658 495.065 170.466C495.238 170.274 495.474 170.167 495.72 170.167H621.675C621.921 170.167 622.156 170.274 622.33 170.466C622.504 170.658 622.601 170.918 622.601 171.189C622.601 171.461 622.504 171.721 622.33 171.913C622.156 172.105 621.921 172.212 621.675 172.212Z" fill="#B3B3B3"/>
<path d="M620.749 191.648H495.72C495.474 191.648 495.238 191.541 495.065 191.349C494.891 191.157 494.793 190.897 494.793 190.626C494.793 190.354 494.891 190.094 495.065 189.902C495.238 189.71 495.474 189.603 495.72 189.603H620.749C620.994 189.603 621.23 189.71 621.404 189.902C621.577 190.094 621.675 190.354 621.675 190.626C621.675 190.897 621.577 191.157 621.404 191.349C621.23 191.541 620.994 191.648 620.749 191.648Z" fill="#B3B3B3"/>
<path d="M661.682 503.943C656.955 503.943 652.335 502.395 648.405 499.494C644.475 496.594 641.412 492.472 639.603 487.648C637.794 482.825 637.321 477.518 638.243 472.398C639.165 467.277 641.441 462.574 644.784 458.883C648.126 455.191 652.384 452.677 657.019 451.659C661.655 450.64 666.46 451.163 670.827 453.161C675.193 455.158 678.926 458.542 681.552 462.882C684.178 467.223 685.579 472.327 685.579 477.547C685.572 484.545 683.052 491.255 678.572 496.203C674.092 501.152 668.017 503.935 661.682 503.943ZM661.682 453.197C657.321 453.197 653.059 454.625 649.434 457.301C645.809 459.977 642.983 463.78 641.315 468.229C639.646 472.678 639.209 477.574 640.06 482.298C640.911 487.021 643.01 491.36 646.093 494.765C649.176 498.171 653.104 500.49 657.381 501.429C661.657 502.369 666.09 501.887 670.118 500.044C674.146 498.201 677.589 495.08 680.011 491.075C682.434 487.071 683.727 482.363 683.727 477.547C683.72 471.091 681.395 464.902 677.263 460.337C673.13 455.772 667.526 453.205 661.682 453.197Z" fill="#D8D8D8"/>
<path d="M659.405 487.227C658.888 487.227 658.385 487.043 657.972 486.7L657.946 486.679L652.548 482.118C652.298 481.906 652.088 481.642 651.93 481.341C651.772 481.039 651.67 480.707 651.629 480.362C651.588 480.017 651.608 479.666 651.69 479.33C651.771 478.994 651.912 478.679 652.103 478.402C652.295 478.126 652.534 477.894 652.807 477.72C653.08 477.546 653.381 477.433 653.693 477.388C654.005 477.342 654.323 477.365 654.627 477.455C654.931 477.545 655.217 477.7 655.467 477.912L658.964 480.873L667.227 468.966C667.418 468.69 667.657 468.459 667.93 468.285C668.202 468.111 668.504 467.998 668.816 467.952C669.128 467.906 669.445 467.929 669.749 468.019C670.054 468.109 670.339 468.264 670.589 468.476L670.59 468.476L670.538 468.555L670.591 468.476C671.095 468.905 671.425 469.536 671.508 470.232C671.591 470.929 671.421 471.633 671.034 472.191L661.315 486.19C661.091 486.513 660.801 486.774 660.471 486.953C660.14 487.132 659.776 487.225 659.407 487.223L659.405 487.227Z" fill="#B9B9B9"/>
<path d="M658.721 405.448H495.72C495.474 405.448 495.238 405.34 495.065 405.149C494.891 404.957 494.793 404.697 494.793 404.425C494.793 404.154 494.891 403.894 495.065 403.702C495.238 403.51 495.474 403.402 495.72 403.402H658.721C658.966 403.402 659.202 403.51 659.376 403.702C659.549 403.894 659.647 404.154 659.647 404.425C659.647 404.697 659.549 404.957 659.376 405.149C659.202 405.34 658.966 405.448 658.721 405.448Z" fill="#B3B3B3"/>
<path d="M658.721 424.885H495.72C495.474 424.885 495.238 424.777 495.065 424.585C494.891 424.393 494.793 424.133 494.793 423.862C494.793 423.591 494.891 423.33 495.065 423.138C495.238 422.947 495.474 422.839 495.72 422.839H658.721C658.966 422.839 659.202 422.947 659.376 423.138C659.549 423.33 659.647 423.591 659.647 423.862C659.647 424.133 659.549 424.393 659.376 424.585C659.202 424.777 658.966 424.885 658.721 424.885Z" fill="#B3B3B3"/>
<path d="M658.721 444.321H495.72C495.474 444.321 495.238 444.214 495.065 444.022C494.891 443.83 494.793 443.57 494.793 443.298C494.793 443.027 494.891 442.767 495.065 442.575C495.238 442.383 495.474 442.275 495.72 442.275H658.721C658.966 442.275 659.202 442.383 659.376 442.575C659.549 442.767 659.647 443.027 659.647 443.298C659.647 443.57 659.549 443.83 659.376 444.022C659.202 444.214 658.966 444.321 658.721 444.321Z" fill="#B3B3B3"/>
<path d="M621.675 463.757H495.72C495.474 463.757 495.238 463.649 495.065 463.457C494.891 463.265 494.793 463.005 494.793 462.734C494.793 462.463 494.891 462.202 495.065 462.011C495.238 461.819 495.474 461.711 495.72 461.711H621.675C621.921 461.711 622.156 461.819 622.33 462.011C622.504 462.202 622.601 462.463 622.601 462.734C622.601 463.005 622.504 463.265 622.33 463.457C622.156 463.649 621.921 463.757 621.675 463.757Z" fill="#B3B3B3"/>
<path d="M620.749 483.193H495.72C495.474 483.193 495.238 483.086 495.065 482.894C494.891 482.702 494.793 482.442 494.793 482.17C494.793 481.899 494.891 481.639 495.065 481.447C495.238 481.255 495.474 481.147 495.72 481.147H620.749C620.994 481.147 621.23 481.255 621.404 481.447C621.577 481.639 621.675 481.899 621.675 482.17C621.675 482.442 621.577 482.702 621.404 482.894C621.23 483.086 620.994 483.193 620.749 483.193Z" fill="#B3B3B3"/>
</svg>
