<svg width="728" height="755" viewBox="0 0 728 755" fill="none" xmlns="http://www.w3.org/2000/svg">
<g clip-path="url(#clip0)">
<path d="M165.277 263.942L137.683 282.04L425.063 720.205L452.657 702.107L165.277 263.942Z" fill="#E6E6E6"/>
<path d="M99.5823 99.049L163.427 196.392C164.663 198.277 165.1 200.576 164.641 202.783C164.183 204.99 162.866 206.925 160.981 208.161C159.096 209.397 156.797 209.834 154.59 209.376C152.382 208.917 150.448 207.6 149.211 205.715L75.8146 93.808C65.8521 92.976 55.8384 94.6206 46.6652 98.5953L126.634 220.523C127.87 222.408 128.306 224.707 127.847 226.913C127.388 229.12 126.072 231.054 124.187 232.29C122.302 233.526 120.004 233.963 117.797 233.505C115.59 233.047 113.656 231.731 112.419 229.846L32.4499 107.919C25.1494 114.749 19.6513 123.278 16.4449 132.747L89.8418 244.654C91.0773 246.539 91.5135 248.838 91.0546 251.044C90.5956 253.251 89.2791 255.185 87.3944 256.421C85.5097 257.657 83.2112 258.094 81.0044 257.636C78.7976 257.178 76.8631 255.862 75.6265 253.978L11.7821 156.635C10.1423 183.776 18.9915 215.946 38.3854 245.516C74.4296 300.472 133.225 325.625 169.708 301.696C206.192 277.768 206.548 213.819 170.504 158.863C151.11 129.293 125.13 108.359 99.5823 99.049Z" fill="#E6E6E6"/>
<path d="M289 204H256V728H289V204Z" fill="#E6E6E6"/>
<path d="M272 238C315.63 238 351 184.722 351 119C351 53.2781 315.63 0 272 0C228.37 0 193 53.2781 193 119C193 184.722 228.37 238 272 238Z" fill="#E6E6E6"/>
<path d="M272 216.912C307.899 216.912 337 173.075 337 119C337 64.9253 307.899 21.0889 272 21.0889C236.101 21.0889 207 64.9253 207 119C207 173.075 236.101 216.912 272 216.912Z" fill="#CCCCCC"/>
<path d="M364 754.886C565.032 754.886 728 745.535 728 734C728 722.466 565.032 713.115 364 713.115C162.968 713.115 0 722.466 0 734C0 745.535 162.968 754.886 364 754.886Z" fill="#E6E6E6"/>
<path d="M579.268 733.693C442.855 709.105 303.145 709.105 166.732 733.693C164.565 734.086 162.339 733.998 160.209 733.436C158.08 732.874 156.1 731.852 154.409 730.441C152.718 729.031 151.357 727.266 150.422 725.272C149.488 723.278 149.002 721.103 149 718.901V532H597V718.901C596.998 721.103 596.512 723.278 595.578 725.272C594.643 727.266 593.282 729.031 591.591 730.441C589.9 731.852 587.92 732.874 585.791 733.436C583.661 733.998 581.435 734.086 579.268 733.693V733.693Z" fill="#3BB9E0"/>
<path d="M556 394C545.655 393.991 535.382 395.71 525.605 399.086C511.343 368.154 488.554 341.931 459.913 323.494C431.272 305.058 397.966 295.174 363.904 295.002C329.843 294.83 296.439 304.377 267.612 322.523C238.786 340.669 215.734 366.66 201.16 397.447C186.81 393.421 171.703 392.904 157.111 395.937C142.519 398.97 128.869 405.466 117.313 414.877C105.756 424.288 96.6298 436.339 90.7036 450.014C84.7774 463.689 82.2245 478.588 83.2599 493.456C84.2953 508.325 88.8888 522.726 96.6533 535.448C104.418 548.169 115.126 558.839 127.876 566.557C140.626 574.275 155.044 578.817 169.915 579.798C184.787 580.78 199.677 578.173 213.33 572.197C229.741 597.203 252.155 617.7 278.526 631.814C304.897 645.928 334.384 653.21 364.294 652.995C394.203 652.78 423.582 645.074 449.747 630.582C475.912 616.09 498.029 595.273 514.078 570.033C526.617 576.363 540.426 579.771 554.47 580.001C568.513 580.231 582.427 577.277 595.166 571.361C607.905 565.446 619.139 556.721 628.024 545.844C636.909 534.966 643.216 522.217 646.47 508.553C649.723 494.89 649.841 480.667 646.812 466.951C643.783 453.236 637.687 440.385 628.982 429.363C620.277 418.34 609.188 409.432 596.548 403.308C583.908 397.183 570.045 394.001 556 394V394Z" fill="#3BB9E0"/>
<path d="M185 474H183C182.932 447.373 188.825 421.068 200.247 397.015L202.055 397.871C190.76 421.657 184.932 447.669 185 474V474Z" fill="#3F3D56"/>
<path d="M543 474H541C541.062 448.276 535.501 422.849 524.706 399.499L526.522 398.661C537.439 422.274 543.063 447.986 543 474V474Z" fill="#3F3D56"/>
<path d="M149.241 618.971L148.759 617.029C149.323 616.889 206.162 602.93 289.459 596.003C366.34 589.61 482.146 588.068 597.244 617.03L596.756 618.97C481.939 590.08 366.387 591.615 289.667 597.993C206.519 604.904 149.804 618.831 149.241 618.971Z" fill="#3F3D56"/>
<path d="M149.241 645.971L148.759 644.029C149.323 643.889 206.162 629.93 289.459 623.003C366.34 616.61 482.146 615.068 597.244 644.03L596.756 645.97C481.939 617.08 366.387 618.617 289.667 624.993C206.519 631.904 149.804 645.831 149.241 645.971Z" fill="#3F3D56"/>
<path d="M149.241 672.971L148.759 671.029C149.323 670.889 206.162 656.93 289.459 650.003C366.34 643.61 482.146 642.068 597.244 671.03L596.756 672.97C481.939 644.08 366.387 645.617 289.667 651.993C206.519 658.904 149.804 672.831 149.241 672.971Z" fill="#3F3D56"/>
<path d="M517.267 526.156L493.037 517.918L516.298 399.189L500.306 397.735C484.712 409.7 463.946 414.39 437.307 410.82L479.952 475.273L458.207 490.622L388.839 407.417C385.712 403.666 384 398.938 384 394.055C384 389.529 385.472 385.125 388.194 381.508C390.916 377.891 394.741 375.257 399.091 374.005L473.168 352.667L559.912 362.359C573.027 382.353 573.54 396.259 553.576 400.27L517.267 526.156Z" fill="#2F2E41"/>
<path d="M492.467 572.344C489.962 572.185 487.53 571.438 485.368 570.163C483.206 568.889 481.376 567.122 480.025 565.007C478.674 562.891 477.841 560.487 477.594 557.99C477.346 555.493 477.692 552.972 478.601 550.633L490.647 519.657C496.766 508.066 505.164 509.517 515.08 519.657L519.926 533.873C520.325 535.043 520.483 536.282 520.391 537.515C520.299 538.748 519.959 539.95 519.391 541.049L507.65 563.749C506.226 566.501 504.033 568.779 501.337 570.305C498.641 571.831 495.559 572.54 492.467 572.344V572.344Z" fill="#2F2E41"/>
<path d="M461.152 531.781C458.648 531.623 456.216 530.876 454.054 529.601C451.892 528.326 450.061 526.559 448.711 524.444C447.36 522.329 446.527 519.925 446.279 517.428C446.032 514.93 446.377 512.409 447.287 510.07L459.333 479.095C465.451 467.504 473.849 468.955 483.765 479.095L488.611 493.31C489.01 494.48 489.169 495.719 489.077 496.953C488.985 498.186 488.645 499.388 488.077 500.486L476.335 523.186C474.912 525.938 472.718 528.216 470.022 529.742C467.326 531.269 464.244 531.977 461.152 531.781Z" fill="#2F2E41"/>
<path d="M476.56 239.268C491.548 239.268 503.698 227.118 503.698 212.13C503.698 197.142 491.548 184.992 476.56 184.992C461.572 184.992 449.422 197.142 449.422 212.13C449.422 227.118 461.572 239.268 476.56 239.268Z" fill="#FFB9B9"/>
<path d="M518.721 250.415L481.406 269.799L473.652 234.907L499.336 218.915L518.721 250.415Z" fill="#FFB9B9"/>
<path d="M563.789 367.204C526.555 355.958 492.771 350.131 468.322 358.966C476.749 335.258 461.194 299.055 444.091 262.045C451.471 252.398 463.237 248.661 476.56 247.022C491.137 257.606 501.301 250.813 509.029 234.422C525.882 233.746 542.124 239.714 557.974 249.93C545.584 289.616 547.814 328.695 563.789 367.204Z" fill="#3F3D56"/>
<path d="M467.837 364.781C461.958 368.247 456.531 374.085 451.361 381.258C442.622 375.909 434.932 369.819 428.875 362.575C424.634 357.439 421.743 351.326 420.463 344.79C419.183 338.254 419.554 331.502 421.544 325.146L438.105 271.325C439.48 266.854 442.152 262.893 445.782 259.944L447.968 258.168L469.776 299.36L447.968 340.067C450.734 347.481 458.883 356.045 467.837 364.781Z" fill="#3F3D56"/>
<path d="M473.489 406.983C471.918 407.71 470.202 408.055 468.477 407.993C466.752 407.93 465.064 407.462 463.549 406.624C462.033 405.786 460.73 404.602 459.743 403.166C458.757 401.729 458.113 400.079 457.864 398.347L455 378.466L465.011 373L477.715 389.867C478.73 391.214 479.433 392.776 479.77 394.436C480.108 396.096 480.073 397.813 479.667 399.457C479.261 401.102 478.494 402.632 477.425 403.935C476.355 405.238 475.01 406.28 473.489 406.983V406.983Z" fill="#FFB9B9"/>
<path d="M503.94 210.943L499.307 211.081L486.454 192.874C469.984 194.576 456.489 201.732 445.068 212.692L443.91 204.972C442.806 197.61 444.565 190.106 448.825 184.001C453.085 177.896 459.523 173.656 466.813 172.153H466.813C470.643 171.364 474.592 171.354 478.426 172.124C482.259 172.895 485.898 174.43 489.124 176.638C492.351 178.847 495.1 181.682 497.207 184.976C499.313 188.27 500.735 191.955 501.386 195.811L503.94 210.943Z" fill="#2F2E41"/>
<path d="M442.193 349.869L442.47 349.82L441.081 341.942C440.975 341.344 440.984 340.731 441.107 340.138C441.231 339.546 441.465 338.987 441.798 338.491C442.132 337.996 442.556 337.575 443.049 337.252C443.541 336.929 444.091 336.71 444.668 336.609L460.742 333.774C461.318 333.673 461.91 333.69 462.483 333.825C463.056 333.96 463.6 334.211 464.082 334.562C464.565 334.914 464.977 335.359 465.295 335.874C465.613 336.388 465.831 336.961 465.937 337.56L473.557 380.778C473.663 381.377 473.654 381.99 473.531 382.582C473.408 383.174 473.173 383.734 472.84 384.229C472.507 384.724 472.082 385.146 471.589 385.469C471.097 385.792 470.547 386.01 469.97 386.112L453.897 388.946C453.32 389.048 452.728 389.031 452.155 388.895C451.582 388.76 451.038 388.51 450.556 388.158C450.074 387.807 449.662 387.361 449.343 386.847C449.025 386.333 448.807 385.76 448.701 385.161L443.459 355.428L443.182 355.477L442.193 349.869Z" fill="#7770CD"/>
<path d="M450.262 384.271C449.36 382.294 448.931 380.134 449.009 377.963C449.086 375.791 449.668 373.668 450.708 371.76C451.748 369.852 453.217 368.212 455 366.97C456.783 365.728 458.83 364.918 460.98 364.604L485.655 361L492.439 373.6L471.506 389.591C469.834 390.868 467.895 391.752 465.835 392.177C463.774 392.602 461.644 392.558 459.603 392.047C457.562 391.536 455.662 390.571 454.045 389.225C452.428 387.879 451.135 386.185 450.262 384.271V384.271Z" fill="#FFB9B9"/>
<path d="M568.49 358.824C545.015 360.647 519.384 367.967 492.552 378.351C492.219 370.386 489.33 362.74 484.313 356.544C508.684 350.125 530.798 342.592 544.405 330.86L536.166 268.83L554.097 248.477L557.19 250.09C559.758 251.425 562.018 253.285 563.821 255.549C565.625 257.813 566.932 260.431 567.659 263.233C575.229 292.682 578.592 320.898 576.281 347.451C576.579 349.969 575.954 352.509 574.521 354.601C573.088 356.692 570.945 358.193 568.49 358.824V358.824Z" fill="#3F3D56"/>
<path d="M95.886 728.112C74.0536 741.768 52.2213 741.762 30.3888 728.095C29.6977 727.67 29.1364 727.063 28.7659 726.341C28.3954 725.618 28.23 724.808 28.2875 723.999L35.0999 635.438H90.2004L97.9833 723.968C98.0505 724.785 97.8901 725.605 97.5199 726.336C97.1497 727.068 96.5842 727.682 95.886 728.112V728.112Z" fill="#3F3D56"/>
<path d="M62.3962 646.457C77.7521 646.457 90.2006 641.972 90.2006 636.439C90.2006 630.906 77.7521 626.421 62.3962 626.421C47.0402 626.421 34.5918 630.906 34.5918 636.439C34.5918 641.972 47.0402 646.457 62.3962 646.457Z" fill="#3F3D56"/>
<path d="M84.1895 633.057C69.7012 643.248 55.6756 643.248 42.1128 633.057V617.027H84.1895V633.057Z" fill="#3BB9E0"/>
<path d="M63.1512 625.042C74.7703 625.042 84.1895 621.454 84.1895 617.027C84.1895 612.601 74.7703 609.013 63.1512 609.013C51.532 609.013 42.1128 612.601 42.1128 617.027C42.1128 621.454 51.532 625.042 63.1512 625.042Z" fill="#3BB9E0"/>
<path d="M64.1531 617.028C65.2597 617.028 66.1567 616.58 66.1567 616.026C66.1567 615.473 65.2597 615.024 64.1531 615.024C63.0465 615.024 62.1494 615.473 62.1494 616.026C62.1494 616.58 63.0465 617.028 64.1531 617.028Z" fill="#E6E6E6"/>
<path d="M73.614 617.028C74.7206 617.028 75.6177 616.58 75.6177 616.026C75.6177 615.473 74.7206 615.024 73.614 615.024C72.5074 615.024 71.6104 615.473 71.6104 616.026C71.6104 616.58 72.5074 617.028 73.614 617.028Z" fill="#E6E6E6"/>
<path d="M68.8835 619.393C69.9901 619.393 70.8872 618.945 70.8872 618.391C70.8872 617.838 69.9901 617.39 68.8835 617.39C67.777 617.39 66.8799 617.838 66.8799 618.391C66.8799 618.945 67.777 619.393 68.8835 619.393Z" fill="#E6E6E6"/>
<path d="M49.9612 619.393C51.0678 619.393 51.9648 618.945 51.9648 618.391C51.9648 617.838 51.0678 617.39 49.9612 617.39C48.8546 617.39 47.9575 617.838 47.9575 618.391C47.9575 618.945 48.8546 619.393 49.9612 619.393Z" fill="#E6E6E6"/>
<path d="M54.6916 617.028C55.7982 617.028 56.6953 616.58 56.6953 616.026C56.6953 615.473 55.7982 615.024 54.6916 615.024C53.5851 615.024 52.688 615.473 52.688 616.026C52.688 616.58 53.5851 617.028 54.6916 617.028Z" fill="#E6E6E6"/>
<path d="M59.4221 620.576C60.5287 620.576 61.4258 620.127 61.4258 619.574C61.4258 619.021 60.5287 618.572 59.4221 618.572C58.3155 618.572 57.4185 619.021 57.4185 619.574C57.4185 620.127 58.3155 620.576 59.4221 620.576Z" fill="#E6E6E6"/>
<path d="M700.886 728.112C679.054 741.768 657.221 741.762 635.389 728.095C634.698 727.67 634.136 727.063 633.766 726.341C633.395 725.618 633.23 724.808 633.288 723.999L640.1 635.438H695.2L702.983 723.968C703.051 724.785 702.89 725.605 702.52 726.336C702.15 727.068 701.584 727.682 700.886 728.112V728.112Z" fill="#3F3D56"/>
<path d="M667.396 646.457C682.752 646.457 695.201 641.972 695.201 636.439C695.201 630.906 682.752 626.421 667.396 626.421C652.04 626.421 639.592 630.906 639.592 636.439C639.592 641.972 652.04 646.457 667.396 646.457Z" fill="#3F3D56"/>
<path d="M689.19 633.057C674.701 643.248 660.676 643.248 647.113 633.057V617.027H689.19V633.057Z" fill="#3BB9E0"/>
<path d="M668.151 625.042C679.77 625.042 689.19 621.454 689.19 617.027C689.19 612.601 679.77 609.013 668.151 609.013C656.532 609.013 647.113 612.601 647.113 617.027C647.113 621.454 656.532 625.042 668.151 625.042Z" fill="#3BB9E0"/>
<path d="M669.153 617.028C670.26 617.028 671.157 616.58 671.157 616.026C671.157 615.473 670.26 615.024 669.153 615.024C668.046 615.024 667.149 615.473 667.149 616.026C667.149 616.58 668.046 617.028 669.153 617.028Z" fill="#E6E6E6"/>
<path d="M678.614 617.028C679.721 617.028 680.618 616.58 680.618 616.026C680.618 615.473 679.721 615.024 678.614 615.024C677.507 615.024 676.61 615.473 676.61 616.026C676.61 616.58 677.507 617.028 678.614 617.028Z" fill="#E6E6E6"/>
<path d="M673.884 619.393C674.99 619.393 675.887 618.945 675.887 618.391C675.887 617.838 674.99 617.39 673.884 617.39C672.777 617.39 671.88 617.838 671.88 618.391C671.88 618.945 672.777 619.393 673.884 619.393Z" fill="#E6E6E6"/>
<path d="M654.961 619.393C656.068 619.393 656.965 618.945 656.965 618.391C656.965 617.838 656.068 617.39 654.961 617.39C653.855 617.39 652.958 617.838 652.958 618.391C652.958 618.945 653.855 619.393 654.961 619.393Z" fill="#E6E6E6"/>
<path d="M659.692 617.028C660.798 617.028 661.695 616.58 661.695 616.026C661.695 615.473 660.798 615.024 659.692 615.024C658.585 615.024 657.688 615.473 657.688 616.026C657.688 616.58 658.585 617.028 659.692 617.028Z" fill="#E6E6E6"/>
<path d="M664.422 620.576C665.529 620.576 666.426 620.127 666.426 619.574C666.426 619.021 665.529 618.572 664.422 618.572C663.316 618.572 662.418 619.021 662.418 619.574C662.418 620.127 663.316 620.576 664.422 620.576Z" fill="#E6E6E6"/>
<rect x="450.325" y="342.957" width="9.31051" height="9.06402" rx="3" transform="rotate(-10 450.325 342.957)" fill="#524B4B"/>
<circle cx="455.388" cy="346.388" r="1" transform="rotate(56 455.388 346.388)" fill="#DFD8D8"/>
</g>
<defs>
<clipPath id="clip0">
<rect width="728" height="754.885" fill="white"/>
</clipPath>
</defs>
</svg>
