<svg width="695" height="637" viewBox="0 0 695 637" fill="none" xmlns="http://www.w3.org/2000/svg">
<path d="M171.572 226.231C171.572 177.432 289.088 155.356 364.426 204.156C439.764 252.955 561.935 134.071 625.056 155.647C688.177 177.222 744.317 384.539 625.056 384.539C505.794 384.539 313.231 338.354 208.514 384.539C103.796 430.724 171.572 275.031 171.572 226.231Z" fill="#C4C4C4" fill-opacity="0.2"/>
<path opacity="0.1" d="M326.696 0.213867C326.696 0.213867 321.84 23.2291 324.171 25.0742L326.696 0.213867Z" fill="black"/>
<path opacity="0.1" d="M335.047 6.42871C335.047 6.42871 329.026 21.1895 331.454 23.2289L335.047 6.42871Z" fill="black"/>
<path opacity="0.1" d="M346.409 8.17676C346.409 8.17676 339.32 20.2185 340.777 22.3549L346.409 8.17676Z" fill="black"/>
<path opacity="0.1" d="M360.976 19.9277C360.976 19.9277 353.401 21.9671 354.955 24.3948L360.976 19.9277Z" fill="black"/>
<path d="M665.865 326.54C665.788 325.831 665.535 325.151 665.128 324.565C664.722 323.979 664.175 323.504 663.539 323.185C663.003 322.956 662.426 322.837 661.843 322.836C661.261 322.835 660.684 322.952 660.147 323.179C659.61 323.407 659.124 323.74 658.718 324.16C658.313 324.579 657.995 325.077 657.785 325.622L637.039 369.416L632.369 541.856H639.841L642.643 369.8L665.472 329.258C665.885 328.416 666.023 327.465 665.865 326.54Z" fill="#3BB9E0"/>
<path d="M579.593 601.366C595.07 601.366 607.616 588.778 607.616 573.251C607.616 557.723 595.07 545.136 579.593 545.136C564.117 545.136 551.571 557.723 551.571 573.251C551.571 588.778 564.117 601.366 579.593 601.366Z" fill="#DADADA"/>
<path d="M579.593 591.057C589.395 591.057 597.341 583.085 597.341 573.251C597.341 563.416 589.395 555.444 579.593 555.444C569.792 555.444 561.846 563.416 561.846 573.251C561.846 583.085 569.792 591.057 579.593 591.057Z" fill="#3BB9E0"/>
<path d="M558.11 529.204L576.492 570.908C576.766 571.533 577.212 572.067 577.778 572.446C578.344 572.825 579.007 573.033 579.687 573.047C580.367 573.061 581.038 572.879 581.618 572.523C582.199 572.168 582.667 571.653 582.965 571.039L604.813 526.392L558.11 529.204Z" fill="#DADADA"/>
<path d="M404.921 601.366C420.398 601.366 432.944 588.778 432.944 573.251C432.944 557.723 420.398 545.136 404.921 545.136C389.445 545.136 376.899 557.723 376.899 573.251C376.899 588.778 389.445 601.366 404.921 601.366Z" fill="#DADADA"/>
<path d="M404.921 591.057C414.723 591.057 422.669 583.085 422.669 573.251C422.669 563.416 414.723 555.444 404.921 555.444C395.12 555.444 387.174 563.416 387.174 573.251C387.174 583.085 395.12 591.057 404.921 591.057Z" fill="#3BB9E0"/>
<path d="M383.438 529.204L401.82 570.908C402.094 571.533 402.54 572.067 403.106 572.446C403.672 572.825 404.335 573.033 405.015 573.047C405.696 573.061 406.366 572.879 406.947 572.523C407.527 572.168 407.995 571.653 408.293 571.039L430.141 526.392L383.438 529.204Z" fill="#DADADA"/>
<path d="M340.003 533.421L365.223 517.489L637.506 515.146L644.512 533.421H340.003Z" fill="#3BB9E0"/>
<path d="M340.003 550.29V533.421L649.443 530.422L649.145 541.855H345.608V550.29H340.003Z" fill="#3BB9E0"/>
<path d="M379.234 611.206C394.711 611.206 407.257 598.619 407.257 583.091C407.257 567.564 394.711 554.976 379.234 554.976C363.758 554.976 351.212 567.564 351.212 583.091C351.212 598.619 363.758 611.206 379.234 611.206Z" fill="#DADADA"/>
<path d="M379.234 600.897C389.036 600.897 396.982 592.925 396.982 583.091C396.982 573.257 389.036 565.285 379.234 565.285C369.433 565.285 361.487 573.257 361.487 583.091C361.487 592.925 369.433 600.897 379.234 600.897Z" fill="#3BB9E0"/>
<path d="M357.751 539.044L376.133 580.748C376.407 581.373 376.853 581.907 377.419 582.286C377.985 582.665 378.648 582.874 379.328 582.888C380.008 582.901 380.679 582.72 381.259 582.364C381.84 582.008 382.308 581.493 382.606 580.879L404.454 536.232L357.751 539.044Z" fill="#DADADA"/>
<path d="M596.874 611.206C612.35 611.206 624.896 598.619 624.896 583.091C624.896 567.564 612.35 554.976 596.874 554.976C581.398 554.976 568.852 567.564 568.852 583.091C568.852 598.619 581.398 611.206 596.874 611.206Z" fill="#DADADA"/>
<path d="M596.874 600.897C606.675 600.897 614.621 592.925 614.621 583.091C614.621 573.257 606.675 565.285 596.874 565.285C587.072 565.285 579.126 573.257 579.126 583.091C579.126 592.925 587.072 600.897 596.874 600.897Z" fill="#3BB9E0"/>
<path d="M575.39 539.044L593.773 580.748C594.046 581.373 594.493 581.907 595.059 582.286C595.625 582.665 596.287 582.874 596.967 582.888C597.648 582.901 598.318 582.72 598.899 582.364C599.48 582.008 599.947 581.493 600.246 580.879L622.094 536.232L575.39 539.044Z" fill="#DADADA"/>
<path d="M491.79 459.853H375.031V524.518H491.79V459.853Z" fill="#E6E6E6"/>
<path opacity="0.1" d="M451.625 471.099H416.13V478.596H451.625V471.099Z" fill="#3BB9E0"/>
<path opacity="0.1" d="M447.188 472.036H420.567V477.659H447.188V472.036Z" fill="#3BB9E0"/>
<path d="M610.418 459.853H493.658V524.518H610.418V459.853Z" fill="#E6E6E6"/>
<path opacity="0.1" d="M570.253 471.099H534.758V478.596H570.253V471.099Z" fill="#3BB9E0"/>
<path opacity="0.1" d="M565.816 472.036H539.195V477.659H565.816V472.036Z" fill="#3BB9E0"/>
<path d="M491.79 393.314H375.031V457.979H491.79V393.314Z" fill="#E6E6E6"/>
<path opacity="0.1" d="M451.625 404.56H416.13V412.057H451.625V404.56Z" fill="#3BB9E0"/>
<path opacity="0.1" d="M447.188 405.497H420.567V411.12H447.188V405.497Z" fill="#3BB9E0"/>
<path d="M610.418 393.314H493.658V457.979H610.418V393.314Z" fill="#E6E6E6"/>
<path opacity="0.1" d="M570.253 404.56H534.758V412.057H570.253V404.56Z" fill="#3BB9E0"/>
<path opacity="0.1" d="M565.816 405.497H539.195V411.12H565.816V405.497Z" fill="#3BB9E0"/>
<path d="M491.79 325.837H375.031V390.502H491.79V325.837Z" fill="#E6E6E6"/>
<path opacity="0.1" d="M451.625 337.083H416.13V344.581H451.625V337.083Z" fill="#3BB9E0"/>
<path opacity="0.1" d="M447.188 338.021H420.567V343.644H447.188V338.021Z" fill="#3BB9E0"/>
<path d="M610.418 325.837H493.658V390.502H610.418V325.837Z" fill="#E6E6E6"/>
<path opacity="0.1" d="M570.253 337.083H534.758V344.581H570.253V337.083Z" fill="#3BB9E0"/>
<path opacity="0.1" d="M565.816 338.021H539.195V343.644H565.816V338.021Z" fill="#3BB9E0"/>
<path d="M610.418 258.361H493.658V323.026H610.418V258.361Z" fill="#DADADA"/>
<path opacity="0.1" d="M570.253 269.607H534.758V277.104H570.253V269.607Z" fill="#3BB9E0"/>
<path opacity="0.1" d="M565.816 270.544H539.195V276.167H565.816V270.544Z" fill="#3BB9E0"/>
<path opacity="0.1" d="M302.64 636.658C469.784 636.658 605.28 631.813 605.28 625.837C605.28 619.86 469.784 615.015 302.64 615.015C135.497 615.015 0 619.86 0 625.837C0 631.813 135.497 636.658 302.64 636.658Z" fill="#3BB9E0"/>
<path d="M422.144 236.44C420.826 233.881 413.86 217.976 413.86 217.976L402.187 187.628C402.187 187.628 393.903 174.831 393.903 172.455C393.903 170.078 378.841 160.572 378.841 160.572C378.841 160.572 366.603 156.915 365.661 156.55C364.72 156.184 350.223 151.372 350.223 151.372C350.223 151.372 344.514 143.84 343.701 145.807L343.7 145.812C343.67 145.763 343.64 145.719 343.61 145.668C342.444 143.482 341.705 141.091 341.434 138.626C341.403 138.407 341.377 138.176 341.349 137.948C345.109 135.391 348.191 131.952 350.328 127.931C352.464 123.909 353.592 119.425 353.612 114.868C353.609 113.668 353.529 112.469 353.371 111.28C353.474 111.215 353.583 111.158 353.695 111.109C353.929 111.007 353.869 110.924 353.697 110.837C353.756 110.806 353.815 110.773 353.874 110.748C354.186 110.612 353.978 110.509 353.676 110.387L353.694 110.378C354.119 110.192 353.582 110.07 353.151 109.874C353.127 109.747 353.106 109.621 353.081 109.495C353.176 109.254 353.235 109 353.254 108.741C353.292 108.76 353.327 108.781 353.367 108.799C353.472 108.328 353.47 107.839 353.36 107.369C353.333 107.464 353.3 107.558 353.262 107.65C353.289 107.224 353.201 106.798 353.008 106.417C352.816 106.037 352.525 105.715 352.166 105.485C352.144 105.466 352.12 105.446 352.098 105.427L352.897 97.2255C364.671 96.6672 366.736 76.5701 364.051 75.4536C361.366 74.3371 364.051 71.918 364.051 67.0798C364.051 62.2416 355.169 56.8452 355.169 56.8452C355.169 56.8452 351.451 58.706 345.667 49.4018C339.884 40.0976 318.609 38.6089 317.163 41.028C315.717 43.4471 306.215 46.6106 293.822 50.1462C281.429 53.6817 283.701 68.3824 285.766 71.5459C287.468 74.1612 288.464 77.1747 288.658 80.2919C288.658 82.1527 292.583 89.9682 292.583 89.9682C291.345 92.6764 294.495 107.513 295.428 111.729C295.413 111.859 295.398 111.988 295.385 112.118C295.377 112.131 295.366 112.142 295.359 112.155C295.314 112.223 295.274 112.294 295.238 112.367C295.038 112.804 294.972 113.29 295.048 113.765C294.98 114.284 295.052 114.812 295.257 115.294C295.328 119.266 296.244 123.178 297.944 126.766C299.644 130.355 302.088 133.537 305.114 136.101C305.128 136.355 305.143 136.61 305.157 136.871C305.33 140.316 305.428 144.389 305.247 148.286C305.238 148.486 305.223 148.681 305.212 148.879C304.529 149.018 303.888 149.316 303.341 149.749C302.793 150.182 302.355 150.738 302.062 151.372C300.894 153.625 294.116 157.098 294.116 157.098C294.116 157.098 282.255 157.647 281.125 159.84C279.996 162.034 262.862 169.347 262.862 169.347C262.862 169.347 253.825 174.648 255.143 180.681C255.832 183.834 253.898 188.731 251.895 192.691C247.706 191.097 243.343 190.006 238.898 189.44L248.496 198.653C248.295 198.967 248.177 199.146 248.177 199.146L242.717 218.524C242.717 218.524 240.834 225.288 238.951 226.934C237.068 228.579 240.646 243.57 240.646 243.57C240.646 243.57 238.575 254.173 236.88 256.916C235.186 259.658 239.516 266.422 239.516 266.422L248.177 286.166L271.146 292.016C271.146 292.016 272.677 292.341 275.151 292.873C275.073 293.344 274.993 293.815 274.912 294.283C273.805 300.572 272.351 306.356 270.582 307.921C266.251 311.76 266.44 328.945 266.44 328.945L266.628 353.26C266.628 353.26 268.134 383.241 267.381 384.338C266.906 385.031 267.859 386.16 270.376 387.174C270.304 387.626 270.234 388.083 270.167 388.55C269.459 393.523 269.143 399.198 270.77 401.706C271.476 403.062 271.863 404.563 271.9 406.093C271.9 408.47 275.477 413.406 275.477 413.406C275.477 413.406 272.653 433.699 277.36 440.646C282.066 447.592 286.02 460.207 283.761 463.132C283.761 463.132 279.807 471.724 281.69 475.563C283.573 479.402 281.69 481.596 279.242 482.51C276.795 483.425 277.006 490.92 277.006 490.92L281.502 526.569C281.502 526.569 283.949 533.882 281.878 536.441C279.807 539.001 279.807 551.798 283.008 556.185C286.209 560.573 278.489 568.617 278.489 568.617C278.489 568.617 273.782 575.381 281.313 577.575C281.313 577.575 282.82 577.94 279.995 580.865C277.171 583.79 276.606 587.447 278.489 588.726C278.88 588.961 279.288 589.165 279.71 589.335C279.641 589.768 279.565 590.217 279.476 590.694C278.753 594.511 277.39 599.483 274.912 601.889C270.11 606.826 265.966 612.366 262.584 618.372C260 623.286 258.871 627.886 261.733 630.043C268.511 635.162 277.171 636.807 282.255 634.796C287.338 632.785 294.493 626.569 294.493 626.569L296.187 619.44C296.187 619.44 295.058 615.052 300.706 613.407C306.354 611.761 311.626 605.911 311.626 605.911V596.434C312.993 595.65 314.314 594.786 315.58 593.845C315.58 593.845 318.216 584.522 315.58 581.414C312.944 578.306 312.002 577.209 315.391 575.198C318.78 573.187 319.24 568.8 316.755 564.96C314.262 561.121 310.308 555.454 313.697 547.41C317.086 539.366 318.329 514.686 318.329 514.686C318.329 514.686 316.747 497.867 318.329 494.028C319.91 490.189 316.521 482.51 316.521 482.51C316.521 482.51 317.651 473.004 319.722 468.616C321.793 464.229 323.487 441.011 323.487 441.011C323.487 441.011 327.253 431.139 327.253 424.741C327.253 418.342 321.416 402.986 330.077 398.964C330.077 398.964 333.843 402.254 332.336 415.417C332.336 415.417 336.667 430.774 336.667 435.527C336.667 440.28 339.867 457.465 339.867 457.465C339.867 457.465 340.244 462.949 341.562 464.96C342.88 466.971 341.562 472.456 341.562 472.456C341.562 472.456 346.457 477.026 345.139 479.951C343.821 482.876 345.365 489.472 345.365 489.472L344.198 530.408C344.198 530.408 340.809 547.959 348.716 558.562C348.716 558.562 345.892 574.101 344.198 575.198C342.503 576.295 350.411 585.802 350.411 585.802C350.411 585.802 348.219 591.96 352.67 592.262V602.438C354.216 605.177 356.335 607.548 358.883 609.385C363.026 612.31 361.331 622.365 361.331 622.365C361.331 622.365 366.603 635.162 380.535 632.42C394.468 629.677 396.351 628.398 395.597 623.827C395.326 622.16 394.724 619.184 393.858 615.805C392.359 609.933 390.062 602.847 387.313 599.352C382.983 593.845 379.406 582.328 379.406 582.328C379.406 582.328 377.711 578.489 379.406 577.209C381.1 575.93 380.347 573.553 380.347 573.553C380.347 573.553 381.996 568.8 380.513 565.875C379.029 562.95 383.359 556.917 383.359 556.917L382.041 528.763L383.359 487.812C383.359 487.812 377.523 481.048 379.97 477.026C382.418 473.004 377.146 467.337 377.146 467.337C377.146 467.337 376.581 467.154 378.088 462.584C378.989 459.89 378.855 456.956 377.711 454.357C377.711 454.357 374.51 443.022 380.159 434.43C380.159 434.43 382.606 423.095 383.359 417.245C383.879 413.18 387.133 397.991 389.068 389.106C389.177 388.604 389.282 388.123 389.383 387.664C392.171 387.817 394.279 387.995 394.279 387.995C394.279 387.995 389.949 357.83 394.279 351.614C398.61 345.399 390.89 297.866 390.89 297.866C390.89 297.866 389.045 289.559 387.908 281.084C387.843 280.601 387.784 280.119 387.724 279.636C391.22 279.356 394.729 279.278 398.233 279.402C407.271 279.951 416.12 276.477 416.308 273.004C416.496 269.53 421.391 255.819 422.144 252.711C422.898 249.603 423.462 239 422.144 236.44Z" fill="url(#paint0_linear)"/>
<path d="M312.285 589.113V606.041C312.285 606.041 307.205 611.866 301.763 613.504C296.32 615.142 297.409 619.51 297.409 619.51L295.776 626.609C295.776 626.609 288.882 632.798 283.984 634.8C279.086 636.802 270.74 635.164 264.209 630.067C261.452 627.92 262.54 623.34 265.029 618.447C268.272 612.489 272.265 606.974 276.909 602.037C279.296 599.641 280.61 594.69 281.306 590.89C281.822 588.043 281.988 585.837 281.988 585.837L312.285 589.113Z" fill="white"/>
<path opacity="0.1" d="M312.285 601.746V606.041C312.285 606.041 307.205 611.866 301.763 613.504C296.32 615.142 297.409 619.511 297.409 619.511L295.776 626.609C295.776 626.609 288.882 632.798 283.984 634.8C279.086 636.802 270.74 635.164 264.209 630.068C261.452 627.92 262.54 623.34 265.029 618.448C264.913 623.588 266.43 629.362 273.825 629.158C281.806 628.904 289.497 626.098 295.776 621.149C295.776 621.149 295.595 609.136 303.94 606.405C306.99 605.395 309.822 603.814 312.285 601.746Z" fill="black"/>
<path d="M378.684 632.434C365.259 635.164 360.179 622.423 360.179 622.423C360.179 622.423 361.812 612.412 357.821 609.5C355.353 607.653 353.311 605.294 351.834 602.583V585.837L368.162 574.188L377 582.037L377.595 582.561C377.595 582.561 381.042 594.028 385.215 599.51C387.863 602.991 390.077 610.046 391.521 615.892C392.355 619.256 392.936 622.219 393.197 623.879C393.923 628.43 392.109 629.704 378.684 632.434Z" fill="white"/>
<path opacity="0.1" d="M378.684 632.434C365.259 635.164 360.179 622.422 360.179 622.422C360.179 622.422 361.812 612.411 357.821 609.499C355.353 607.652 353.311 605.293 351.834 602.582V596.095C354.425 598.84 359.308 604.155 360.361 606.405C361.812 609.499 361.993 620.784 368.706 622.787C375.418 624.789 388.48 626.609 389.569 621.512C390.021 619.575 390.676 617.691 391.521 615.892C392.355 619.255 392.936 622.219 393.197 623.879C393.923 628.429 392.109 629.703 378.684 632.434Z" fill="black"/>
<path opacity="0.1" d="M281.988 585.837L312.285 589.113V598.061C308.867 600.093 303.969 602.248 301.219 600.034C297.155 596.773 285.072 592.63 281.306 590.89C281.821 588.043 281.988 585.837 281.988 585.837Z" fill="black"/>
<path opacity="0.1" d="M377.595 584.017C373.423 582.561 365.985 588.932 356.188 592.936C354.826 593.58 353.339 593.913 351.834 593.912V585.837L368.162 574.188L377 582.037C377.137 582.714 377.336 583.377 377.595 584.017Z" fill="black"/>
<path d="M388.299 383.613C388.299 383.613 387.726 386.293 386.906 390.181C385.041 399.027 381.906 414.149 381.405 418.197C380.679 424.022 378.321 435.307 378.321 435.307C372.878 443.862 375.963 455.147 375.963 455.147C377.066 457.744 377.195 460.653 376.325 463.338C374.874 467.888 375.418 468.07 375.418 468.07C375.418 468.07 380.498 473.713 378.14 477.717C375.781 481.722 381.405 488.456 381.405 488.456L380.135 529.229L381.405 557.26C381.405 557.26 377.232 563.266 378.662 566.178C380.092 569.091 378.502 573.823 378.502 573.823C378.502 573.823 379.228 576.189 377.595 577.464C375.963 578.738 377.595 582.56 377.595 582.56C373.423 581.104 365.985 587.475 356.188 591.479C346.392 595.484 349.657 586.019 349.657 586.019C349.657 586.019 342.038 576.554 343.67 575.461C345.303 574.369 348.024 558.898 348.024 558.898C340.405 548.341 343.67 530.867 343.67 530.867L344.795 490.109C344.795 490.109 343.307 483.542 344.577 480.63C345.847 477.717 341.13 473.167 341.13 473.167C341.13 473.167 342.4 467.706 341.13 465.704C339.86 463.702 339.498 458.241 339.498 458.241C339.498 458.241 336.414 441.132 336.414 436.399C336.414 431.667 332.241 416.377 332.241 416.377C333.692 403.272 330.064 399.995 330.064 399.995C321.719 404 327.343 419.289 327.343 425.66C327.343 432.031 323.714 441.86 323.714 441.86C323.714 441.86 322.082 464.976 320.086 469.344C318.09 473.713 317.002 483.178 317.002 483.178C317.002 483.178 320.267 490.823 318.744 494.645C317.22 498.468 318.744 515.213 318.744 515.213C318.744 515.213 317.546 539.786 314.281 547.795C311.015 555.803 314.825 561.446 317.227 565.268C319.622 569.091 319.179 573.459 315.913 575.462C312.648 577.464 313.555 578.556 316.095 581.65C318.635 584.744 316.095 594.027 316.095 594.027C316.095 594.027 305.754 602.218 301.219 598.578C296.683 594.937 282.17 590.205 280.356 588.931C278.541 587.657 279.086 584.016 281.807 581.104C284.528 578.192 283.077 577.828 283.077 577.828C275.82 575.643 280.356 568.909 280.356 568.909C280.356 568.909 287.794 560.9 284.71 556.531C281.626 552.163 281.626 539.422 283.621 536.873C285.617 534.325 283.258 527.044 283.258 527.044L278.926 491.551C278.926 491.551 278.723 484.088 281.081 483.178C283.44 482.268 285.254 480.084 283.44 476.261C281.625 472.439 285.435 463.884 285.435 463.884C287.612 460.972 283.802 448.412 279.267 441.496C274.732 434.579 277.453 414.375 277.453 414.375C277.453 414.375 274.006 409.46 274.006 407.094C273.972 405.575 273.6 404.082 272.917 402.726C271.35 400.228 271.655 394.578 272.337 389.627C272.997 384.837 274.006 380.701 274.006 380.701L388.299 383.613Z" fill="#2F2E41"/>
<path d="M352.741 177.387L317.002 185.76C317.002 185.76 299.405 170.834 303.759 162.825C305.253 160.073 305.914 155.377 306.139 150.412C306.313 146.531 306.219 142.476 306.052 139.046C305.798 134.088 305.391 130.426 305.391 130.426C305.391 130.426 342.038 109.676 340.768 130.426C340.51 133.881 340.59 137.354 341.007 140.794C341.266 143.241 341.977 145.619 343.104 147.805C345.064 151.307 347.48 151.358 347.48 151.358L352.741 177.387Z" fill="#EED7DB"/>
<path opacity="0.1" d="M341.007 140.794C335.842 144.511 329.574 146.362 323.225 146.045C316.877 145.727 310.823 143.26 306.052 139.046C305.798 134.088 305.391 130.426 305.391 130.426C305.391 130.426 342.038 109.676 340.768 130.426C340.509 133.881 340.59 137.354 341.007 140.794Z" fill="black"/>
<path d="M324.622 145.351C340.152 145.351 352.741 132.72 352.741 117.138C352.741 101.557 340.152 88.9253 324.622 88.9253C309.091 88.9253 296.502 101.557 296.502 117.138C296.502 132.72 309.091 145.351 324.622 145.351Z" fill="#EED7DB"/>
<path opacity="0.1" d="M352.741 177.387L317.002 185.76C317.002 185.76 299.405 170.834 303.759 162.825C305.253 160.073 305.914 155.377 306.139 150.412C306.928 154.73 309.238 158.619 312.648 161.369C320.812 166.83 319.542 173.565 319.542 173.565L334.237 173.018C333.33 167.012 338.772 163.735 340.586 163.007C342.4 162.279 341.493 159.003 341.493 159.003L343.104 147.805C345.064 151.307 347.48 151.358 347.48 151.358L352.741 177.387Z" fill="black"/>
<path opacity="0.1" d="M388.299 383.613C388.299 383.613 387.726 386.293 386.906 390.181C382.958 389.97 377.741 389.817 375.418 390.348C371.427 391.258 355.463 391.622 355.463 391.622L315.914 393.027V391.804C311.364 391.841 306.821 392.145 302.307 392.714C295.595 393.625 285.073 392.35 278.36 391.258C276.294 390.961 274.272 390.414 272.337 389.627C272.997 384.837 274.006 380.701 274.006 380.701L388.299 383.613Z" fill="black"/>
<path d="M385.215 268.032C384.642 271.432 385.062 277.068 385.788 282.63C386.884 291.069 388.662 299.339 388.662 299.339C388.662 299.339 396.1 346.664 391.927 352.853C387.755 359.042 391.927 389.075 391.927 389.075C391.927 389.075 379.41 387.983 375.418 388.893C371.427 389.803 355.462 390.167 355.462 390.167L315.913 391.572V390.349C311.364 390.386 306.821 390.69 302.307 391.259C295.595 392.169 285.073 390.895 278.36 389.803C271.648 388.711 268.926 386.526 269.652 385.434C270.378 384.342 268.926 354.491 268.926 354.491L268.745 330.283C268.745 330.283 268.564 313.173 272.736 309.35C274.441 307.792 275.842 302.033 276.909 295.772C278.44 286.707 279.267 276.587 279.267 276.587L251.692 202.505L251.147 201.049C251.147 201.049 259.13 188.672 257.86 182.665C256.59 176.659 265.298 171.38 265.298 171.38C265.298 171.38 281.807 164.099 282.895 161.915C283.984 159.731 295.413 159.185 295.413 159.185C295.413 159.185 301.944 155.727 303.069 153.484C303.343 152.858 303.762 152.306 304.29 151.874C304.819 151.442 305.443 151.143 306.11 151.001C306.878 155.372 309.202 159.315 312.648 162.097C320.812 167.558 319.542 174.292 319.542 174.292L334.237 173.746C333.329 167.74 338.772 164.463 340.586 163.735C342.4 163.007 341.493 159.731 341.493 159.731L343.191 147.943C343.975 145.985 349.476 153.484 349.476 153.484C349.476 153.484 363.445 158.275 364.352 158.639C365.259 159.003 377.051 162.643 377.051 162.643C377.051 162.643 391.564 172.108 391.564 174.475C391.564 176.841 399.547 189.582 399.547 189.582C399.547 189.582 399.453 190.092 399.278 191.024C397.435 201.057 386.543 260.205 385.215 268.032Z" fill="white"/>
<path d="M327.161 238.545C327.161 238.545 295.776 230.172 292.692 228.17C289.608 226.168 271.466 237.817 293.599 253.653C293.599 253.653 320.663 259.295 327.904 253.653C335.144 248.01 327.161 238.545 327.161 238.545Z" fill="#EED7DB"/>
<path opacity="0.1" d="M395.011 188.672L398.821 188.854L410.069 219.069C410.069 219.069 416.782 234.905 418.051 237.453C419.321 240.001 418.777 250.558 418.051 253.653C417.326 256.747 412.609 270.398 412.428 273.857C412.246 277.315 403.72 280.773 395.011 280.227C386.303 279.681 365.985 282.412 365.985 282.412C365.985 282.412 344.285 280.136 330.971 286.962C330.971 286.962 322.445 269.306 323.352 236.361C323.352 236.361 338.409 235.451 342.219 236.907C346.029 238.363 364.533 242.549 366.892 240.365C369.25 238.181 379.954 244.37 379.954 244.37C380.499 243.169 380.78 241.866 380.78 240.547C380.78 239.229 380.499 237.925 379.954 236.725C378.14 232.356 375.056 218.705 379.047 214.337C383.038 209.968 395.011 188.672 395.011 188.672Z" fill="black"/>
<path opacity="0.1" d="M385.788 282.63C376.783 283.242 366.71 284.596 366.71 284.596C366.71 284.596 345.013 282.317 331.697 289.147C331.697 289.147 323.17 271.491 324.077 238.545C324.077 238.545 339.135 237.635 342.945 239.091C346.754 240.548 365.259 244.734 367.617 242.55C369.976 240.366 380.679 246.554 380.679 246.554C381.224 245.354 381.506 244.051 381.506 242.732C381.506 241.413 381.224 240.11 380.679 238.909C378.865 234.541 375.781 220.89 379.772 216.521C383.764 212.153 395.737 190.856 395.737 190.856L399.278 191.024C397.435 201.057 386.543 260.206 385.215 268.032C384.642 271.433 385.062 277.068 385.788 282.63Z" fill="black"/>
<path d="M395.737 189.399L399.547 189.581L410.795 219.797C410.795 219.797 417.507 235.632 418.777 238.18C420.047 240.729 419.503 251.286 418.777 254.38C418.051 257.474 413.335 271.126 413.153 274.584C412.972 278.043 404.445 281.501 395.737 280.955C387.029 280.409 366.71 283.139 366.71 283.139C366.71 283.139 345.01 280.864 331.697 287.69C331.697 287.69 323.17 270.034 324.077 237.088C324.077 237.088 339.135 236.178 342.945 237.634C346.754 239.091 365.259 243.277 367.617 241.093C369.976 238.909 380.679 245.097 380.679 245.097C381.224 243.897 381.506 242.594 381.506 241.275C381.506 239.956 381.224 238.653 380.679 237.452C378.865 233.084 375.781 219.433 379.772 215.064C383.764 210.696 395.737 189.399 395.737 189.399Z" fill="white"/>
<path d="M357.409 256.257L361.935 259.069L387.161 218.194L382.635 215.381L357.409 256.257Z" fill="#DFE6F5"/>
<path d="M400.096 212.658C404.555 205.434 404.075 197.034 399.025 193.897C393.975 190.76 386.266 194.073 381.808 201.297C377.35 208.521 377.83 216.92 382.88 220.058C387.93 223.195 395.638 219.882 400.096 212.658Z" fill="#DFE6F5"/>
<path opacity="0.1" d="M397.516 211.056C400.716 205.87 400.372 199.841 396.747 197.589C393.122 195.337 387.589 197.715 384.389 202.901C381.189 208.086 381.533 214.115 385.158 216.367C388.783 218.619 394.316 216.241 397.516 211.056Z" fill="black"/>
<path d="M344.515 277.15L349.042 279.962L364.738 254.528L360.211 251.716L344.515 277.15Z" fill="#53526B"/>
<path d="M317.909 278.953L328.975 275.859C328.975 275.859 383.582 277.315 365.259 254.744C365.259 254.744 355.644 245.461 335.506 252.924C315.369 260.387 309.745 261.297 309.745 261.297L317.909 278.953Z" fill="#EED7DB"/>
<path opacity="0.1" d="M309.745 183.757C310.948 183.757 311.922 182.779 311.922 181.573C311.922 180.367 310.948 179.389 309.745 179.389C308.543 179.389 307.568 180.367 307.568 181.573C307.568 182.779 308.543 183.757 309.745 183.757Z" fill="black"/>
<path opacity="0.1" d="M347.117 182.483C348.32 182.483 349.294 181.505 349.294 180.299C349.294 179.093 348.32 178.115 347.117 178.115C345.915 178.115 344.94 179.093 344.94 180.299C344.94 181.505 345.915 182.483 347.117 182.483Z" fill="#3BB9E0"/>
<path d="M309.745 183.029C310.948 183.029 311.922 182.051 311.922 180.844C311.922 179.638 310.948 178.66 309.745 178.66C308.543 178.66 307.568 179.638 307.568 180.844C307.568 182.051 308.543 183.029 309.745 183.029Z" fill="#3BB9E0"/>
<path opacity="0.1" d="M312.829 213.972C314.032 213.972 315.006 212.994 315.006 211.788C315.006 210.581 314.032 209.604 312.829 209.604C311.627 209.604 310.652 210.581 310.652 211.788C310.652 212.994 311.627 213.972 312.829 213.972Z" fill="black"/>
<path opacity="0.1" d="M348.206 211.788C349.408 211.788 350.383 210.81 350.383 209.604C350.383 208.398 349.408 207.42 348.206 207.42C347.003 207.42 346.029 208.398 346.029 209.604C346.029 210.81 347.003 211.788 348.206 211.788Z" fill="black"/>
<path d="M312.829 213.244C314.032 213.244 315.006 212.267 315.006 211.06C315.006 209.854 314.032 208.876 312.829 208.876C311.627 208.876 310.652 209.854 310.652 211.06C310.652 212.267 311.627 213.244 312.829 213.244Z" fill="#3BB9E0"/>
<path opacity="0.1" d="M347.299 317.19C348.501 317.19 349.476 316.212 349.476 315.006C349.476 313.799 348.501 312.821 347.299 312.821C346.096 312.821 345.122 313.799 345.122 315.006C345.122 316.212 346.096 317.19 347.299 317.19Z" fill="black"/>
<path opacity="0.1" d="M318.647 317.19C319.85 317.19 320.824 316.212 320.824 315.006C320.824 313.799 319.85 312.821 318.647 312.821C317.445 312.821 316.47 313.799 316.47 315.006C316.47 316.212 317.445 317.19 318.647 317.19Z" fill="black"/>
<path d="M347.299 316.461C348.501 316.461 349.476 315.483 349.476 314.277C349.476 313.071 348.501 312.093 347.299 312.093C346.096 312.093 345.122 313.071 345.122 314.277C345.122 315.483 346.096 316.461 347.299 316.461Z" fill="#3BB9E0"/>
<path opacity="0.1" d="M320.824 353.762C322.027 353.762 323.001 352.785 323.001 351.578C323.001 350.372 322.027 349.394 320.824 349.394C319.622 349.394 318.647 350.372 318.647 351.578C318.647 352.785 319.622 353.762 320.824 353.762Z" fill="black"/>
<path opacity="0.1" d="M348.206 351.579C349.408 351.579 350.383 350.601 350.383 349.395C350.383 348.188 349.408 347.21 348.206 347.21C347.003 347.21 346.029 348.188 346.029 349.395C346.029 350.601 347.003 351.579 348.206 351.579Z" fill="black"/>
<path d="M320.824 353.035C322.027 353.035 323.001 352.057 323.001 350.851C323.001 349.644 322.027 348.667 320.824 348.667C319.622 348.667 318.647 349.644 318.647 350.851C318.647 352.057 319.622 353.035 320.824 353.035Z" fill="#3BB9E0"/>
<path d="M318.647 316.461C319.85 316.461 320.824 315.483 320.824 314.277C320.824 313.071 319.85 312.093 318.647 312.093C317.445 312.093 316.47 313.071 316.47 314.277C316.47 315.483 317.445 316.461 318.647 316.461Z" fill="#3BB9E0"/>
<path d="M348.206 350.85C349.408 350.85 350.383 349.872 350.383 348.666C350.383 347.46 349.408 346.482 348.206 346.482C347.003 346.482 346.029 347.46 346.029 348.666C346.029 349.872 347.003 350.85 348.206 350.85Z" fill="#3BB9E0"/>
<path d="M347.117 181.755C348.32 181.755 349.294 180.777 349.294 179.57C349.294 178.364 348.32 177.386 347.117 177.386C345.915 177.386 344.94 178.364 344.94 179.57C344.94 180.777 345.915 181.755 347.117 181.755Z" fill="#3BB9E0"/>
<path d="M348.206 211.06C349.408 211.06 350.383 210.082 350.383 208.876C350.383 207.669 349.408 206.691 348.206 206.691C347.003 206.691 346.029 207.669 346.029 208.876C346.029 210.082 347.003 211.06 348.206 211.06Z" fill="#3BB9E0"/>
<path opacity="0.1" d="M351.471 285.506C351.471 285.506 351.834 335.379 352.923 344.298C352.923 344.298 353.318 287.857 351.471 285.506Z" fill="black"/>
<path opacity="0.1" d="M360.723 308.623C359.975 308.623 375.6 367.051 376.325 371.237C377.051 375.424 365.077 308.623 360.723 308.623Z" fill="black"/>
<path opacity="0.1" d="M373.06 299.157C373.06 299.703 381.768 330.829 386.122 332.467C390.476 334.105 373.06 299.157 373.06 299.157Z" fill="black"/>
<path opacity="0.1" d="M407.348 238.545C407.348 238.545 388.843 239.372 388.299 242.053C387.755 244.734 407.348 238.545 407.348 238.545Z" fill="black"/>
<path opacity="0.1" d="M374.693 475.897C374.693 475.897 361.449 481.54 363.445 481.904C365.44 482.268 374.693 475.897 374.693 475.897Z" fill="black"/>
<path opacity="0.1" d="M347.299 467.525C346.783 466.36 356.188 472.257 356.188 472.985C356.188 473.713 348.024 469.163 347.299 467.525Z" fill="black"/>
<path opacity="0.1" d="M359.635 486.636C359.635 486.636 369.976 486.113 370.701 490.106C371.427 494.099 359.635 486.636 359.635 486.636Z" fill="black"/>
<path opacity="0.1" d="M285.254 486.614C285.254 486.614 296.502 484.407 297.409 486.614C298.316 488.821 285.254 486.614 285.254 486.614Z" fill="black"/>
<path opacity="0.1" d="M289.427 555.258C289.427 555.258 290.164 564.541 287.437 566.725C284.71 568.909 289.427 555.258 289.427 555.258Z" fill="black"/>
<path opacity="0.1" d="M288.053 574.915C291.603 575.279 310.289 572.003 310.108 574.915C309.927 577.828 288.053 574.915 288.053 574.915Z" fill="black"/>
<path opacity="0.1" d="M373.786 563.63C373.786 563.63 367.412 562.648 368.966 566.961L373.786 563.63Z" fill="black"/>
<path opacity="0.1" d="M255.32 200.32H251.873L246.612 219.614C246.612 219.614 244.798 226.349 242.984 227.987C241.169 229.625 244.616 244.551 244.616 244.551C244.616 244.551 242.621 255.108 240.988 257.838C239.355 260.569 243.528 267.303 243.528 267.303L251.873 286.961L274.006 292.786C274.006 292.786 313.011 301.341 314.825 302.615C316.639 303.889 318.272 302.069 319.542 290.238C320.812 278.407 324.259 255.472 326.98 254.38C326.98 254.38 305.21 256.746 303.396 256.382C301.581 256.018 292.873 256.564 292.873 256.564C292.873 256.564 281.444 255.836 279.63 256.928C277.816 258.02 281.988 251.642 281.988 251.642C282.752 248.721 282.752 245.652 281.988 242.731C280.718 237.816 279.993 182.118 255.32 200.32Z" fill="black"/>
<path opacity="0.1" d="M326.254 256.565C323.533 257.657 320.086 280.591 318.816 292.422C317.546 304.254 315.913 306.074 314.099 304.8C312.626 303.766 286.625 297.927 276.909 295.771C278.44 286.707 279.267 276.587 279.267 276.587L251.692 202.505H254.594C279.267 184.303 279.993 240.001 281.263 244.915C282.027 247.836 282.027 250.906 281.263 253.827C281.263 253.827 277.09 260.205 278.904 259.113C280.718 258.021 292.148 258.749 292.148 258.749C292.148 258.749 300.856 258.203 302.67 258.567C304.484 258.931 326.254 256.565 326.254 256.565Z" fill="black"/>
<path d="M254.594 201.049H251.147L245.886 220.343C245.886 220.343 244.072 227.078 242.258 228.716C240.444 230.354 243.891 245.279 243.891 245.279C243.891 245.279 241.895 255.837 240.262 258.567C238.629 261.297 242.802 268.032 242.802 268.032L251.147 287.69L273.28 293.514C273.28 293.514 312.285 302.069 314.099 303.344C315.913 304.618 317.546 302.797 318.816 290.966C320.086 279.135 323.533 256.201 326.254 255.109C326.254 255.109 304.484 257.475 302.67 257.111C300.856 256.747 292.148 257.293 292.148 257.293C292.148 257.293 280.718 256.565 278.904 257.657C277.09 258.749 281.263 252.37 281.263 252.37C282.026 249.449 282.026 246.38 281.263 243.459C279.993 238.545 279.267 182.847 254.594 201.049Z" fill="white"/>
<path opacity="0.1" d="M266.386 266.94C266.386 266.94 256.408 285.87 254.594 283.686C252.78 281.502 266.386 266.94 266.386 266.94Z" fill="black"/>
<path opacity="0.1" d="M256.046 256.16C256.046 256.16 246.793 263.845 251.147 265.848C255.501 267.85 256.046 256.16 256.046 256.16Z" fill="black"/>
<path opacity="0.1" d="M264.754 246.736C265.479 246.918 278.179 249.449 278.36 250.55C278.541 251.651 264.754 246.736 264.754 246.736Z" fill="black"/>
<path opacity="0.1" d="M352.821 113.396C352.426 113.535 352.09 113.803 351.865 114.157C351.64 114.51 351.54 114.93 351.58 115.347C350.84 116.002 349.802 115.231 349.2 114.393C348.59 113.563 347.901 112.537 346.979 112.653C346.542 112.793 346.117 112.971 345.709 113.185C344.258 113.651 343.032 111.94 342.219 110.44C340.804 107.812 339.389 105.186 337.974 102.562C335.136 104.215 331.784 102.482 328.968 100.771C326.153 99.06 322.8 97.32 319.955 98.9727C315.783 101.39 315.63 109.45 311.305 111.437C309.912 112.078 308.294 111.94 307.002 112.821C305.725 113.694 305.036 115.376 304.462 116.985C304.25 117.901 303.752 118.725 303.04 119.337C302.588 119.574 302.084 119.697 301.574 119.694C300.292 119.912 298.973 119.727 297.801 119.162C297.186 118.775 296.721 118.188 296.484 117.5C296.246 116.811 296.25 116.062 296.494 115.376C296.529 115.304 296.568 115.233 296.611 115.165C297.075 114.601 297.493 114 297.859 113.367C298.294 112.209 297.67 110.862 297.808 109.61C298.033 107.469 300.29 106.341 300.674 104.237C300.834 103.414 300.667 102.533 300.819 101.703C300.841 101.594 300.87 101.487 300.907 101.383L299.579 102.3C301.066 100.56 301.814 98.1427 302.902 96.0313C304.111 93.7195 305.775 91.6778 307.793 90.0296C309.811 88.3815 312.142 87.1612 314.643 86.4425C319.375 85.0592 324.375 85.4378 329.15 86.61C333.69 87.7449 338.04 89.543 342.059 91.9467C343.495 92.7194 344.771 93.7597 345.818 95.012C346.696 96.3103 347.442 97.6932 348.046 99.1401C349.454 102.067 353.3 104.775 350.238 105.183C347.69 105.525 350.013 107.316 351.348 108.525C351.649 108.762 351.909 109.047 352.117 109.37C352.339 109.83 352.44 110.339 352.412 110.85C352.384 111.361 352.228 111.856 351.957 112.289C351.442 112.944 353.532 113.076 352.821 113.396Z" fill="black"/>
<path d="M352.821 112.667C352.426 112.807 352.09 113.075 351.865 113.428C351.64 113.782 351.54 114.201 351.58 114.619C350.84 115.274 349.802 114.502 349.2 113.665C348.59 112.835 347.901 111.808 346.979 111.925C346.542 112.065 346.117 112.243 345.709 112.456C344.258 112.922 343.032 111.211 342.219 109.711C340.804 107.083 339.389 104.457 337.974 101.834C335.136 103.486 331.784 101.754 328.968 100.043C326.153 98.3315 322.8 96.5915 319.955 98.2442C315.783 100.661 315.63 108.721 311.305 110.709C309.912 111.35 308.294 111.211 307.002 112.092C305.725 112.966 305.036 114.648 304.462 116.257C304.25 117.173 303.752 117.997 303.04 118.608C302.588 118.846 302.084 118.968 301.574 118.965C300.292 119.184 298.973 118.998 297.801 118.434C297.186 118.046 296.721 117.46 296.484 116.771C296.246 116.083 296.25 115.334 296.494 114.648C296.529 114.575 296.568 114.505 296.611 114.437C297.075 113.873 297.493 113.271 297.859 112.638C298.294 111.481 297.67 110.134 297.808 108.881C298.033 106.741 300.29 105.612 300.674 103.508C300.834 102.685 300.667 101.805 300.819 100.975C300.841 100.866 300.87 100.759 300.907 100.654L299.579 101.572C301.066 99.8314 301.814 97.4142 302.902 95.3028C304.111 92.991 305.775 90.9493 307.793 89.3012C309.811 87.653 312.142 86.4327 314.643 85.714C319.375 84.3307 324.375 84.7092 329.15 85.8815C333.69 87.0164 338.04 88.8145 342.059 91.2183C343.495 91.9909 344.771 93.0312 345.818 94.2835C346.696 95.5819 347.442 96.9647 348.046 98.4116C349.454 101.339 353.3 104.047 350.238 104.455C347.69 104.797 350.013 106.588 351.348 107.797C351.649 108.034 351.909 108.319 352.117 108.641C352.339 109.102 352.44 109.611 352.412 110.122C352.384 110.632 352.228 111.127 351.957 111.561C351.442 112.216 353.532 112.347 352.821 112.667Z" fill="#865A61"/>
<path opacity="0.1" d="M351.348 107.797L351.058 110.862C351.058 110.862 320.609 72.1427 296.923 115.864C296.923 115.864 296.807 115.332 296.611 114.437C297.076 113.873 297.493 113.271 297.859 112.638C298.294 111.481 297.67 110.134 297.808 108.881C298.033 106.741 300.29 105.612 300.674 103.508C300.834 102.685 300.667 101.805 300.82 100.975C300.841 100.866 300.87 100.759 300.907 100.654L299.579 101.572C301.066 99.8314 301.814 97.4142 302.902 95.3028C304.111 92.991 305.775 90.9493 307.794 89.3012C309.812 87.653 312.142 86.4327 314.644 85.714C319.375 84.3307 324.375 84.7092 329.15 85.8815C333.69 87.0164 338.04 88.8145 342.059 91.2183C343.495 91.9909 344.771 93.0312 345.818 94.2835C346.696 95.5819 347.442 96.9647 348.046 98.4116C349.454 101.339 353.3 104.047 350.238 104.455C347.691 104.797 350.013 106.588 351.348 107.797Z" fill="black"/>
<g opacity="0.1">
<path opacity="0.1" d="M352.099 112.271C351.949 112.44 351.839 112.642 351.78 112.861C351.72 113.079 351.711 113.309 351.754 113.531C351.013 114.186 349.976 113.415 349.373 112.577C348.764 111.747 348.075 110.721 347.153 110.837C346.715 110.977 346.29 111.155 345.883 111.369C344.432 111.835 343.205 110.124 342.392 108.624C340.977 105.996 339.562 103.37 338.147 100.746C335.31 102.399 331.957 100.666 329.142 98.9551C326.326 97.2441 322.974 95.504 320.129 97.1568C315.956 99.574 315.804 107.634 311.479 109.621C310.086 110.262 308.467 110.124 307.176 111.005C305.898 111.878 305.209 113.56 304.636 115.169C304.424 116.085 303.925 116.909 303.214 117.521C302.761 117.758 302.258 117.881 301.748 117.878C300.465 118.096 299.147 117.911 297.974 117.346C297.271 116.879 296.767 116.165 296.56 115.345C296.416 115.997 296.474 116.678 296.727 117.296C296.98 117.914 297.415 118.44 297.974 118.802C299.147 119.367 300.465 119.553 301.748 119.334C302.258 119.337 302.761 119.214 303.214 118.977C303.925 118.365 304.424 117.541 304.636 116.626C305.209 115.016 305.898 113.335 307.176 112.461C308.467 111.58 310.086 111.718 311.479 111.078C315.804 109.09 315.956 101.03 320.129 98.6129C322.974 96.9602 326.326 98.7003 329.142 100.411C331.957 102.122 335.31 103.855 338.147 102.202C339.562 104.823 340.977 107.449 342.392 110.08C343.205 111.58 344.432 113.291 345.883 112.825C346.29 112.611 346.715 112.434 347.153 112.293C348.075 112.177 348.764 113.204 349.373 114.034C349.976 114.871 351.013 115.643 351.754 114.987C351.713 114.57 351.814 114.151 352.039 113.797C352.263 113.443 352.6 113.175 352.995 113.036C353.56 112.781 352.357 112.645 352.099 112.271Z" fill="black"/>
<path opacity="0.1" d="M349.726 104.997C349.946 104.908 350.176 104.85 350.411 104.823C351.761 104.644 351.767 104.016 351.232 103.12C350.978 103.258 350.699 103.342 350.411 103.367C348.954 103.563 349.092 104.233 349.726 104.997Z" fill="black"/>
<path opacity="0.1" d="M352.506 111.096C352.607 110.626 352.604 110.14 352.498 109.672C352.434 109.962 352.308 110.235 352.131 110.473C351.903 110.762 352.183 110.949 352.506 111.096Z" fill="black"/>
<path opacity="0.1" d="M298.023 108.999C298.008 109.082 297.99 109.164 297.981 109.25C297.952 109.906 297.999 110.563 298.123 111.208C298.209 110.471 298.175 109.725 298.023 108.999Z" fill="black"/>
<path opacity="0.1" d="M300.97 100.115C300.628 100.764 300.22 101.376 299.752 101.94L300.923 101.131C300.918 100.792 300.933 100.453 300.97 100.115Z" fill="black"/>
</g>
<path d="M296.921 115.136C296.921 115.136 292.542 95.4972 293.936 92.3475C293.936 92.3475 290.154 84.5661 290.154 82.7133C289.971 79.6217 289.012 76.6265 287.368 74.0055C285.377 70.8559 283.188 56.2193 295.13 52.6991C307.072 49.1789 316.227 46.0292 317.62 43.6207C319.013 41.2122 339.514 42.6943 345.086 51.958C350.659 61.2216 354.242 59.3689 354.242 59.3689C354.242 59.3689 362.8 64.7418 362.8 69.5589C362.8 74.376 360.213 76.7846 362.8 77.8962C365.387 79.0079 363.397 99.0174 352.052 99.5732L351.057 110.134C351.057 110.134 320.606 71.4117 296.921 115.136Z" fill="#3BB9E0"/>
<path opacity="0.1" d="M298.225 56.5259C298.225 56.5259 295.595 71.9975 300.402 77.185L298.225 56.5259Z" fill="black"/>
<path opacity="0.1" d="M310.561 52.9766C310.561 52.9766 303.849 69.5403 305.482 72.7256L310.561 52.9766Z" fill="black"/>
<path opacity="0.1" d="M355.1 77.9136C355.1 77.9136 348.75 81.0079 349.929 82.6461L355.1 77.9136Z" fill="black"/>
<path opacity="0.1" d="M293.936 92.3475C293.936 92.3475 334.492 75.8194 352.052 99.5732C352.052 99.5732 330.737 81.3901 293.936 92.3475Z" fill="black"/>
<path d="M316.394 237.867C316.394 237.867 292.621 229.172 290.285 227.093C287.949 225.014 274.208 237.111 290.972 253.555C290.972 253.555 311.472 259.415 316.956 253.555C322.44 247.696 316.394 237.867 316.394 237.867Z" fill="#EED7DB"/>
<defs>
<linearGradient id="paint0_linear" x1="329.711" y1="635.629" x2="329.711" y2="40" gradientUnits="userSpaceOnUse">
<stop stop-color="#808080" stop-opacity="0.25"/>
<stop offset="0.53514" stop-color="#808080" stop-opacity="0.12"/>
<stop offset="1" stop-color="#808080" stop-opacity="0.1"/>
</linearGradient>
</defs>
</svg>
