<svg width="191" height="557" viewBox="0 0 191 557" fill="none" xmlns="http://www.w3.org/2000/svg">
<path d="M142.516 521.098L142.516 521.099C142.516 521.099 142.201 521.274 141.664 521.546C141.953 521.396 142.237 521.247 142.516 521.098Z" fill="url(#paint0_linear)"/>
<path d="M23.2505 416.301C15.7479 437.871 24.5025 472.885 28.5679 488.514C32.6288 504.147 33.8807 522.904 33.8807 522.904C49.8237 525.403 61.3918 522.276 61.3918 522.276L54.8271 490.08C59.5162 471.009 54.8271 420.053 54.8271 420.053C54.8271 420.053 65.4527 400.358 66.3905 370.348C67.3143 340.806 74.5965 331.259 74.8263 330.964L74.831 330.959C89.8362 338.776 108.907 422.557 108.907 422.557C107.345 442.875 109.221 474.137 115.472 491.018C119.263 501.74 120.857 513.115 120.161 524.465C122.346 526.313 125.384 526.627 128.667 526.097C137.595 524.653 148.296 516.963 148.296 516.963C148.296 516.963 144.858 425.679 142.354 422.242C139.855 418.805 142.354 399.111 142.354 399.111L138.294 367.225C138.294 367.225 138.917 313.14 132.976 303.762C127.851 295.664 126.669 281.433 126.439 277.695C126.407 277.104 126.393 276.776 126.393 276.776L117.347 265.94C117.347 265.94 29.8152 259.375 23.2505 265.94C21.6374 267.553 20.6433 271.215 20.0525 275.829C18.2472 290.009 20.3151 313.14 20.3151 313.14C20.3151 313.14 22.941 330.335 26.6923 347.84C28.9468 358.349 28.9468 369.217 26.6923 379.726C27.9264 392.026 26.7575 404.448 23.2505 416.301Z" fill="#2F2E41"/>
<path d="M28.7226 553.383C32.6287 558.541 55.6054 556.351 59.5161 554.743C61.9029 553.758 61.7247 549.266 61.0776 544.638C60.6696 541.693 60.0694 538.692 59.8256 536.502C59.2019 530.875 61.7012 519.462 61.7012 519.462C61.7012 519.462 56.5432 524.934 55.2958 519.462C54.7481 517.07 52.8244 515.844 50.8336 515.221C48.1547 514.413 45.2747 514.594 42.7178 515.73C38.6582 517.49 31.8822 521.247 33.0975 526.327C34.8184 533.506 28.7225 543.691 28.7225 543.691C28.2491 544.287 27.8652 544.949 27.5831 545.656C27.046 546.924 26.8681 548.316 27.0691 549.679C27.2701 551.042 27.8421 552.324 28.7226 553.383Z" fill="#CBCEDA"/>
<path opacity="0.1" d="M28.7225 553.383C32.6286 558.541 55.6053 556.352 59.516 554.743C61.9028 553.759 61.7246 549.266 61.0775 544.638C58.6108 545.793 54.4143 546.752 47.4195 546.105C45.7867 545.952 44.1459 545.902 42.5068 545.954C37.531 546.178 32.546 546.078 27.5831 545.656C27.046 546.924 26.8681 548.316 27.0691 549.679C27.2701 551.042 27.8421 552.324 28.7225 553.383Z" fill="black"/>
<path opacity="0.1" d="M108.907 422.557C107.345 442.875 109.221 474.137 115.472 491.018C119.263 501.739 120.857 513.114 120.161 524.465C122.346 526.313 125.385 526.627 128.667 526.097C126.782 512.911 118.745 456.103 113.596 411.223C107.735 360.111 80.3032 324.943 80.3032 324.943L74.8311 330.959C89.8363 338.776 108.907 422.557 108.907 422.557Z" fill="black"/>
<path d="M38.1006 94.0032L41.9176 112.76L60.6084 144.177L83.6648 134.33C83.6648 134.33 115.002 101.506 95.3079 96.8168C92.9485 96.312 90.7206 95.3202 88.7666 93.9048C84.9028 90.9882 83.6836 86.7492 83.6648 82.5993C83.8179 77.9468 84.9071 73.373 86.8675 69.1509L46.541 56.4902C48.2057 61.7883 49.1782 67.2795 49.4341 72.8271C49.7437 83.8091 45.6641 89.2204 42.3161 91.7994C41.0704 92.8054 39.6376 93.5545 38.1006 94.0032Z" fill="#FBBEBE"/>
<path opacity="0.1" d="M46.541 56.4902C48.2058 61.7883 49.1782 67.2795 49.4342 72.8271C50.1691 73.7012 50.9518 74.5341 51.7787 75.3218C55.9426 79.2987 61.105 82.0749 66.7186 83.3561C72.3321 84.6373 78.1878 84.3758 83.6648 82.5993C83.8179 77.9468 84.9072 73.373 86.8675 69.1509L46.541 56.4902Z" fill="black"/>
<path d="M41.9177 51.3321C41.9179 57.6383 43.7881 63.8027 47.2918 69.046C50.7954 74.2893 55.7752 78.3759 61.6013 80.789C67.4275 83.2022 73.8384 83.8335 80.0233 82.6032C86.2083 81.3728 91.8895 78.3361 96.3487 73.877C100.808 69.4179 103.844 63.7366 105.075 57.5517C106.305 51.3667 105.674 44.9558 103.261 39.1296C100.848 33.3035 96.7609 28.3237 91.5177 24.8201C86.2744 21.3164 80.1099 19.4463 73.8038 19.446C69.612 19.4304 65.4587 20.2445 61.583 21.8414C57.7074 23.4383 54.1861 25.7864 51.2221 28.7504C48.2581 31.7144 45.9099 35.2357 44.3131 39.1114C42.7162 42.987 41.9021 47.1404 41.9177 51.3321Z" fill="#FBBEBE"/>
<path opacity="0.1" d="M38.1006 94.0032L41.9176 112.76L60.6084 144.177L83.6648 134.33C83.6648 134.33 115.002 101.506 95.3079 96.8167C92.9485 96.312 90.7206 95.3201 88.7666 93.9047C92.3256 103.677 77.644 124.014 77.644 124.014C75.9371 126.527 72.017 124.951 72.017 124.951C62.5637 123.521 45.153 96.3243 42.316 91.7993C41.0703 92.8054 39.6376 93.5544 38.1006 94.0032Z" fill="black"/>
<path opacity="0.1" d="M20.0522 275.829C25.5995 277.09 56.3133 283.894 67.9563 282.192C80.7718 280.317 105.69 279.069 105.69 279.069C105.69 279.069 121.558 279.927 126.439 277.695C126.406 277.104 126.392 276.776 126.392 276.776L117.347 265.94C117.347 265.94 29.815 259.375 23.2503 265.94C21.6372 267.553 20.6431 271.215 20.0522 275.829Z" fill="black"/>
<path d="M77.6458 124.951C77.6458 124.951 94.139 102.101 87.9244 93.2068L115.784 104.632C115.784 104.632 132.553 102.599 138.604 127.624C139.574 131.783 139.923 136.064 139.64 140.325C139.42 144.099 139.933 150.742 144.231 159.338C151.109 173.093 149.546 204.667 135.478 207.793C121.411 210.919 116.409 209.356 116.409 209.356C116.409 209.356 118.285 266.563 126.413 273.128C134.541 279.693 105.69 278.13 105.69 278.13C105.69 278.13 80.7719 279.38 67.9549 281.256C55.138 283.131 19.188 274.691 19.188 274.691C19.188 274.691 24.5023 250.62 26.378 235.302C28.2537 219.984 32.6302 187.367 32.6302 187.367L0.744071 144.177C0.744071 144.177 -4.88293 118.074 14.8115 106.508C34.5058 94.941 41.9174 92.0972 41.9174 92.0972C41.9174 92.0972 61.7027 124.326 72.0188 125.889C72.0188 125.889 75.9377 127.464 77.6458 124.951Z" fill="#3BB9E0"/>
<path opacity="0.1" d="M114.221 134.017C114.221 134.017 114.533 144.333 112.658 148.397C110.782 152.461 103.905 174.969 103.905 174.969H119.535C119.535 174.969 111.095 165.903 111.72 161.527C112.345 157.15 114.221 134.017 114.221 134.017Z" fill="black"/>
<path d="M67.9547 211.857C67.9547 211.857 102.472 203.416 105.689 196.226C108.906 189.036 117.774 172.946 117.774 172.946L114.13 168.039L97.3399 181.221C97.3399 181.221 77.3329 197.164 67.9547 198.727C58.5765 200.29 67.9547 211.857 67.9547 211.857Z" fill="#FBBEBE"/>
<path opacity="0.05" d="M67.9547 211.857C67.9547 211.857 102.472 203.416 105.689 196.226C108.906 189.036 117.774 172.946 117.774 172.946L114.13 168.039L97.3399 181.221C97.3399 181.221 77.3329 197.164 67.9547 198.727C58.5765 200.29 67.9547 211.857 67.9547 211.857Z" fill="black"/>
<path d="M38.1006 171.219V189.947H41.111C55.984 189.947 70.6124 193.733 83.618 200.948L89.259 204.081L90.7783 204.925L100.466 183.097L91.4019 174.97C91.4019 174.97 91.2379 174.989 90.9376 175.013C88.7197 175.228 79.1305 176.03 75.065 174.656C71.2058 173.348 66.4088 169.189 55.0377 172.096C49.4389 173.526 44.656 179.805 39.2213 177.845L38.1006 171.219Z" fill="#FBBEBE"/>
<path opacity="0.1" d="M7.93381 137.144L1.68164 144.177V161.214C1.68164 161.214 6.99599 214.983 23.8769 220.923C40.7577 226.862 70.8924 217.484 70.8924 217.484C70.8924 217.484 78.6752 196.852 75.0343 195.601C71.3934 194.351 42.855 186.813 42.855 186.813C42.855 186.813 43.2586 155.275 37.0064 145.897C37.0064 145.897 41.0703 116.511 27.0029 115.886C12.9356 115.261 7.93381 137.144 7.93381 137.144Z" fill="black"/>
<path d="M6.99631 137.144L0.744141 144.177V161.214C0.744141 161.214 6.05848 214.983 22.9393 220.923C39.8202 226.862 69.9549 217.484 69.9549 217.484C69.9549 217.484 77.7377 196.852 74.0968 195.601C70.4558 194.351 41.9175 186.813 41.9175 186.813C41.9175 186.813 42.3211 155.275 36.0689 145.897C36.0689 145.897 40.1328 116.511 26.0654 115.886C11.9981 115.261 6.99631 137.144 6.99631 137.144Z" fill="#3BB9E0"/>
<path opacity="0.1" d="M50.6628 64.8837C50.3909 62.8271 50.6358 60.7352 51.3756 58.7972C52.2571 56.9309 54.3204 55.4585 56.332 55.9322C59.0095 56.5558 60.163 60.0399 62.7842 60.8745C64.9928 61.5779 67.4077 60.0117 68.4627 57.9438C69.5178 55.8806 69.5459 53.461 69.5506 51.1446C69.5553 48.5328 69.5616 45.9209 69.5694 43.309C69.574 40.4674 69.6585 37.3961 71.4122 35.1641C73.5926 32.3834 78.7132 31.1689 82.1316 31.2814C84.4087 31.3059 86.5932 32.1864 88.2508 33.7479C90.0843 35.3047 92.1991 36.4489 94.6937 36.0409C95.7319 35.8833 96.7043 35.435 97.4984 34.748C98.2925 34.0609 98.8759 33.1631 99.1812 32.1583C99.1912 32.1261 99.1991 32.0932 99.2047 32.0598C96.5451 28.5534 93.1884 25.6355 89.3459 23.4898C85.5034 21.3442 81.2582 20.0173 76.8778 19.5926C72.4973 19.168 68.0764 19.6548 63.8933 21.0224C59.7102 22.3901 55.8555 24.6089 52.5719 27.5392C49.2883 30.4696 46.647 34.048 44.8141 38.0491C42.9812 42.0503 41.9966 46.3876 41.9221 50.788C41.8475 55.1883 42.6848 59.5564 44.3812 63.6174C46.0776 67.6783 48.5963 71.3441 51.7788 74.3839C51.2312 71.2402 50.8586 68.0686 50.6628 64.8837Z" fill="black"/>
<path d="M94.6947 35.1038C95.7329 34.9455 96.7052 34.4968 97.4994 33.8097C98.2936 33.1225 98.8774 32.2249 99.1834 31.2202C99.4462 30.211 99.3771 29.1343 99.6742 28.1346C100.404 25.6786 103.026 24.3979 104.784 22.5336C108.306 18.7966 108.077 12.6483 105.584 8.15871C103.571 4.53542 99.6674 1.47592 95.5837 2.18413C93.0555 2.62259 90.868 4.42484 88.3072 4.58715C85.8418 4.7434 83.5844 3.36235 81.337 2.33678C75.9166 -0.115774 69.8244 -0.656455 64.0568 0.80315C62.2836 1.15596 60.64 1.98497 59.3022 3.20122C58.3932 4.34299 57.5466 5.53306 56.766 6.76622C53.8498 10.4799 48.6342 11.2052 43.9882 12.0481C39.3423 12.8911 34.0842 14.7246 32.5572 19.1927C31.5448 22.1553 32.5269 25.3729 33.1086 28.4493C33.3003 29.0802 33.2562 29.7594 32.9846 30.3603C32.26 31.5591 30.4455 31.0574 29.0745 31.3451C26.4385 31.8983 25.7611 35.2943 25.664 37.9859C25.553 41.0665 25.4693 44.1479 25.413 47.2302C25.338 48.3809 25.4299 49.5365 25.6859 50.6609C26.2597 52.266 27.1656 53.7321 28.3445 54.9633L38.6671 67.3642C43.2439 72.8625 48.1045 79.2713 47.1821 86.3655C49.3515 87.339 51.9277 85.4663 52.6391 83.1973C53.3505 80.9284 52.776 78.484 52.294 76.1555C51.4608 72.13 50.9154 68.0503 50.662 63.9474C50.3893 61.8908 50.6354 59.7986 51.3777 57.8614C52.2568 55.9925 54.3225 54.523 56.3335 54.9933C59.0112 55.6195 60.1634 59.1019 62.7835 59.937C64.9922 60.641 67.4099 59.0724 68.4631 57.0072C69.5164 54.9421 69.5446 52.5249 69.5501 50.2067L69.5686 42.3709C69.5753 39.5317 69.6591 36.4582 71.4113 34.2243C73.5916 31.4448 78.7145 30.2306 82.1336 30.3417C84.4098 30.3684 86.5929 31.249 88.2504 32.8093C90.0849 34.3666 92.1976 35.5106 94.6947 35.1038Z" fill="#A0616A"/>
<path opacity="0.1" d="M87.4929 133.236L77.7031 173.451C77.7031 173.451 69.9868 173.406 87.4929 133.236Z" fill="black"/>
<path opacity="0.1" d="M54.0439 126.515C54.0439 126.515 66.8609 147.505 61.8591 169.209L59.4712 169.383C59.4712 169.383 63.7348 159.339 54.0439 126.515Z" fill="black"/>
<path opacity="0.1" d="M45.916 245.306C45.916 245.306 30.1782 240.101 29.0352 252.183C29.0352 252.183 32.0049 243.899 45.916 245.306Z" fill="black"/>
<path opacity="0.1" d="M91.4003 175.907C91.4003 175.907 94.5264 197.789 88.8994 206.542C88.8994 206.542 100.345 211.232 116.409 210.294L118.285 175.907L91.4003 175.907Z" fill="black"/>
<path opacity="0.1" d="M89.2593 204.081L90.7786 204.925L100.466 183.097L91.4022 174.971H90.9333C90.9338 174.985 90.9354 174.999 90.938 175.013C91.0787 176.021 93.6061 194.815 89.2593 204.081Z" fill="black"/>
<path d="M91.4003 174.969C91.4003 174.969 94.5264 196.851 88.8994 205.604C88.8994 205.604 100.345 210.294 116.409 209.356L127.35 174.969H91.4003Z" fill="#3BB9E0"/>
<path d="M116.439 548.072C116.621 549.631 117.317 551.085 118.415 552.206C119.514 553.327 120.955 554.051 122.51 554.265C131 555.533 151.447 551.767 156.611 554.224C163.176 557.351 189.121 555.162 190.373 552.039C190.55 551.413 190.601 550.759 190.523 550.113C190.446 549.468 190.242 548.844 189.923 548.278C189.035 546.372 187.568 544.795 185.731 543.772C185.133 543.432 184.504 543.152 183.851 542.937C178.965 541.305 169.732 537.845 167.242 534.22C167.242 534.22 155.737 524.153 152.453 518.709C151.837 517.639 150.965 516.737 149.917 516.085C148.869 515.432 147.675 515.047 146.443 514.966C143.705 514.843 140.654 516.221 139.407 522.22C139.407 522.22 124.411 530.778 120.35 523.275C120.35 523.275 119.727 541.801 117.237 544.952C117.232 544.957 117.227 544.967 117.223 544.971C116.894 545.411 116.656 545.911 116.521 546.443C116.387 546.975 116.359 547.529 116.439 548.072Z" fill="#CBCEDA"/>
<path opacity="0.1" d="M116.439 548.072C116.621 549.631 117.317 551.086 118.415 552.207C119.514 553.328 120.955 554.052 122.51 554.265C131 555.533 151.447 551.767 156.611 554.224C163.176 557.352 189.121 555.162 190.373 552.039C190.55 551.413 190.601 550.759 190.523 550.114C190.446 549.468 190.242 548.844 189.923 548.278C189.035 546.372 187.568 544.795 185.731 543.772C181.501 546.576 172.109 549.324 151.453 546.098C131.75 543.022 121.996 547.007 117.237 544.953C117.232 544.957 117.227 544.967 117.223 544.971C116.894 545.411 116.656 545.911 116.521 546.443C116.387 546.976 116.359 547.529 116.439 548.072Z" fill="black"/>
<g opacity="0.1">
<path opacity="0.1" d="M33.1374 28.8885C33.1285 28.8383 33.12 28.7879 33.1106 28.7385C32.6676 26.3957 31.9949 23.9713 32.1453 21.6396C32.3465 23.5555 32.6689 25.4567 33.1106 27.3317C33.2402 27.8415 33.2494 28.3745 33.1374 28.8885Z" fill="black"/>
<path opacity="0.1" d="M51.3796 58.1505C50.8858 59.2774 50.6247 60.4925 50.612 61.7228C50.4704 60.0258 50.7335 58.3194 51.3796 56.7438C52.2587 54.8749 54.3244 53.4054 56.3353 53.8757C59.013 54.5019 60.1652 57.9843 62.7853 58.8194C64.9941 59.5234 67.4118 57.9548 68.4651 55.8896C69.5183 53.8245 69.5464 51.4073 69.5519 49.0891C69.5581 46.4771 69.5643 43.8652 69.5704 41.2533C69.5771 38.4141 69.6609 35.3406 71.4132 33.1067C73.5935 30.3272 78.7164 29.113 82.1354 29.2241C84.4116 29.2507 86.5948 30.1314 88.2523 31.6917C90.0869 33.2491 92.1996 34.393 94.6967 33.9862C95.7349 33.8279 96.7072 33.3793 97.5014 32.6921C98.2956 32.005 98.8794 31.1073 99.1854 30.1026C99.4481 29.0934 99.3791 28.0167 99.6763 27.017C100.406 24.561 103.028 23.2803 104.786 21.416C106.426 19.5997 107.362 17.2555 107.422 14.8086C107.552 16.2536 107.384 17.7097 106.931 19.0877C106.477 20.4657 105.748 21.7367 104.786 22.8227C103.028 24.6871 100.406 25.9677 99.6763 28.4237C99.3791 29.4234 99.4481 30.5001 99.1854 31.5094C98.8794 32.514 98.2956 33.4117 97.5014 34.0988C96.7072 34.786 95.7349 35.2346 94.6967 35.393C92.1996 35.7997 90.0869 34.6558 88.2523 33.0984C86.5948 31.5382 84.4116 30.6575 82.1354 30.6309C78.7164 30.5198 73.5934 31.7339 71.4132 34.5135C69.6609 36.7474 69.5772 39.8209 69.5704 42.66C69.5643 45.2719 69.5582 47.8839 69.5519 50.4958C69.5464 52.814 69.5183 55.2312 68.4651 57.2964C67.4118 59.3616 64.9941 60.9302 62.7853 60.2261C60.1652 59.391 59.0131 55.9086 56.3353 55.2824C54.3244 54.8121 52.2587 56.2816 51.3796 58.1505Z" fill="black"/>
<path opacity="0.1" d="M25.6878 49.5433C26.2616 51.1484 27.1675 52.6144 28.3464 53.8457C31.7872 57.9793 35.2281 62.1129 38.669 66.2466C43.0144 71.467 47.612 77.5086 47.2766 84.178C46.9631 78.0642 42.7069 72.5043 38.669 67.6533C35.2281 63.5197 31.7873 59.3861 28.3464 55.2525C27.1675 54.0212 26.2616 52.5551 25.6878 50.95C25.4318 49.826 25.34 48.6708 25.415 47.5205C25.4244 48.2033 25.516 48.8824 25.6878 49.5433Z" fill="black"/>
<path opacity="0.1" d="M52.6411 82.0798C52.8084 81.536 52.912 80.9746 52.9497 80.407C53.039 81.4437 52.9344 82.4881 52.6411 83.4865C51.9297 85.7554 49.3535 87.6281 47.1841 86.6547C47.2427 86.2008 47.2784 85.7443 47.2911 85.2869C49.4377 86.1541 51.9412 84.3118 52.6411 82.0798Z" fill="black"/>
</g>
<path opacity="0.1" d="M154.515 521.539C154.515 521.539 151.249 527.287 139.407 522.221L154.515 521.539Z" fill="black"/>
<path opacity="0.1" d="M56.4152 521.923C56.4152 521.923 46.2008 533.946 33.333 525.866L56.4152 521.923Z" fill="black"/>
<path opacity="0.1" d="M26.6924 379.726C26.6924 379.726 33.9075 384.233 34.142 386.812C34.3764 389.391 30.4172 384.937 30.4172 384.937L26.6924 379.726Z" fill="black"/>
<path opacity="0.1" d="M23.8447 414.291C26.3539 416.38 29.4739 417.598 32.7349 417.76C38.1274 417.995 37.6786 425.029 34.1517 422.918C30.6248 420.808 23.8447 414.291 23.8447 414.291Z" fill="black"/>
<path opacity="0.1" d="M22.4717 418.802C22.4717 418.802 25.9357 435.814 28.7491 432.531L22.4717 418.802Z" fill="black"/>
<defs>
<linearGradient id="paint0_linear" x1="142.09" y1="521.546" x2="142.09" y2="521.098" gradientUnits="userSpaceOnUse">
<stop stop-color="#808080" stop-opacity="0.25"/>
<stop offset="0.53514" stop-color="#808080" stop-opacity="0.12"/>
<stop offset="1" stop-color="#808080" stop-opacity="0.1"/>
</linearGradient>
</defs>
</svg>
