<svg width="207" height="561" viewBox="0 0 207 561" fill="none" xmlns="http://www.w3.org/2000/svg">
<path d="M-316.428 419.231C-316.428 370.432 -198.912 348.356 -123.574 397.156C-48.2356 445.955 73.9346 327.071 137.056 348.647C200.177 370.222 256.317 577.539 137.056 577.539C17.7945 577.539 -174.769 531.354 -279.486 577.539C-384.204 623.724 -316.428 468.031 -316.428 419.231Z" fill="#C4C4C4" fill-opacity="0.2"/>
<path d="M126.658 196.44C125.34 193.881 118.373 177.976 118.373 177.976L106.7 147.628C106.7 147.628 98.4161 134.831 98.4161 132.455C98.4161 130.078 83.3539 120.572 83.3539 120.572C83.3539 120.572 71.116 116.915 70.1745 116.55C69.2331 116.184 54.7359 111.372 54.7359 111.372C54.7359 111.372 49.0273 103.84 48.214 105.807L48.2133 105.812C48.1836 105.763 48.1531 105.719 48.1236 105.668C46.9572 103.482 46.2185 101.091 45.9472 98.6263C45.9162 98.4073 45.8897 98.1761 45.862 97.9478C49.6221 95.3907 52.704 91.9524 54.8408 87.9306C56.9777 83.9089 58.1049 79.425 58.1249 74.8676C58.1222 73.6677 58.0417 72.4693 57.8839 71.2799C57.9875 71.215 58.0957 71.1579 58.2077 71.1088C58.442 71.0067 58.3826 70.9237 58.2105 70.8371C58.2695 70.806 58.3283 70.7731 58.3877 70.7478C58.6994 70.6119 58.4913 70.509 58.1896 70.3868L58.2076 70.3776C58.6324 70.1925 58.0953 70.0698 57.6639 69.874C57.6407 69.7475 57.6189 69.6205 57.594 69.4946C57.6895 69.2538 57.7478 68.9998 57.767 68.7413C57.8053 68.7604 57.8402 68.781 57.8807 68.7988C57.9856 68.3276 57.983 67.8387 57.8729 67.3688C57.8458 67.4642 57.8131 67.558 57.775 67.6496C57.8019 67.2235 57.7144 66.798 57.5216 66.4173C57.3288 66.0367 57.0378 65.7149 56.6789 65.4854C56.6573 65.4665 56.6335 65.4462 56.6114 65.427L57.4101 57.2255C69.1838 56.6672 71.2492 36.5701 68.564 35.4536C65.8789 34.3371 68.564 31.918 68.564 27.0798C68.564 22.2416 59.6821 16.8452 59.6821 16.8452C59.6821 16.8452 55.9642 18.706 50.1807 9.40182C44.3971 0.097592 23.1219 -1.39108 21.676 1.028C20.2301 3.44709 10.7286 6.61057 -1.6647 10.1462C-14.058 13.6817 -11.7859 28.3824 -9.72041 31.5459C-8.01876 34.1612 -7.02238 37.1747 -6.82862 40.2919C-6.82862 42.1527 -2.90407 49.9682 -2.90407 49.9682C-4.14184 52.6764 -0.991749 67.5125 -0.0588036 71.7292C-0.0734787 71.8588 -0.089035 71.9879 -0.101933 72.1181C-0.109856 72.1308 -0.120331 72.1417 -0.128017 72.1546C-0.172478 72.2227 -0.212715 72.2935 -0.248508 72.3666C-0.448692 72.8036 -0.514938 73.2904 -0.438843 73.7653C-0.506916 74.2843 -0.434723 74.8122 -0.229809 75.2936C-0.158928 79.2662 0.757145 83.1777 2.45708 86.7662C4.15701 90.3547 6.60157 93.5373 9.62701 96.1009C9.64162 96.3546 9.65606 96.61 9.66991 96.8713C9.8432 100.316 9.94105 104.389 9.76035 108.286C9.75101 108.486 9.73615 108.681 9.72532 108.879C9.04215 109.018 8.40107 109.316 7.85378 109.749C7.30648 110.182 6.86832 110.738 6.5747 111.372C5.40739 113.625 -1.37061 117.098 -1.37061 117.098C-1.37061 117.098 -13.2321 117.647 -14.3617 119.84C-15.4913 122.034 -32.6246 129.347 -32.6246 129.347C-32.6246 129.347 -41.6618 134.648 -40.3439 140.681C-39.6553 143.834 -41.5885 148.731 -43.5915 152.691C-47.7811 151.097 -52.1438 150.006 -56.5889 149.44L-46.9905 158.653C-47.1916 158.967 -47.3101 159.146 -47.3101 159.146L-52.7702 178.524C-52.7702 178.524 -54.6529 185.288 -56.5357 186.934C-58.4184 188.579 -54.8412 203.57 -54.8412 203.57C-54.8412 203.57 -56.9123 214.173 -58.6068 216.916C-60.3012 219.658 -55.9709 226.422 -55.9709 226.422L-47.3101 246.166L-24.3404 252.016C-24.3404 252.016 -22.8097 252.341 -20.3362 252.873C-20.414 253.344 -20.4936 253.815 -20.5749 254.283C-21.6819 260.572 -23.1355 266.356 -24.9052 267.921C-29.2356 271.76 -29.0473 288.945 -29.0473 288.945L-28.859 313.26C-28.859 313.26 -27.3528 343.241 -28.106 344.338C-28.5813 345.031 -27.6274 346.16 -25.1104 347.174C-25.1824 347.626 -25.253 348.083 -25.3195 348.55C-26.0273 353.523 -26.3436 359.198 -24.7169 361.706C-24.0105 363.062 -23.624 364.563 -23.5873 366.093C-23.5873 368.47 -20.01 373.406 -20.01 373.406C-20.01 373.406 -22.8342 393.699 -18.1273 400.646C-13.4203 407.592 -9.4665 420.207 -11.7258 423.132C-11.7258 423.132 -15.6796 431.724 -13.7969 435.563C-11.9141 439.402 -13.7969 441.596 -16.2445 442.51C-18.6921 443.425 -18.4812 450.92 -18.4812 450.92L-13.9851 486.569C-13.9851 486.569 -11.5376 493.882 -13.6086 496.441C-15.6796 499.001 -15.6796 511.798 -12.4789 516.185C-9.27824 520.573 -16.9976 528.617 -16.9976 528.617C-16.9976 528.617 -21.7045 535.381 -14.1734 537.575C-14.1734 537.575 -12.6672 537.94 -15.4914 540.865C-18.3156 543.79 -18.8804 547.447 -16.9976 548.726C-16.6072 548.961 -16.1988 549.165 -15.7764 549.335C-15.8463 549.768 -15.9219 550.217 -16.011 550.694C-16.7341 554.511 -18.0971 559.483 -20.5749 561.889C-25.377 566.826 -29.521 572.366 -32.9032 578.372C-35.4864 583.286 -36.6161 587.886 -33.7542 590.043C-26.9763 595.162 -18.3155 596.807 -13.2321 594.796C-8.14864 592.785 -0.994076 586.569 -0.994076 586.569L0.700386 579.44C0.700386 579.44 -0.429241 575.052 5.21902 573.407C10.8673 571.761 16.1391 565.911 16.1391 565.911V556.434C17.5067 555.65 18.8269 554.786 20.0929 553.845C20.0929 553.845 22.7288 544.522 20.0929 541.414C17.457 538.306 16.5157 537.209 19.9046 535.198C23.2936 533.187 23.753 528.8 21.2678 524.96C18.775 521.121 14.8212 515.454 18.2102 507.41C21.5991 499.366 22.8418 474.686 22.8418 474.686C22.8418 474.686 21.2603 457.867 22.8418 454.028C24.4234 450.189 21.0343 442.51 21.0343 442.51C21.0343 442.51 22.164 433.004 24.235 428.616C26.3061 424.229 28.0006 401.011 28.0006 401.011C28.0006 401.011 31.7661 391.139 31.7661 384.741C31.7661 378.342 25.9295 362.986 34.5902 358.964C34.5902 358.964 38.3558 362.254 36.8495 375.417C36.8495 375.417 41.1799 390.774 41.1799 395.527C41.1799 400.28 44.3806 417.465 44.3806 417.465C44.3806 417.465 44.7572 422.949 46.0751 424.96C47.393 426.971 46.0751 432.456 46.0751 432.456C46.0751 432.456 50.9703 437.026 49.6524 439.951C48.3344 442.876 49.8783 449.472 49.8783 449.472L48.711 490.408C48.711 490.408 45.322 507.959 53.2296 518.562C53.2296 518.562 50.4054 534.101 48.711 535.198C47.0165 536.295 54.9241 545.802 54.9241 545.802C54.9241 545.802 52.7324 551.96 57.1835 552.262V562.438C58.7288 565.177 60.8487 567.548 63.3966 569.385C67.5387 572.31 65.8441 582.365 65.8441 582.365C65.8441 582.365 71.116 595.162 85.0484 592.42C98.9809 589.677 100.864 588.398 100.111 583.827C99.8394 582.16 99.237 579.184 98.3708 575.805C96.8721 569.933 94.5752 562.847 91.8264 559.352C87.496 553.845 83.9187 542.328 83.9187 542.328C83.9187 542.328 82.2243 538.489 83.9187 537.209C85.6132 535.93 84.8602 533.553 84.8602 533.553C84.8602 533.553 86.5094 528.8 85.0258 525.875C83.5422 522.95 87.8726 516.917 87.8726 516.917L86.5546 488.763L87.8726 447.812C87.8726 447.812 82.036 441.048 84.4836 437.026C86.9312 433.004 81.6594 427.337 81.6594 427.337C81.6594 427.337 81.0947 427.154 82.6009 422.584C83.5022 419.89 83.3679 416.956 82.2243 414.357C82.2243 414.357 79.0235 403.022 84.6719 394.43C84.6719 394.43 87.1195 383.095 87.8726 377.245C88.3922 373.18 91.6457 357.991 93.5812 349.106C93.6906 348.604 93.7955 348.123 93.8959 347.664C96.6839 347.817 98.7926 347.995 98.7926 347.995C98.7926 347.995 94.4622 317.83 98.7926 311.614C103.123 305.399 95.4036 257.866 95.4036 257.866C95.4036 257.866 93.5586 249.559 92.4214 241.084C92.3563 240.601 92.2973 240.119 92.2373 239.636C95.733 239.356 99.2419 239.278 102.746 239.402C111.784 239.951 120.633 236.477 120.821 233.004C121.009 229.53 125.904 215.819 126.658 212.711C127.411 209.603 127.976 199 126.658 196.44Z" fill="url(#paint0_linear)"/>
<path d="M16.798 549.113V566.041C16.798 566.041 11.7183 571.866 6.27581 573.504C0.833282 575.142 1.92179 579.51 1.92179 579.51L0.289043 586.609C0.289043 586.609 -6.60481 592.798 -11.5031 594.8C-16.4013 596.802 -24.7466 595.164 -31.2776 590.067C-34.0352 587.92 -32.9467 583.34 -30.4576 578.447C-27.2147 572.489 -23.2223 566.974 -18.5784 562.037C-16.1909 559.641 -14.8775 554.69 -14.1807 550.89C-13.6655 548.043 -13.4987 545.837 -13.4987 545.837L16.798 549.113Z" fill="white"/>
<path d="M83.1969 592.434C69.772 595.164 64.6924 582.423 64.6924 582.423C64.6924 582.423 66.3251 572.412 62.3339 569.5C59.8658 567.653 57.8238 565.294 56.3472 562.583V545.837L72.6747 534.188L81.5133 542.037L82.1085 542.561C82.1085 542.561 85.5554 554.028 89.728 559.51C92.3767 562.991 94.5899 570.046 96.034 575.892C96.8686 579.256 97.4491 582.219 97.7103 583.879C98.436 588.43 96.6218 589.704 83.1969 592.434Z" fill="white"/>
<path opacity="0.1" d="M83.1969 592.434C69.772 595.164 64.6924 582.422 64.6924 582.422C64.6924 582.422 66.3251 572.411 62.3339 569.499C59.8658 567.652 57.8238 565.293 56.3472 562.582V556.095C58.9379 558.84 63.8216 564.155 64.8738 566.405C66.3251 569.499 66.5066 580.784 73.219 582.787C79.9314 584.789 92.9935 586.609 94.082 581.512C94.5346 579.575 95.1889 577.691 96.034 575.892C96.8686 579.255 97.4491 582.219 97.7103 583.879C98.436 588.429 96.6218 589.703 83.1969 592.434Z" fill="black"/>
<path opacity="0.1" d="M-13.4986 545.837L16.7981 549.113V558.061C13.3802 560.093 8.48197 562.248 5.73165 560.034C1.66792 556.773 -10.4145 552.63 -14.1807 550.89C-13.6655 548.043 -13.4986 545.837 -13.4986 545.837Z" fill="black"/>
<path opacity="0.1" d="M82.1085 544.017C77.9359 542.561 70.4977 548.932 60.7012 552.936C59.3394 553.58 57.8525 553.913 56.3472 553.912V545.837L72.6748 534.188L81.5134 542.037C81.6497 542.714 81.8489 543.377 82.1085 544.017Z" fill="black"/>
<path d="M92.812 343.613C92.812 343.613 92.2387 346.293 91.4188 350.181C89.5538 359.027 86.4188 374.149 85.9181 378.197C85.1925 384.022 82.8341 395.307 82.8341 395.307C77.3915 403.862 80.4756 415.147 80.4756 415.147C81.5787 417.744 81.7076 420.653 80.8384 423.338C79.3871 427.888 79.9314 428.07 79.9314 428.07C79.9314 428.07 85.011 433.713 82.6526 437.717C80.2942 441.722 85.9181 448.456 85.9181 448.456L84.6482 489.229L85.9181 517.26C85.9181 517.26 81.7456 523.266 83.1751 526.178C84.6046 529.091 83.0155 533.823 83.0155 533.823C83.0155 533.823 83.7411 536.189 82.1084 537.464C80.4756 538.738 82.1084 542.56 82.1084 542.56C77.9358 541.104 70.4977 547.475 60.7011 551.479C50.9046 555.484 54.1701 546.019 54.1701 546.019C54.1701 546.019 46.5506 536.554 48.1833 535.461C49.8161 534.369 52.5373 518.898 52.5373 518.898C44.9178 508.341 48.1833 490.867 48.1833 490.867L49.3081 450.109C49.3081 450.109 47.8205 443.542 49.0904 440.63C50.3603 437.717 45.6435 433.167 45.6435 433.167C45.6435 433.167 46.9134 427.706 45.6435 425.704C44.3736 423.702 44.0107 418.241 44.0107 418.241C44.0107 418.241 40.9266 401.132 40.9266 396.399C40.9266 391.667 36.754 376.377 36.754 376.377C38.2054 363.272 34.577 359.995 34.577 359.995C26.2318 364 31.8558 379.289 31.8558 385.66C31.8558 392.031 28.2274 401.86 28.2274 401.86C28.2274 401.86 26.5946 424.976 24.5991 429.344C22.6035 433.713 21.5149 443.178 21.5149 443.178C21.5149 443.178 24.7805 450.823 23.2566 454.645C21.7327 458.468 23.2566 475.213 23.2566 475.213C23.2566 475.213 22.0592 499.786 18.7937 507.795C15.5282 515.803 19.338 521.446 21.74 525.268C24.1346 529.091 23.692 533.459 20.4264 535.462C17.1609 537.464 18.068 538.556 20.6079 541.65C23.1477 544.744 20.6079 554.027 20.6079 554.027C20.6079 554.027 10.2671 562.218 5.73165 558.578C1.19622 554.937 -13.3172 550.205 -15.1314 548.931C-16.9455 547.657 -16.4013 544.016 -13.68 541.104C-10.9588 538.192 -12.4101 537.828 -12.4101 537.828C-19.6668 535.643 -15.1314 528.909 -15.1314 528.909C-15.1314 528.909 -7.69325 520.9 -10.7773 516.531C-13.8614 512.163 -13.8614 499.422 -11.8658 496.873C-9.87024 494.325 -12.2287 487.044 -12.2287 487.044L-16.5609 451.551C-16.5609 451.551 -16.7641 444.088 -14.4057 443.178C-12.0473 442.268 -10.2331 440.084 -12.0473 436.261C-13.8614 432.439 -10.0517 423.884 -10.0517 423.884C-7.87466 420.972 -11.6844 408.412 -16.2199 401.496C-20.7553 394.579 -18.034 374.375 -18.034 374.375C-18.034 374.375 -21.481 369.46 -21.481 367.094C-21.5149 365.575 -21.8868 364.082 -22.5695 362.726C-24.1369 360.228 -23.8321 354.578 -23.1501 349.627C-22.4897 344.837 -21.481 340.701 -21.481 340.701L92.812 343.613Z" fill="#2F2E41"/>
<path d="M57.2544 137.387L21.5152 145.76C21.5152 145.76 3.91771 130.834 8.27173 122.825C9.76665 120.073 10.427 115.377 10.652 110.412C10.8261 106.531 10.7318 102.476 10.5648 99.0463C10.3109 94.0881 9.90448 90.4259 9.90448 90.4259C9.90448 90.4259 46.5508 69.6758 45.2809 90.4259C45.0227 93.8814 45.1029 97.3539 45.5204 100.794C45.7795 103.241 46.4906 105.619 47.6175 107.805C49.5768 111.307 51.9933 111.358 51.9933 111.358L57.2544 137.387Z" fill="#EED7DB"/>
<path opacity="0.1" d="M45.5202 100.794C40.3552 104.511 34.0868 106.362 27.7383 106.045C21.3897 105.727 15.3358 103.26 10.5646 99.0463C10.3107 94.0881 9.9043 90.4259 9.9043 90.4259C9.9043 90.4259 46.5506 69.6758 45.2807 90.4259C45.0225 93.8814 45.1027 97.3539 45.5202 100.794Z" fill="black"/>
<path d="M29.1343 105.351C44.6644 105.351 57.2541 92.7198 57.2541 77.1382C57.2541 61.5567 44.6644 48.9253 29.1343 48.9253C13.6043 48.9253 1.01465 61.5567 1.01465 77.1382C1.01465 92.7198 13.6043 105.351 29.1343 105.351Z" fill="#EED7DB"/>
<path opacity="0.1" d="M57.2544 137.387L21.5152 145.76C21.5152 145.76 3.91771 130.834 8.27173 122.825C9.76665 120.073 10.427 115.377 10.652 110.412C11.441 114.73 13.7513 118.619 17.1612 121.369C25.325 126.83 24.055 133.565 24.055 133.565L38.7498 133.018C37.8427 127.012 43.2853 123.735 45.0995 123.007C46.9136 122.279 46.0065 119.003 46.0065 119.003L47.6175 107.805C49.5768 111.307 51.9933 111.358 51.9933 111.358L57.2544 137.387Z" fill="black"/>
<path opacity="0.1" d="M92.8121 343.613C92.8121 343.613 92.2388 346.293 91.4189 350.181C87.4712 349.97 82.2536 349.817 79.9315 350.348C75.9403 351.258 59.9756 351.622 59.9756 351.622L20.4266 353.027V351.804C15.8773 351.841 11.3341 352.145 6.82028 352.714C0.107828 353.625 -10.4143 352.35 -17.1268 351.258C-19.1929 350.961 -21.2154 350.414 -23.1499 349.627C-22.4895 344.837 -21.4808 340.701 -21.4808 340.701L92.8121 343.613Z" fill="black"/>
<path d="M89.728 228.032C89.1547 231.432 89.5757 237.068 90.3013 242.63C91.3971 251.069 93.175 259.339 93.175 259.339C93.175 259.339 100.613 306.664 96.4405 312.853C92.2679 319.042 96.4405 349.075 96.4405 349.075C96.4405 349.075 83.9227 347.983 79.9315 348.893C75.9404 349.803 59.9756 350.167 59.9756 350.167L20.4266 351.572V350.349C15.8774 350.386 11.3342 350.69 6.82036 351.259C0.107914 352.169 -10.4142 350.895 -17.1267 349.803C-23.8392 348.711 -26.5604 346.526 -25.8348 345.434C-25.1091 344.342 -26.5604 314.491 -26.5604 314.491L-26.7418 290.283C-26.7418 290.283 -26.9233 273.173 -22.7507 269.35C-21.0454 267.792 -19.6448 262.033 -18.5781 255.772C-17.0469 246.707 -16.2197 236.587 -16.2197 236.587L-43.7951 162.505L-44.3394 161.049C-44.3394 161.049 -36.357 148.672 -37.6269 142.665C-38.8968 136.659 -30.1888 131.38 -30.1888 131.38C-30.1888 131.38 -13.6798 124.099 -12.5913 121.915C-11.5028 119.731 -0.0735435 119.185 -0.0735435 119.185C-0.0735435 119.185 6.45752 115.727 7.58232 113.484C7.8561 112.858 8.27469 112.306 8.80345 111.874C9.3322 111.442 9.95589 111.143 10.6228 111.001C11.3916 115.372 13.7147 119.315 17.1611 122.097C25.3249 127.558 24.055 134.292 24.055 134.292L38.7498 133.746C37.8427 127.74 43.2852 124.463 45.0994 123.735C46.9136 123.007 46.0065 119.731 46.0065 119.731L47.7046 107.943C48.4882 105.985 53.9889 113.484 53.9889 113.484C53.9889 113.484 67.958 118.275 68.8651 118.639C69.7721 119.003 81.5643 122.643 81.5643 122.643C81.5643 122.643 96.0777 132.108 96.0777 134.475C96.0777 136.841 104.06 149.582 104.06 149.582C104.06 149.582 103.966 150.092 103.792 151.024C101.948 161.057 91.0561 220.205 89.728 228.032Z" fill="white"/>
<path d="M31.6743 198.545C31.6743 198.545 0.289063 190.172 -2.79503 188.17C-5.87912 186.168 -24.0209 197.817 -1.88795 213.653C-1.88795 213.653 25.1763 219.295 32.4165 213.653C39.6566 208.01 31.6743 198.545 31.6743 198.545Z" fill="#EED7DB"/>
<path opacity="0.1" d="M99.5243 148.672L103.334 148.854L114.582 179.069C114.582 179.069 121.294 194.905 122.564 197.453C123.834 200.001 123.29 210.558 122.564 213.653C121.839 216.747 117.122 230.398 116.94 233.857C116.759 237.315 108.232 240.773 99.5243 240.227C90.8163 239.681 70.4975 242.412 70.4975 242.412C70.4975 242.412 48.7978 240.136 35.484 246.962C35.484 246.962 26.9573 229.306 27.8644 196.361C27.8644 196.361 42.9221 195.451 46.7318 196.907C50.5416 198.363 69.0462 202.549 71.4046 200.365C73.763 198.181 84.4667 204.37 84.4667 204.37C85.0113 203.169 85.2931 201.866 85.2931 200.547C85.2931 199.229 85.0113 197.925 84.4667 196.725C82.6525 192.356 79.5684 178.705 83.5596 174.337C87.5508 169.968 99.5243 148.672 99.5243 148.672Z" fill="black"/>
<path opacity="0.1" d="M90.301 242.63C81.2954 243.242 71.2231 244.596 71.2231 244.596C71.2231 244.596 49.5256 242.317 36.2095 249.147C36.2095 249.147 27.6829 231.491 28.59 198.545C28.59 198.545 43.6477 197.635 47.4574 199.091C51.2671 200.548 69.7717 204.734 72.1302 202.55C74.4886 200.366 85.1922 206.554 85.1922 206.554C85.7369 205.354 86.0187 204.051 86.0187 202.732C86.0187 201.413 85.7369 200.11 85.1922 198.909C83.378 194.541 80.2939 180.89 84.2851 176.521C88.2763 172.153 100.25 150.856 100.25 150.856L103.791 151.024C101.948 161.057 91.0557 220.206 89.7277 228.032C89.1544 231.433 89.5753 237.068 90.301 242.63Z" fill="black"/>
<path d="M100.25 149.399L104.06 149.581L115.308 179.797C115.308 179.797 122.02 195.632 123.29 198.18C124.56 200.729 124.016 211.286 123.29 214.38C122.564 217.474 117.847 231.126 117.666 234.584C117.485 238.043 108.958 241.501 100.25 240.955C91.5419 240.409 71.2231 243.139 71.2231 243.139C71.2231 243.139 49.5233 240.864 36.2095 247.69C36.2095 247.69 27.6829 230.034 28.59 197.088C28.59 197.088 43.6477 196.178 47.4574 197.634C51.2671 199.091 69.7717 203.277 72.1302 201.093C74.4886 198.909 85.1922 205.097 85.1922 205.097C85.7369 203.897 86.0187 202.594 86.0187 201.275C86.0187 199.956 85.7369 198.653 85.1922 197.452C83.378 193.084 80.2939 179.433 84.2851 175.064C88.2763 170.696 100.25 149.399 100.25 149.399Z" fill="white"/>
<path d="M61.9215 216.257L66.4482 219.069L91.6743 178.194L87.1475 175.381L61.9215 216.257Z" fill="#DFE6F5"/>
<path d="M104.609 172.658C109.068 165.434 108.588 157.034 103.538 153.897C98.4876 150.76 90.7795 154.073 86.3213 161.297C81.8631 168.521 82.343 176.92 87.3931 180.058C92.4432 183.195 100.151 179.882 104.609 172.658Z" fill="#DFE6F5"/>
<path opacity="0.1" d="M102.029 171.056C105.229 165.87 104.885 159.841 101.26 157.589C97.6346 155.337 92.1018 157.715 88.9017 162.901C85.7016 168.086 86.046 174.115 89.671 176.367C93.2959 178.619 98.8287 176.241 102.029 171.056Z" fill="black"/>
<path d="M49.0284 237.15L53.5552 239.962L69.2514 214.528L64.7246 211.716L49.0284 237.15Z" fill="#53526B"/>
<path d="M22.4221 238.953L33.4886 235.859C33.4886 235.859 88.0952 237.315 69.772 214.744C69.772 214.744 60.1569 205.461 40.0196 212.924C19.8822 220.387 14.2583 221.297 14.2583 221.297L22.4221 238.953Z" fill="#EED7DB"/>
<path opacity="0.1" d="M14.2581 143.757C15.4604 143.757 16.4351 142.779 16.4351 141.573C16.4351 140.367 15.4604 139.389 14.2581 139.389C13.0557 139.389 12.0811 140.367 12.0811 141.573C12.0811 142.779 13.0557 143.757 14.2581 143.757Z" fill="black"/>
<path opacity="0.1" d="M51.6301 142.483C52.8325 142.483 53.8071 141.505 53.8071 140.299C53.8071 139.093 52.8325 138.115 51.6301 138.115C50.4278 138.115 49.4531 139.093 49.4531 140.299C49.4531 141.505 50.4278 142.483 51.6301 142.483Z" fill="#3BB9E0"/>
<path d="M14.2581 143.029C15.4604 143.029 16.4351 142.051 16.4351 140.844C16.4351 139.638 15.4604 138.66 14.2581 138.66C13.0557 138.66 12.0811 139.638 12.0811 140.844C12.0811 142.051 13.0557 143.029 14.2581 143.029Z" fill="#3BB9E0"/>
<path opacity="0.1" d="M17.3425 173.972C18.5449 173.972 19.5195 172.994 19.5195 171.788C19.5195 170.581 18.5449 169.604 17.3425 169.604C16.1402 169.604 15.1655 170.581 15.1655 171.788C15.1655 172.994 16.1402 173.972 17.3425 173.972Z" fill="black"/>
<path opacity="0.1" d="M52.719 171.788C53.9213 171.788 54.896 170.81 54.896 169.604C54.896 168.398 53.9213 167.42 52.719 167.42C51.5167 167.42 50.542 168.398 50.542 169.604C50.542 170.81 51.5167 171.788 52.719 171.788Z" fill="black"/>
<path d="M17.3425 173.244C18.5449 173.244 19.5195 172.267 19.5195 171.06C19.5195 169.854 18.5449 168.876 17.3425 168.876C16.1402 168.876 15.1655 169.854 15.1655 171.06C15.1655 172.267 16.1402 173.244 17.3425 173.244Z" fill="#3BB9E0"/>
<path opacity="0.1" d="M51.8118 277.19C53.0141 277.19 53.9888 276.212 53.9888 275.006C53.9888 273.799 53.0141 272.821 51.8118 272.821C50.6094 272.821 49.6348 273.799 49.6348 275.006C49.6348 276.212 50.6094 277.19 51.8118 277.19Z" fill="black"/>
<path opacity="0.1" d="M23.1604 277.19C24.3627 277.19 25.3374 276.212 25.3374 275.006C25.3374 273.799 24.3627 272.821 23.1604 272.821C21.9581 272.821 20.9834 273.799 20.9834 275.006C20.9834 276.212 21.9581 277.19 23.1604 277.19Z" fill="black"/>
<path d="M51.8118 276.461C53.0141 276.461 53.9888 275.483 53.9888 274.277C53.9888 273.071 53.0141 272.093 51.8118 272.093C50.6094 272.093 49.6348 273.071 49.6348 274.277C49.6348 275.483 50.6094 276.461 51.8118 276.461Z" fill="#3BB9E0"/>
<path opacity="0.1" d="M25.3372 313.762C26.5395 313.762 27.5142 312.785 27.5142 311.578C27.5142 310.372 26.5395 309.394 25.3372 309.394C24.1348 309.394 23.1602 310.372 23.1602 311.578C23.1602 312.785 24.1348 313.762 25.3372 313.762Z" fill="black"/>
<path opacity="0.1" d="M52.719 311.579C53.9213 311.579 54.896 310.601 54.896 309.395C54.896 308.188 53.9213 307.21 52.719 307.21C51.5167 307.21 50.542 308.188 50.542 309.395C50.542 310.601 51.5167 311.579 52.719 311.579Z" fill="black"/>
<path d="M25.3372 313.035C26.5395 313.035 27.5142 312.057 27.5142 310.851C27.5142 309.644 26.5395 308.667 25.3372 308.667C24.1348 308.667 23.1602 309.644 23.1602 310.851C23.1602 312.057 24.1348 313.035 25.3372 313.035Z" fill="#3BB9E0"/>
<path d="M23.1604 276.461C24.3627 276.461 25.3374 275.483 25.3374 274.277C25.3374 273.071 24.3627 272.093 23.1604 272.093C21.9581 272.093 20.9834 273.071 20.9834 274.277C20.9834 275.483 21.9581 276.461 23.1604 276.461Z" fill="#3BB9E0"/>
<path d="M52.719 310.85C53.9213 310.85 54.896 309.872 54.896 308.666C54.896 307.46 53.9213 306.482 52.719 306.482C51.5167 306.482 50.542 307.46 50.542 308.666C50.542 309.872 51.5167 310.85 52.719 310.85Z" fill="#3BB9E0"/>
<path d="M51.6301 141.755C52.8325 141.755 53.8071 140.777 53.8071 139.57C53.8071 138.364 52.8325 137.386 51.6301 137.386C50.4278 137.386 49.4531 138.364 49.4531 139.57C49.4531 140.777 50.4278 141.755 51.6301 141.755Z" fill="#3BB9E0"/>
<path d="M52.719 171.06C53.9213 171.06 54.896 170.082 54.896 168.876C54.896 167.669 53.9213 166.691 52.719 166.691C51.5167 166.691 50.542 167.669 50.542 168.876C50.542 170.082 51.5167 171.06 52.719 171.06Z" fill="#3BB9E0"/>
<path opacity="0.1" d="M55.9844 245.506C55.9844 245.506 56.3472 295.379 57.4357 304.298C57.4357 304.298 57.8309 247.857 55.9844 245.506Z" fill="black"/>
<path opacity="0.1" d="M65.2365 268.623C64.4885 268.623 80.1127 327.051 80.8383 331.237C81.5639 335.424 69.5905 268.623 65.2365 268.623Z" fill="black"/>
<path opacity="0.1" d="M77.5728 259.157C77.5728 259.703 86.2808 290.829 90.6349 292.467C94.9889 294.105 77.5728 259.157 77.5728 259.157Z" fill="black"/>
<path opacity="0.1" d="M111.861 198.545C111.861 198.545 93.3562 199.372 92.8119 202.053C92.2677 204.734 111.861 198.545 111.861 198.545Z" fill="black"/>
<path opacity="0.1" d="M79.2057 435.897C79.2057 435.897 65.9622 441.54 67.9578 441.904C69.9534 442.268 79.2057 435.897 79.2057 435.897Z" fill="black"/>
<path opacity="0.1" d="M51.8115 427.525C51.2957 426.36 60.7009 432.257 60.7009 432.985C60.7009 433.713 52.5371 429.163 51.8115 427.525Z" fill="black"/>
<path opacity="0.1" d="M64.1479 446.636C64.1479 446.636 74.4887 446.113 75.2144 450.106C75.94 454.099 64.1479 446.636 64.1479 446.636Z" fill="black"/>
<path opacity="0.1" d="M-10.2329 446.614C-10.2329 446.614 1.01497 444.407 1.92206 446.614C2.82915 448.821 -10.2329 446.614 -10.2329 446.614Z" fill="black"/>
<path opacity="0.1" d="M-7.43457 534.915C-3.88377 535.279 14.8022 532.003 14.6208 534.915C14.4394 537.828 -7.43457 534.915 -7.43457 534.915Z" fill="black"/>
<path opacity="0.1" d="M78.2987 523.63C78.2987 523.63 71.9257 522.648 73.4794 526.961L78.2987 523.63Z" fill="black"/>
<path opacity="0.1" d="M-40.1671 160.32H-43.614L-48.8751 179.614C-48.8751 179.614 -50.6893 186.349 -52.5035 187.987C-54.3176 189.625 -50.8707 204.551 -50.8707 204.551C-50.8707 204.551 -52.8663 215.108 -54.499 217.838C-56.1318 220.569 -51.9592 227.303 -51.9592 227.303L-43.614 246.961L-21.4811 252.786C-21.4811 252.786 17.5236 261.341 19.3378 262.615C21.152 263.889 22.7847 262.069 24.0546 250.238C25.3246 238.407 28.7715 215.472 31.4927 214.38C31.4927 214.38 9.72267 216.746 7.9085 216.382C6.09433 216.018 -2.61369 216.564 -2.61369 216.564C-2.61369 216.564 -14.043 215.836 -15.8572 216.928C-17.6713 218.02 -13.4987 211.642 -13.4987 211.642C-12.7349 208.721 -12.7349 205.652 -13.4987 202.731C-14.7686 197.816 -15.4943 142.118 -40.1671 160.32Z" fill="black"/>
<path opacity="0.1" d="M30.7671 216.565C28.0459 217.657 24.5989 240.591 23.329 252.422C22.0591 264.254 20.4263 266.074 18.6121 264.8C17.139 263.766 -8.86168 257.927 -18.5784 255.771C-17.0473 246.707 -16.22 236.587 -16.22 236.587L-43.7954 162.505H-40.8927C-16.22 144.303 -15.4943 200.001 -14.2244 204.915C-13.4605 207.836 -13.4605 210.906 -14.2244 213.827C-14.2244 213.827 -18.397 220.205 -16.5828 219.113C-14.7686 218.021 -3.33932 218.749 -3.33932 218.749C-3.33932 218.749 5.3687 218.203 7.18287 218.567C8.99704 218.931 30.7671 216.565 30.7671 216.565Z" fill="black"/>
<path d="M-40.8926 161.049H-44.3396L-49.6007 180.343C-49.6007 180.343 -51.4148 187.078 -53.229 188.716C-55.0432 190.354 -51.5963 205.279 -51.5963 205.279C-51.5963 205.279 -53.5919 215.837 -55.2246 218.567C-56.8574 221.297 -52.6848 228.032 -52.6848 228.032L-44.3396 247.69L-22.2067 253.514C-22.2067 253.514 16.7981 262.069 18.6123 263.344C20.4264 264.618 22.0592 262.797 23.3291 250.966C24.599 239.135 28.046 216.201 30.7672 215.109C30.7672 215.109 8.99715 217.475 7.18298 217.111C5.3688 216.747 -3.33925 217.293 -3.33925 217.293C-3.33925 217.293 -14.7686 216.565 -16.5827 217.657C-18.3968 218.749 -14.2243 212.37 -14.2243 212.37C-13.4604 209.449 -13.4604 206.38 -14.2243 203.459C-15.4942 198.545 -16.2199 142.847 -40.8926 161.049Z" fill="white"/>
<path opacity="0.1" d="M57.3338 73.3959C56.9393 73.5351 56.6028 73.803 56.3778 74.1567C56.1529 74.5104 56.0526 74.9295 56.093 75.3471C55.3528 76.0024 54.315 75.2307 53.7127 74.3934C53.1032 73.5633 52.4139 72.5368 51.4923 72.6532C51.0545 72.7934 50.6296 72.9712 50.2223 73.1848C48.771 73.6507 47.5445 71.9397 46.7318 70.4399C45.3168 67.8116 43.9017 65.1856 42.4866 62.5621C39.6492 64.2149 36.2967 62.482 33.4811 60.771C30.6655 59.06 27.3129 57.32 24.4683 58.9727C20.2957 61.3899 20.1432 69.4497 15.8183 71.4374C14.425 72.0781 12.8067 71.9397 11.515 72.8207C10.2378 73.6944 9.54847 75.3762 8.97515 76.9853C8.76301 77.9012 8.2647 78.7252 7.55289 79.337C7.10064 79.5742 6.59734 79.6967 6.08701 79.6938C4.80468 79.9124 3.48633 79.7267 2.31357 79.1622C1.69879 78.7746 1.23426 78.1882 0.996749 77.4998C0.759233 76.8113 0.762953 76.0622 1.00732 75.3762C1.04173 75.3036 1.08051 75.2331 1.12346 75.1651C1.58828 74.6013 2.00574 73.9998 2.37158 73.3668C2.80697 72.2091 2.18291 70.8622 2.32084 69.6099C2.54575 67.4693 4.80258 66.3408 5.1872 64.2367C5.34683 63.414 5.17994 62.533 5.33229 61.703C5.35363 61.5943 5.38276 61.4872 5.41946 61.3827L4.09144 62.3C5.5791 60.5599 6.32656 58.1427 7.41506 56.0313C8.62423 53.7195 10.2882 51.6778 12.3063 50.0296C14.3244 48.3815 16.6547 47.1612 19.1564 46.4425C23.8877 45.0592 28.8876 45.4378 33.6625 46.61C38.203 47.7449 42.5527 49.543 46.5722 51.9467C48.008 52.7194 49.2838 53.7597 50.3311 55.012C51.2086 56.3103 51.9549 57.6932 52.5589 59.1401C53.9667 62.067 57.8128 64.7754 54.7505 65.1832C52.2034 65.5254 54.5255 67.3165 55.8608 68.525C56.1619 68.762 56.4218 69.0474 56.63 69.3696C56.8516 69.8301 56.9533 70.3394 56.9253 70.85C56.8974 71.3607 56.7408 71.8558 56.4702 72.2892C55.955 72.9445 58.045 73.0755 57.3338 73.3959Z" fill="black"/>
<path d="M57.3338 72.6674C56.9394 72.8067 56.6028 73.0745 56.3779 73.4282C56.1529 73.7819 56.0526 74.201 56.093 74.6187C55.3528 75.2739 54.315 74.5022 53.7127 73.6649C53.1032 72.8349 52.4139 71.8083 51.4923 71.9248C51.0545 72.0649 50.6296 72.2427 50.2223 72.4563C48.771 72.9222 47.5446 71.2113 46.7318 69.7114C45.3168 67.0831 43.9017 64.4572 42.4866 61.8336C39.6492 63.4864 36.2967 61.7536 33.4811 60.0426C30.6655 58.3315 27.3129 56.5915 24.4683 58.2442C20.2957 60.6614 20.1433 68.7212 15.8183 70.7089C14.425 71.3496 12.8068 71.2113 11.515 72.0922C10.2378 72.9659 9.54848 74.6477 8.97517 76.2568C8.76303 77.1728 8.26471 77.9967 7.5529 78.6085C7.10065 78.8457 6.59736 78.9682 6.08703 78.9653C4.80469 79.1839 3.48634 78.9982 2.31358 78.4338C1.6988 78.0462 1.23425 77.4597 0.996735 76.7713C0.75922 76.0829 0.762966 75.3337 1.00734 74.6477C1.04174 74.5751 1.08052 74.5046 1.12347 74.4366C1.5883 73.8728 2.00576 73.2713 2.37159 72.6383C2.80698 71.4806 2.18293 70.1337 2.32085 68.8814C2.54577 66.7409 4.80259 65.6123 5.18722 63.5082C5.34685 62.6855 5.17995 61.8045 5.33231 60.9745C5.35365 60.8658 5.38278 60.7587 5.41948 60.6542L4.09146 61.5715C5.57911 59.8314 6.32657 57.4142 7.41508 55.3028C8.62425 52.991 10.2882 50.9493 12.3063 49.3012C14.3244 47.653 16.6548 46.4327 19.1564 45.714C23.8878 44.3307 28.8876 44.7092 33.6625 45.8815C38.203 47.0164 42.5527 48.8145 46.5722 51.2183C48.008 51.9909 49.2838 53.0312 50.3311 54.2835C51.2086 55.5819 51.9549 56.9647 52.559 58.4116C53.9667 61.3385 57.8128 64.0469 54.7505 64.4547C52.2034 64.7969 54.5255 66.588 55.8608 67.7966C56.162 68.0335 56.4218 68.3189 56.63 68.6411C56.8516 69.1016 56.9533 69.6109 56.9253 70.1216C56.8974 70.6322 56.7408 71.1273 56.4702 71.5607C55.955 72.216 58.0451 72.347 57.3338 72.6674Z" fill="#865A61"/>
<path opacity="0.1" d="M55.8613 67.7966L55.5709 70.8618C55.5709 70.8618 25.1219 32.1427 1.4361 75.8637C1.4361 75.8637 1.31988 75.3322 1.12402 74.4366C1.58885 73.8728 2.00631 73.2713 2.37215 72.6383C2.80754 71.4806 2.18348 70.1337 2.32141 68.8814C2.54632 66.7409 4.80314 65.6123 5.18777 63.5082C5.3474 62.6855 5.1805 61.8045 5.33286 60.9745C5.3542 60.8658 5.38333 60.7587 5.42003 60.6542L4.09201 61.5715C5.57966 59.8314 6.32712 57.4142 7.41563 55.3028C8.6248 52.991 10.2887 50.9493 12.3069 49.3012C14.325 47.653 16.6553 46.4327 19.1569 45.714C23.8883 44.3307 28.8881 44.7092 33.663 45.8815C38.2036 47.0164 42.5533 48.8145 46.5728 51.2183C48.0086 51.9909 49.2843 53.0312 50.3316 54.2835C51.2091 55.5819 51.9555 56.9647 52.5595 58.4116C53.9673 61.3385 57.8134 64.0469 54.7511 64.4547C52.2039 64.7969 54.526 66.588 55.8613 67.7966Z" fill="black"/>
<g opacity="0.1">
<path opacity="0.1" d="M56.6121 72.271C56.462 72.4403 56.3527 72.6421 56.2928 72.8607C56.233 73.0792 56.2241 73.3086 56.2669 73.5312C55.5267 74.1865 54.489 73.4147 53.8867 72.5774C53.2772 71.7474 52.5878 70.7208 51.6662 70.8373C51.2284 70.9774 50.8035 71.1553 50.3963 71.3688C48.9449 71.8348 47.7185 70.1238 46.9058 68.624C45.4907 65.9956 44.0757 63.3697 42.6606 60.7462C39.8232 62.3989 36.4706 60.6661 33.655 58.9551C30.8394 57.2441 27.4869 55.504 24.6423 57.1568C20.4697 59.574 20.3172 67.6338 15.9923 69.6214C14.5989 70.2621 12.9807 70.1238 11.689 71.0048C10.4118 71.8784 9.72246 73.5603 9.14915 75.1694C8.93701 76.0853 8.43867 76.9093 7.72686 77.521C7.27462 77.7583 6.77132 77.8808 6.26099 77.8778C4.97865 78.0964 3.6603 77.9107 2.48754 77.3463C1.78469 76.8786 1.28056 76.1651 1.0734 75.3448C0.92931 75.9971 0.987579 76.6779 1.24036 77.296C1.49315 77.9141 1.92834 78.4397 2.48754 78.8024C3.6603 79.3669 4.97865 79.5526 6.26099 79.334C6.77132 79.3369 7.27462 79.2144 7.72686 78.9772C8.43867 78.3654 8.93701 77.5415 9.14915 76.6255C9.72246 75.0164 10.4118 73.3346 11.689 72.4609C12.9807 71.58 14.5989 71.7183 15.9923 71.0776C20.3172 69.0899 20.4697 61.0302 24.6423 58.6129C27.4869 56.9602 30.8394 58.7003 33.655 60.4113C36.4706 62.1222 39.8232 63.8551 42.6606 62.2023C44.0756 64.8234 45.4907 67.4493 46.9058 70.0801C47.7185 71.5799 48.9449 73.2909 50.3963 72.825C50.8035 72.6114 51.2284 72.4336 51.6662 72.2934C52.5878 72.177 53.2772 73.2036 53.8867 74.0336C54.489 74.8709 55.5267 75.6426 56.2669 74.9873C56.2266 74.5697 56.3269 74.1506 56.5518 73.7969C56.7768 73.4432 57.1133 73.1754 57.5078 73.0361C58.0736 72.7813 56.8703 72.6454 56.6121 72.271Z" fill="black"/>
<path opacity="0.1" d="M54.2393 64.9969C54.4588 64.9084 54.6893 64.85 54.9244 64.8234C56.2746 64.6436 56.2802 64.0159 55.7456 63.1201C55.4914 63.2577 55.212 63.3418 54.9244 63.3672C53.4674 63.563 53.6058 64.2332 54.2393 64.9969Z" fill="black"/>
<path opacity="0.1" d="M57.0193 71.0956C57.1204 70.6262 57.1179 70.1402 57.0118 69.6719C56.9472 69.9621 56.8219 70.2353 56.6442 70.4733C56.4169 70.7624 56.6968 70.9493 57.0193 71.0956Z" fill="black"/>
<path opacity="0.1" d="M2.53686 68.9985C2.52144 69.0818 2.50392 69.164 2.49484 69.2504C2.46527 69.9061 2.51281 70.563 2.63654 71.2075C2.72211 70.4706 2.68845 69.7247 2.53686 68.9985Z" fill="black"/>
<path opacity="0.1" d="M5.4831 60.1152C5.14159 60.7643 4.73356 61.3759 4.26562 61.9401L5.43687 61.131C5.43117 60.7918 5.44661 60.4525 5.4831 60.1152Z" fill="black"/>
</g>
<path d="M1.43404 75.1361C1.43404 75.1361 -2.9446 55.4972 -1.55139 52.3475C-1.55139 52.3475 -5.33295 44.5661 -5.33295 42.7133C-5.51643 39.6217 -6.47486 36.6265 -8.11938 34.0055C-10.1097 30.8559 -12.299 16.2193 -0.357226 12.6991C11.5846 9.17887 20.7399 6.02922 22.1331 3.62069C23.5264 1.21216 44.0265 2.69432 49.5993 11.958C55.1721 21.2216 58.7546 19.3689 58.7546 19.3689C58.7546 19.3689 67.3129 24.7418 67.3129 29.5589C67.3129 34.376 64.7255 36.7846 67.3129 37.8962C69.9003 39.0079 67.91 59.0174 56.5653 59.5732L55.5702 70.1338C55.5702 70.1338 25.1186 31.4117 1.43404 75.1361Z" fill="#3BB9E0"/>
<path opacity="0.1" d="M2.73824 16.5259C2.73824 16.5259 0.107686 31.9975 4.91525 37.185L2.73824 16.5259Z" fill="black"/>
<path opacity="0.1" d="M15.0744 12.9766C15.0744 12.9766 8.36199 29.5403 9.99474 32.7256L15.0744 12.9766Z" fill="black"/>
<path opacity="0.1" d="M59.6128 37.9136C59.6128 37.9136 53.2632 41.0079 54.4424 42.6461L59.6128 37.9136Z" fill="black"/>
<path opacity="0.1" d="M-1.55127 52.3475C-1.55127 52.3475 39.0049 35.8194 56.5654 59.5732C56.5654 59.5732 35.2502 41.3901 -1.55127 52.3475Z" fill="black"/>
<path d="M20.9068 197.867C20.9068 197.867 -2.86579 189.172 -5.20183 187.093C-7.53787 185.014 -21.2793 197.111 -4.51476 213.555C-4.51476 213.555 15.9849 219.415 21.469 213.555C26.953 207.696 20.9068 197.867 20.9068 197.867Z" fill="#EED7DB"/>
<defs>
<linearGradient id="paint0_linear" x1="34.2241" y1="595.629" x2="34.2241" y2="0" gradientUnits="userSpaceOnUse">
<stop stop-color="#808080" stop-opacity="0.25"/>
<stop offset="0.53514" stop-color="#808080" stop-opacity="0.12"/>
<stop offset="1" stop-color="#808080" stop-opacity="0.1"/>
</linearGradient>
</defs>
</svg>
