<svg width="145" height="327" viewBox="0 0 145 327" fill="none" xmlns="http://www.w3.org/2000/svg">
  <path d="M88 327C119.48 327 145 321.851 145 315.5C145 309.149 119.48 304 88 304C56.5198 304 31 309.149 31 315.5C31 321.851 56.5198 327 88 327Z" fill="#E6E6E6" />
  <path d="M27.4083 141.978L20.0317 140.688C20.0317 140.688 4.95569 133.678 4.04177 138.987C3.12784 144.297 17.5156 149 17.5156 149L33 147.331L27.4083 141.978Z" fill="#FFB8B8" />
  <path d="M71.3359 88L60.9617 135.821L26.3279 140.772L25 154.88L69.6632 155L92 113.691L71.3359 88Z" fill="#3C3C3C" />
  <path d="M18.5085 102.171L13.1672 96.6658C13.1672 96.6658 4.80846 81.7588 0.950133 85.647C-2.90819 89.5351 6.23092 102.1 6.23092 102.1L20 110L18.5085 102.171Z" fill="#FFB8B8" />
  <path d="M91.6165 72.5059L98.1525 70.9224C100.647 70.9255 103.11 70.3775 105.365 69.3181C107.62 68.2587 109.609 66.7143 111.19 64.7967C112.771 62.8792 113.902 60.6364 114.504 58.2306C115.105 55.8249 115.161 53.3164 114.667 50.8866C114.674 45.0892 112.364 39.5264 108.245 35.4218C104.125 31.3173 98.5339 29.0073 92.7009 29H92.7008C86.8678 28.9927 81.2708 31.2888 77.141 35.383C73.0113 39.4772 70.6871 45.0343 70.6798 50.8317C69.8344 53.7557 69.7765 56.8491 70.5118 59.8023C71.2472 62.7555 72.75 65.465 74.87 67.6596C76.9899 69.8542 79.6525 71.4569 82.5915 72.3074C85.5304 73.1579 88.6426 73.2263 91.6165 72.5059Z" fill="#2F2E41" />
  <path d="M53 182.669L58.2968 241.365L67.8907 298.98L84 299L81.9222 242.482L73.4161 174L53 182.669Z" fill="#3BB9E0" />
  <path d="M69.9906 295L59.298 301.472C59.298 301.472 42.2 303.613 45.3987 309.022C48.5974 314.431 85.9973 311.235 86 309.073C86.0027 306.911 84.949 295.019 82.8121 295.016L69.9906 295Z" fill="#2F2E41" />
  <path d="M100.73 177.219C100.73 177.219 100.423 185.621 92.7752 198.671L93.8148 238.938L133 289.047L118.812 301L70.9103 246.527L59 181.216L74.2823 166L100.73 177.219Z" fill="#3BB9E0" />
  <path d="M129.814 289C129.814 289 142.949 291.186 140.752 296.608C138.556 302.031 133.05 326.978 118.822 323.705C118.822 323.705 112.254 323.697 114.449 319.36C115.768 316.751 117.233 314.218 118.838 311.771L118.855 297.666L129.814 289Z" fill="#2F2E41" />
  <path d="M84.5 74C93.6127 74 101 66.6127 101 57.5C101 48.3873 93.6127 41 84.5 41C75.3873 41 68 48.3873 68 57.5C68 66.6127 75.3873 74 84.5 74Z" fill="#FFB8B8" />
  <path d="M92 69.0185L91.9773 87L75 86.9787L77.1444 69L92 69.0185Z" fill="#FFB8B8" />
  <path d="M103 185L92.2459 183.189C78.5267 180.869 64.4768 181.464 51 184.936L55.8641 136.209L56.4967 129.857L57.8532 116.255C57.8532 116.255 53.165 98.3312 60.0463 92.2765C68.4458 84.885 75.8825 79 75.8825 79L92.302 80.3227C101.482 98.7415 99.4926 121.892 93.3002 146.833L103 185Z" fill="#3C3C3C" />
  <path d="M84.8926 83L48.7958 115.527L17.5586 99.3677L11 107.363L38.5927 131.581C40.4887 132.935 42.7161 133.754 45.0404 133.953C47.3646 134.151 49.6997 133.722 51.7995 132.71L87 115.741L84.8926 83Z" fill="#3C3C3C" />
  <path d="M115.5 46C121.299 46 126 41.299 126 35.5C126 29.701 121.299 25 115.5 25C109.701 25 105 29.701 105 35.5C105 41.299 109.701 46 115.5 46Z" fill="#2F2E41" />
  <path d="M106.416 29.4029C106.417 27.8337 106.764 26.2844 107.431 24.8666C108.097 23.4488 109.067 22.1981 110.271 21.2044C111.475 20.2108 112.882 19.4992 114.392 19.1208C115.901 18.7425 117.475 18.7068 119 19.0165C117.655 18.3751 116.19 18.0292 114.702 18.0018C113.214 17.9743 111.738 18.2659 110.37 18.8573C109.002 19.4486 107.775 20.3262 106.768 21.4321C105.762 22.5379 105 23.8467 104.532 25.2719C104.065 26.6972 103.902 28.2063 104.056 29.6995C104.21 31.1927 104.677 32.6359 105.425 33.9337C106.173 35.2314 107.185 36.3541 108.395 37.2275C109.606 38.1009 110.986 38.7051 112.445 39C110.641 38.1426 109.116 36.7848 108.048 35.0853C106.981 33.3858 106.415 31.4149 106.416 29.4029Z" fill="#2F2E41" />
  <path d="M97.5923 35.445L83.9521 33L73.4621 39.4004C70.8831 40.9739 68.8217 43.2344 67.5225 45.9139C66.2233 48.5934 65.7408 51.5794 66.1321 54.5178L76.6381 51.9254L78.9907 46.1828C80.5016 48.5858 82.6107 50.579 85.1229 51.9781C91.0754 55.3045 92.4554 62.3754 93.1592 70L104.667 63.9075L112 52.7212L97.5923 35.445Z" fill="#2F2E41" />
  <path opacity="0.2" d="M84 106L56 136L56.6268 129.669L84 106Z" fill="black" />
  <path d="M115.686 56.69C100.416 51.1843 84.2839 48.4514 68.052 48.6202C67.7941 48.6231 67.5387 48.5694 67.3039 48.4629C67.069 48.3564 66.8603 48.1997 66.6926 48.0039C66.525 47.808 66.4023 47.5778 66.3334 47.3294C66.2645 47.081 66.2509 46.8206 66.2937 46.5664L69.9473 25L121.677 33.7635L118.023 55.33C117.98 55.584 117.881 55.8255 117.734 56.0373C117.587 56.2491 117.396 56.4261 117.173 56.5558C116.95 56.6855 116.701 56.7647 116.445 56.7879C116.188 56.8111 115.929 56.7777 115.686 56.69Z" fill="#3BB9E0" />
  <path d="M124.336 22.2904C123.049 22.0711 121.734 22.0683 120.445 22.2821C119.322 18.1333 117.038 14.3904 113.861 11.4929C110.684 8.59539 106.746 6.66339 102.509 5.92364C98.2728 5.1839 93.9132 5.6671 89.9423 7.31655C85.9714 8.96599 82.5539 11.7132 80.0909 15.2359C78.3893 14.4325 76.5196 14.0494 74.6391 14.1191C72.7587 14.1887 70.9226 14.7089 69.2856 15.636C67.6485 16.563 66.2585 17.8697 65.2326 19.4459C64.2066 21.0222 63.5748 22.8218 63.3904 24.6933C63.2059 26.5648 63.4743 28.4532 64.1727 30.1996C64.8712 31.9459 65.9794 33.4991 67.4039 34.7281C68.8284 35.9572 70.5275 36.8262 72.3582 37.262C74.1888 37.6977 76.0973 37.6874 77.923 37.2319C79.4388 40.6889 81.7971 43.7114 84.7825 46.0234C87.7679 48.3354 91.2851 49.8632 95.013 50.4672C98.7409 51.0712 102.561 50.7322 106.123 49.4811C109.686 48.2301 112.878 46.1068 115.408 43.3053C116.835 44.3572 118.482 45.0724 120.226 45.3972C121.969 45.722 123.764 45.648 125.474 45.1807C127.185 44.7134 128.767 43.865 130.102 42.6991C131.438 41.5333 132.491 40.0803 133.184 38.4491C133.877 36.818 134.192 35.051 134.104 33.281C134.016 31.5109 133.528 29.7836 132.676 28.2288C131.825 26.674 130.632 25.3319 129.188 24.3035C127.743 23.275 126.085 22.5868 124.336 22.2904Z" fill="#3BB9E0" />
</svg>
