<svg width="244" height="414" viewBox="0 0 244 414" fill="none" xmlns="http://www.w3.org/2000/svg">
<path d="M21.5717 278.231C21.5717 229.432 139.088 207.356 214.426 256.156C289.764 304.955 411.935 186.071 475.056 207.647C538.177 229.222 594.317 436.539 475.056 436.539C355.794 436.539 163.231 390.354 58.5136 436.539C-46.2037 482.724 21.5717 327.031 21.5717 278.231Z" fill="#C4C4C4" fill-opacity="0.2"/>
<path d="M102.33 378.821C122.798 378.821 139.39 362.229 139.39 341.761C139.39 321.294 122.798 304.701 102.33 304.701C81.8624 304.701 65.27 321.294 65.27 341.761C65.27 362.229 81.8624 378.821 102.33 378.821Z" fill="white"/>
<path d="M109.068 358.186C118.139 358.186 125.493 350.832 125.493 341.761C125.493 332.69 118.139 325.337 109.068 325.337C99.9975 325.337 92.644 332.69 92.644 341.761C92.644 350.832 99.9975 358.186 109.068 358.186Z" fill="#3BB9E0"/>
<path d="M78.957 367.661L159.816 401.352L157.289 409.354L110.753 404.089L32 369.135L75.798 374.189L78.957 367.661Z" fill="white"/>
<path d="M150.432 399.834L250.996 69.9471L275.486 26.4562L275.573 26.0365C275.652 25.6528 277.449 16.5623 273.027 9.97919C271.912 8.34277 270.472 6.95355 268.796 5.89813C267.121 4.84272 265.246 4.14374 263.288 3.84473C249.772 1.3105 219.534 0.0618772 218.254 0.00985718L218.013 0L217.773 0.0326843C216.947 0.145374 197.622 2.97016 193.254 19.8449L172.23 58.1086L172.147 58.3808L76.9697 371.286L82.2076 372.88L177.302 60.2463L198.397 21.8537L198.482 21.5008C201.571 8.80232 216.339 5.83153 218.303 5.49161C221.392 5.62342 249.812 6.88809 262.279 9.22574C263.517 9.39451 264.706 9.81838 265.772 10.4706C266.838 11.1227 267.757 11.989 268.47 13.0145C271.196 17.0507 270.514 22.9933 270.274 24.5555L245.934 67.7802L245.846 68.0654L145.194 398.237L150.432 399.834Z" fill="white"/>
<path d="M165.135 89.7452L164.162 95.1328L236.792 108.251L237.765 102.863L165.135 89.7452Z" fill="white"/>
<path d="M151.571 134.551L150.476 139.915L222.588 154.633L223.683 149.269L151.571 134.551Z" fill="white"/>
<path d="M127.418 214.683L125.912 219.946L196.316 240.092L197.822 234.828L127.418 214.683Z" fill="white"/>
<path d="M175.031 370L177.027 364.901L108.691 338.143L105.335 301.809L169.117 325.632L189.78 355.53L194.285 352.418L172.643 321.104L99.082 293.628L103.55 342.01L175.031 370Z" fill="white"/>
<path d="M198.771 414.196C219.238 414.196 235.831 397.604 235.831 377.136C235.831 356.669 219.238 340.076 198.771 340.076C178.303 340.076 161.71 356.669 161.71 377.136C161.71 397.604 178.303 414.196 198.771 414.196Z" fill="white"/>
<path d="M208.457 395.245C217.528 395.245 224.881 387.892 224.881 378.821C224.881 369.75 217.528 362.396 208.457 362.396C199.386 362.396 192.032 369.75 192.032 378.821C192.032 387.892 199.386 395.245 208.457 395.245Z" fill="#3BB9E0"/>
</svg>
